<?xml version="1.0" encoding="utf-8"?>
<!-- Generator: Adobe Illustrator 25.0.0, SVG Export Plug-In . SVG Version: 6.00 Build 0)  -->
<svg version="1.1" id="OutLine" xmlns="http://www.w3.org/2000/svg" xmlns:xlink="http://www.w3.org/1999/xlink" x="0px" y="0px"
	 viewBox="0 0 512 512" style="enable-background:new 0 0 512 512;" xml:space="preserve">
<style type="text/css">
	.st0{fill:#061F75;}
</style>
<path class="st0" d="M349.7,18.3c-1.5-1.5-3.5-2.3-5.7-2.3H120c-30.9,0-56,25.1-56,56v368c0,30.9,25.1,56,56,56h272
	c30.9,0,56-25.1,56-56V120c0-2.1-0.8-4.2-2.3-5.7L349.7,18.3z M352,43.3l68.7,68.7H392c-22.1,0-40-17.9-40-40V43.3z M120,32h216v40
	c0,30.9,25.1,56,56,56h40v224H80V72C80,49.9,97.9,32,120,32z M392,480H120c-22.1,0-40-17.9-40-40v-72h352v72
	C432,462.1,414.1,480,392,480z"/>
<path class="st0" d="M192,384h-16c-4.4,0-8,3.6-8,8s3.6,8,8,8h16c4.4,0,8,3.6,8,8s-3.6,8-8,8h-16c-4.4,0-8,3.6-8,8s3.6,8,8,8h16
	c4.4,0,8,3.6,8,8s-3.6,8-8,8h-16c-4.4,0-8,3.6-8,8s3.6,8,8,8h16c13.2,0,24-10.7,24-24c0-5.9-2.2-11.6-6.1-16c8.8-9.9,8-25-1.8-33.9
	C203.6,386.2,197.9,384,192,384z"/>
<path class="st0" d="M240,384c-4.4,0-8,3.6-8,8v64c0,4.4,3.6,8,8,8c22.1,0,40-17.9,40-40S262.1,384,240,384z M248,446.6v-45.3
	c12.5,4.4,19,18.1,14.6,30.6C260.2,438.8,254.8,444.2,248,446.6z"/>
<path class="st0" d="M320,400h16c4.4,0,8-3.6,8-8s-3.6-8-8-8h-16c-13.3,0-24,10.7-24,24s10.7,24,24,24c4.4,0,8,3.6,8,8s-3.6,8-8,8
	h-16c-4.4,0-8,3.6-8,8s3.6,8,8,8h16c13.3,0,24-10.7,24-24s-10.7-24-24-24c-4.4,0-8-3.6-8-8S315.6,400,320,400z"/>
<path class="st0" d="M180.1,263l72,40c2.4,1.3,5.4,1.3,7.8,0l72-40c2.5-1.4,4.1-4.1,4.1-7v-96c0-2.9-1.6-5.6-4.1-7l-72-40
	c-2.4-1.3-5.4-1.3-7.8,0l-72,40c-2.5,1.4-4.1,4.1-4.1,7v96C176,258.9,177.6,261.6,180.1,263z M192,173.6l56,31.1v77.7l-56-31.1
	V173.6z M264,282.4v-77.7l56-31.1v77.7L264,282.4z M256,129.1l55.5,30.9L256,190.8L200.5,160L256,129.1z"/>
</svg>
