<?xml version="1.0" encoding="UTF-8"?>
<svg id="Layer_1" xmlns="http://www.w3.org/2000/svg" version="1.1" viewBox="0 0 485.63 486.39">
  <!-- Generator: Adobe Illustrator 30.5.1, SVG Export Plug-In . SVG Version: 2.1.4 Build 3)  -->
  <defs>
    <style>
      .st0 {
        fill: #061f75;
        stroke: #061f75;
        stroke-miterlimit: 10;
        stroke-width: 9px;
      }

      .st1 {
        font-family: Montserrat-SemiBold, Montserrat;
        font-size: 150.55px;
        font-weight: 600;
      }
    </style>
  </defs>
  <g id="_1351_-_Cyber_Security">
    <path class="st0" d="M403.84,124.46c0,11.66,8.11,21.39,19,23.92v36.99h-48.69c-14.4-32.81-40.75-59.23-73.51-73.72v-48.5h37.02c2.52,10.88,12.24,19,23.89,19.02,13.59,0,24.61-11.01,24.62-24.6,0-13.55-10.99-24.55-24.55-24.57-11.66-.02-21.42,8.09-23.96,18.98h-42.61c-3.08,0-5.59,2.5-5.59,5.59v49.69c-12.96-4.47-26.75-7.13-41.07-7.68v-46.57c10.88-2.54,18.98-12.27,19-23.92,0-13.58-11-24.59-24.59-24.59-13.58,0-24.59,11-24.59,24.59,0,11.66,8.11,21.39,19,23.92v46.56c-14.32.55-28.12,3.21-41.07,7.68v-49.69c0-3.08-2.5-5.59-5.59-5.59h-42.58c-2.54-10.88-12.27-18.98-23.92-18.98-13.58,0-24.59,11-24.59,24.59,0,13.58,11,24.59,24.59,24.59,11.66-.02,21.39-8.13,23.92-19.02h36.99v48.5c-32.76,14.5-59.11,40.91-73.51,73.72h-48.65v-37.01c10.85-2.56,18.93-12.28,18.94-23.9v-.02c0-13.58-11.02-24.58-24.6-24.57-13.58,0-24.58,11.02-24.57,24.6,0,11.67,8.15,21.41,19.06,23.92v42.56c0,3.08,2.5,5.59,5.59,5.59h49.88c-4.43,12.96-7.05,26.75-7.56,41.07h-46.55c-2.53-10.89-12.27-19-23.92-19-13.58,0-24.59,11-24.59,24.59,0,13.58,11,24.59,24.59,24.59,11.65-.02,21.37-8.12,23.92-19h46.58c.59,14.34,3.29,28.13,7.81,41.09h-50.2c-3.08,0-5.59,2.5-5.59,5.59v42.55c-10.9,2.53-19.03,12.28-19.02,23.95,0,13.58,11.02,24.58,24.6,24.57h0c13.55-.03,24.53-10.99,24.57-24.55v-.06c0-11.64-8.11-21.36-18.98-23.9v-36.97h49.04c14.48,32.44,40.67,58.55,73.16,72.93v49.25h-36.98c-2.53-10.89-12.27-19.01-23.93-19.01-13.58,0-24.59,11-24.59,24.59s11,24.59,24.59,24.59c11.65,0,21.37-8.12,23.92-18.99h42.58c3.08,0,5.59-2.5,5.59-5.59v-50.44c12.96,4.47,26.75,7.13,41.07,7.68v47.33c-10.89,2.53-19,12.27-19,23.92,0,13.58,11,24.59,24.59,24.59,13.57-.02,24.57-11.01,24.59-24.59,0-11.66-8.11-21.39-19-23.92v-47.33c14.33-.55,28.13-3.21,41.09-7.69v50.45c0,3.08,2.5,5.59,5.59,5.59h42.59c2.53,10.87,12.24,18.97,23.88,18.99,13.58,0,24.6-10.99,24.62-24.58,0-13.56-10.98-24.58-24.55-24.59-11.67-.02-21.44,8.11-23.97,19.01h-37v-49.26c32.48-14.38,58.66-40.49,73.14-72.93h49.04v36.97c-10.89,2.53-19,12.27-19,23.92,0,13.58,11,24.59,24.59,24.59,13.55-.02,24.55-10.99,24.59-24.55v-.04c0-11.66-8.11-21.39-19-23.92v-42.55c0-3.08-2.5-5.59-5.59-5.59h-50.2c4.52-12.96,7.22-26.75,7.81-41.09h46.58c2.53,10.89,12.27,19,23.92,19,13.57-.02,24.57-11.01,24.59-24.59,0-13.58-11-24.59-24.59-24.59-11.66,0-21.39,8.11-23.92,19h-46.55c-.51-14.32-3.13-28.11-7.56-41.07h49.92c3.08,0,5.59-2.5,5.59-5.59v-42.58c10.88-2.54,18.98-12.27,19-23.92,0-13.58-11-24.59-24.59-24.59-13.58,0-24.59,11-24.59,24.59ZM361.55,44.17c7.41,0,13.43,5.99,13.45,13.4,0,7.4-5.98,13.41-13.38,13.43-7.41.02-13.43-5.97-13.45-13.38-.02-7.41,5.97-13.43,13.38-13.45ZM124.08,70.99c-7.41,0-13.41-6-13.41-13.41,0-7.41,6-13.41,13.41-13.41,7.4,0,13.4,6,13.41,13.4v.02c0,7.41-6,13.41-13.41,13.41ZM43.77,124.44c0-7.41,6.02-13.41,13.43-13.4,7.4.02,13.39,6.01,13.4,13.41v.02c0,7.41-6.02,13.41-13.43,13.4s-13.41-6.02-13.4-13.43ZM70.59,361.97c-.02,7.4-6.03,13.39-13.43,13.38-7.41,0-13.41-6.02-13.4-13.43,0-7.41,6.02-13.4,13.43-13.4h0s0,0,0,0c7.41.02,13.4,6.04,13.4,13.45ZM124.08,442.22c-7.41,0-13.41-6-13.41-13.41s6-13.41,13.41-13.41c7.41,0,13.41,6,13.41,13.41,0,7.41-6,13.41-13.41,13.41ZM361.55,415.39c7.42,0,13.44,6,13.45,13.41,0,7.39-5.99,13.4-13.38,13.41-7.41.02-13.43-5.97-13.45-13.38-.02-7.41,5.97-13.43,13.38-13.45ZM441.84,361.97c-.02,7.39-6.02,13.38-13.41,13.38-7.41,0-13.41-6-13.41-13.41,0-7.41,6-13.41,13.41-13.41,0,0,0,0,0,0,0,0,0,0,0,0h.02c7.41.02,13.41,6.04,13.4,13.45ZM229.4,29.09c0-7.41,6-13.41,13.41-13.41,7.4,0,13.41,6.01,13.41,13.41,0,7.41-6,13.41-13.41,13.41-7.41,0-13.41-6-13.41-13.41ZM29.09,256.61c-7.41,0-13.41-6-13.41-13.41s6-13.41,13.41-13.41c7.41,0,13.41,6,13.41,13.41,0,7.41-6,13.41-13.41,13.41ZM256.23,457.3c0,7.41-6,13.41-13.41,13.41-7.41,0-13.41-6-13.41-13.41,0-7.41,6-13.41,13.41-13.41,0,0,0,0,0,0s0,0,0,0c7.4,0,13.4,6.01,13.41,13.41ZM242.81,375c-72.91,0-132.19-59.28-132.19-132.19s59.32-132.19,132.19-132.19c72.87,0,132.19,59.28,132.19,132.19s-59.28,132.19-132.19,132.19ZM456.54,229.78c7.4,0,13.41,6.01,13.41,13.41,0,7.41-6,13.41-13.41,13.41s-13.41-6-13.41-13.41,6-13.41,13.41-13.41ZM441.84,124.46c0,7.41-6,13.41-13.41,13.41s-13.41-6-13.41-13.41c0-7.41,6-13.41,13.41-13.41,7.41,0,13.41,6,13.41,13.41Z"/>
    <text class="st1" transform="translate(160.86 293.75)"><tspan x="0" y="0">AI</tspan></text>
  </g>
</svg>