<?xml version="1.0" encoding="utf-8"?>
<!-- Generator: Adobe Illustrator 25.0.0, SVG Export Plug-In . SVG Version: 6.00 Build 0)  -->
<svg version="1.1" id="Capa_1" xmlns="http://www.w3.org/2000/svg" xmlns:xlink="http://www.w3.org/1999/xlink" x="0px" y="0px"
	 viewBox="0 0 512 512" style="enable-background:new 0 0 512 512;" xml:space="preserve">
<style type="text/css">
	.st0{fill:#061F75;}
</style>
<g>
	<g id="Layer_2_1_">
		<g id="Layer_1-2">
			<path id="air_freight" class="st0" d="M475.8,252.7c-9-9-23.5-9-32.6,0l-11.4,11.4L413,176.5c22.2-21.7,41.6-40.7,55.3-54
				C486.5,105,547.8,3.7,482.8,0.1c-71.1,9.1-99,50.8-147.3,98.7l-87.6-18.8l11.4-11.4c9-9,9-23.6,0-32.6L248.2,25
				c-9-9-23.6-9-32.6,0l-39.7,39.6C138.8,59,87.1,36,52.8,55.6L31.2,66.5c-10.2,5.3-14.1,17.8-8.9,28c2.1,4.1,5.6,7.4,9.8,9.3
				l208.2,91.9c-44.2,44.9-85.1,86.4-105.2,106.8c-3,3-7.1,4.7-11.3,4.6l-79.8-1.9c-7.3-0.2-14.5,2.3-20.2,6.9
				c-6.9,6.9-26.5,16.5-23.7,28.6c0.7,5.3,4,9.9,8.9,12.1l95.6,43.4l-24.1,24.1c-3,3-3,7.9,0,11c3,3,7.9,3,11,0l24.1-24.1l43.4,95.6
				c2.5,5.6,8,9.2,14.1,9.1c10.6,1.2,20.6-17.6,26.6-23.8c4.6-5.7,7-12.9,6.9-20.2l-1.9-79.8c-0.1-4.3,1.5-8.4,4.6-11.4
				c20.3-20.1,61.8-61,106.8-105.2l91.9,208.4c3.2,7.3,10.3,12.1,18.3,12.3c17.1,1.8,23.3-21.4,29.9-32.9
				c19.6-34.3-3.4-86.3-9-123.2l39.6-39.6c9-9,9-23.6,0-32.6L475.8,252.7z M226.5,36c7.7-7.8,16.7,7.1,21.8,11.2
				c2.9,2.9,2.9,7.7,0,10.6c0,0,0,0,0,0l-18.5,18.4L194,68.5L226.5,36z M38.4,89.6c-2.6-1.1-3.8-4-2.8-6.6c0.5-1.2,1.4-2.1,2.6-2.7
				c18-12.9,40.3-18.6,62.3-16l222.2,47.7c-22.3,22.8-46.7,47.6-70.7,71.9L38.4,89.6z M198.6,365.6c-6,6-9.3,14.2-9.1,22.7l1.9,79.8
				c1.2,8.4-14,21.9-18,28.2l-45.8-100.8l29.7-29.7c3-3,3-7.9,0-11c-3-3-7.9-3-11,0l-29.7,29.7L15.6,338.8
				c6.3-4.1,19.8-19.3,28.2-18.1l79.7,1.9c8.5,0.3,16.7-3,22.7-9.1c45.7-46.3,198.9-201.8,254.4-258.9
				c23.2-20.4,51.7-33.9,82.2-38.8c38.8,0-16.8,89.9-25.4,95.6C400.3,166.9,244.9,320,198.6,365.6L198.6,365.6z M442.5,452.1
				c-6.7,10.3-11.3,33-20.2,21.3l-94.2-213.6c24.3-23.9,49.2-48.4,71.9-70.7l47.8,222.3C450.7,425.2,448.8,439.6,442.5,452.1
				L442.5,452.1L442.5,452.1z M476,285.3l-32.5,32.5l-7.7-35.8l18.4-18.4c2.9-2.9,7.7-2.9,10.6,0C468.9,268.8,483.8,277.8,476,285.3
				L476,285.3z M452.1,98.5c-0.5,3.8-3.8,6.7-7.7,6.7c-13.5-1-3-18.8-12.3-25.5c-4.5-4.1-10.7-5.8-16.7-4.6
				c-4.2,0.6-8.1-2.4-8.7-6.6c-0.6-4.2,2.4-8.1,6.6-8.7c17.9-3.5,35.3,8.3,38.7,26.2C452.9,90.2,452.9,94.4,452.1,98.5L452.1,98.5z"
				/>
		</g>
	</g>
</g>
</svg>
