<svg id="Layer_1" data-name="Layer 1" xmlns="http://www.w3.org/2000/svg" viewBox="0 0 100 100"><path d="M29.41,58.8,5,44.72V16.55L29.41,2.46l24.4,14.09V44.72ZM7,43.56,29.41,56.5l22.4-12.94V17.7L29.41,4.77,7,17.7Z" fill="#061f75"/><path d="M68.19,97.77,43.8,83.68V55.51L68.19,41.42l24.4,14.09V83.68ZM45.8,82.53,68.19,95.46l22.4-12.93V56.67L68.19,43.73,45.8,56.67Z" fill="#061f75"/><path d="M50.4,66.75l.82-1.83A6.24,6.24,0,0,0,54.69,66c1.44,0,2-.48,2-1.12,0-2-6.1-.62-6.1-4.52,0-1.78,1.44-3.27,4.42-3.27a7.12,7.12,0,0,1,3.65.93l-.75,1.85A5.9,5.9,0,0,0,55,59.05c-1.44,0-2,.54-2,1.2,0,1.94,6.11.6,6.11,4.46,0,1.75-1.46,3.25-4.46,3.25A7.48,7.48,0,0,1,50.4,66.75Z" fill="#061f75"/><path d="M61.92,57.28h4.77c3.43,0,5.79,2.07,5.79,5.25s-2.36,5.25-5.79,5.25H61.92Zm4.65,8.51a3.26,3.26,0,1,0,0-6.51H64.35v6.51Z" fill="#061f75"/><path d="M79.26,63.66l-1.41,1.47v2.65H75.43V57.28h2.42v4.91l4.65-4.91h2.7L80.85,62l4.6,5.82H82.62Z" fill="#061f75"/><path d="M22.33,26.66H17.46l-.93,2.25H14l4.68-10.5h2.4l4.69,10.5H23.26Zm-.76-1.85-1.67-4-1.66,4Z" fill="#061f75"/><path d="M37.14,22.22c0,2.34-1.76,3.79-4.56,3.79H30.46v2.9H28V18.41h4.55C35.38,18.41,37.14,19.86,37.14,22.22Zm-2.46,0c0-1.16-.75-1.83-2.24-1.83h-2V24h2C33.93,24,34.68,23.36,34.68,22.22Z" fill="#061f75"/><path d="M40,18.41h2.43v10.5H40Z" fill="#061f75"/><path d="M22.47,46.59a1,1,0,0,1-.71-.29l-5.53-5.5a1,1,0,0,1-.3-.71,1,1,0,0,1,.3-.71l5.53-5.5a1,1,0,0,1,1.42,0,1,1,0,0,1,0,1.41l-4.82,4.79,4.82,4.79a1,1,0,0,1,0,1.42A1,1,0,0,1,22.47,46.59Z" fill="#061f75"/><path d="M35.47,46.59a1,1,0,0,1-.71-1.71l4.82-4.79L34.76,35.3a1,1,0,0,1,1.41-1.42l5.54,5.5a1,1,0,0,1,.29.71,1,1,0,0,1-.29.71l-5.54,5.5A1,1,0,0,1,35.47,46.59Z" fill="#061f75"/><path d="M25.8,49.43a.84.84,0,0,1-.35-.07,1,1,0,0,1-.58-1.29L31.2,31.4a1,1,0,0,1,1.29-.58,1,1,0,0,1,.58,1.29L26.74,48.78A1,1,0,0,1,25.8,49.43Z" fill="#061f75"/><path d="M80.66,82.64a1,1,0,0,1,.06,1.41L69.25,91.32a1.15,1.15,0,0,1-1.4-.06L55.73,83.34a1,1,0,0,1-.06-1.41l11.47-5.69a1,1,0,0,1,1.4.06Z" fill="#fff"/><path d="M67.81,77l0,0,.1.1.14.07,11.83,6.2L68.75,90.46l-.16.07a.6.6,0,0,1-.2-.11l-11.9-7.78,11.09-5.51.15-.07.08-.08m0-1a.86.86,0,0,0-.64.26L55.67,81.93a1,1,0,0,0,.06,1.41l12.12,7.92a1.15,1.15,0,0,0,1.4.06l11.47-7.27a1,1,0,0,0-.06-1.41L68.54,76.3a1,1,0,0,0-.76-.32Z" fill="#061f75"/><path d="M80.66,77.68a1,1,0,0,1,.06,1.41L69.25,86.36a1,1,0,0,1-1.4-.06L55.73,78.38A1,1,0,0,1,55.67,77l11.47-5.7a1,1,0,0,1,1.4.06Z" fill="#061f75"/><path d="M67.78,71a1.09,1.09,0,0,1,.76.32l12.12,6.35a1,1,0,0,1,.06,1.41L69.25,86.36a1.06,1.06,0,0,1-.63.24,1.39,1.39,0,0,1-.77-.3L55.73,78.38A1,1,0,0,1,55.67,77l11.47-5.7a.9.9,0,0,1,.64-.26m0-.45h0a1.34,1.34,0,0,0-.9.34L55.47,76.57l-.07,0,0,.05a1.35,1.35,0,0,0-.39,1,1.5,1.5,0,0,0,.45,1l0,0,0,0L67.6,86.67a1.84,1.84,0,0,0,1,.38,1.54,1.54,0,0,0,.88-.32L81,79.46l0,0,0,0a1.33,1.33,0,0,0,.39-1,1.59,1.59,0,0,0-.45-1l0,0-.06,0L68.8,71a1.5,1.5,0,0,0-1-.41Z" fill="#fff"/></svg>