<svg id="Layer_1" data-name="Layer 1" xmlns="http://www.w3.org/2000/svg" viewBox="0 0 512 512"><g id="Icon"><path d="M405.33,309.33a96,96,0,1,0,96,96A96.05,96.05,0,0,0,405.33,309.33Zm0,21.34a74.67,74.67,0,1,1-74.66,74.66A74.71,74.71,0,0,1,405.33,330.67Z" fill="#061f75" fill-rule="evenodd"/><path d="M363.57,413l22.63,22.62a10.65,10.65,0,0,0,15.08,0l45.25-45.24a10.67,10.67,0,1,0-15.08-15.09L393.74,413l-15.08-15.08A10.67,10.67,0,1,0,363.57,413Z" fill="#061f75" fill-rule="evenodd"/><path d="M213.33,95.66a53.36,53.36,0,0,0-37.6,15.51l-.11.12A53.3,53.3,0,0,0,160,149v21.34a53.34,53.34,0,0,0,106.67,0V149a53.35,53.35,0,0,0-53.34-53.33Zm0,21.33a32,32,0,0,0-22.56,9.3l-.06.08A32,32,0,0,0,181.33,149v21.34a32.05,32.05,0,0,0,9.3,22.56l.08.07a32,32,0,0,0,54.62-22.63V149a32,32,0,0,0-32-32Z" fill="#061f75" fill-rule="evenodd"/><path d="M309.33,298.67A53.31,53.31,0,0,0,256,245.33H170.67a53.33,53.33,0,0,0-53.34,53.34,10.67,10.67,0,0,0,21.34,0,32,32,0,0,1,32-32H256a32,32,0,0,1,32,32,10.67,10.67,0,0,0,21.33,0Z" fill="#061f75" fill-rule="evenodd"/><path d="M278.75,440.54a470.08,470.08,0,0,1-63.16,38.95,5.29,5.29,0,0,1-4.42.05c-21-10.61-81.62-44.15-126.83-97C54.94,348.23,32,305.63,32,255.66v-85a10.67,10.67,0,1,0-21.33,0v85c0,55.35,24.9,102.75,57.47,140.8,47.66,55.68,111.57,91.09,133.43,102.13l.17.1a26.69,26.69,0,0,0,23.21,0l.16-.08a491.74,491.74,0,0,0,66.23-40.83,10.67,10.67,0,0,0-12.59-17.22Z" fill="#061f75" fill-rule="evenodd"/><path d="M32,128V100.53a5.33,5.33,0,0,1,5.13-5.32h.15c53.93-2.75,112.45-20.15,173-63.07a5.29,5.29,0,0,1,6.11,0h0c60.1,42.1,119.28,60.16,172.93,63.1h.17a5.27,5.27,0,0,1,5.07,5.27v0c.06,42.05.06,155.14.06,155.14A162.06,162.06,0,0,1,393.39,276a10.67,10.67,0,0,0,21.17,2.67,185.12,185.12,0,0,0,1.44-23s0-113.1-.05-155.17a26.61,26.61,0,0,0-25.43-26.57C340.28,71.16,285,54.06,228.67,14.65a26.61,26.61,0,0,0-30.69.07C141.31,54.87,86.65,71.32,36.19,73.9a26.66,26.66,0,0,0-25.52,26.62V128A10.67,10.67,0,1,0,32,128Z" fill="#061f75" fill-rule="evenodd"/></g></svg>