<?xml version="1.0" encoding="utf-8"?>
<!-- Generator: Adobe Illustrator 25.0.0, SVG Export Plug-In . SVG Version: 6.00 Build 0)  -->
<svg version="1.1" id="svg3564" xmlns:svg="http://www.w3.org/2000/svg"
	 xmlns="http://www.w3.org/2000/svg" xmlns:xlink="http://www.w3.org/1999/xlink" x="0px" y="0px" viewBox="0 0 682.7 682.7"
	 style="enable-background:new 0 0 682.7 682.7;" xml:space="preserve">
<style type="text/css">
	.st0{fill:none;stroke:#061F75;stroke-width:20;stroke-linecap:round;stroke-linejoin:round;stroke-miterlimit:13.3333;}
</style>
<g id="g3574">
	<g id="g3580" transform="translate(111.4141,386.626)">
		<path id="path3582" class="st0" d="M37.1-219.5v-117.2c0-22.1,17.9-40,40-40h305.6c22.1,0,40,17.9,40,40V246c0,22.1-17.9,40-40,40
			H77.1c-22.1,0-40-17.9-40-40v-418.8"/>
	</g>
	<g id="g3584" transform="translate(309.4653,461.21)">
		<path id="path3586" class="st0" d="M103.2-393.5H-39.4c-5.2,0-9.3-4.2-9.3-9.3v-48.4h161.2v48.4
			C112.5-397.7,108.3-393.5,103.2-393.5z"/>
	</g>
	<g id="g3588" transform="translate(179.5264,355.9316)">
		<path id="path3590" class="st0" d="M59.8-147.8l97.8-78.9c2.4-2,5.9-2,8.4,0l97.8,78.9c4.9,3.9,2.1,11.9-4.2,11.9H64
			C57.7-136,54.9-143.9,59.8-147.8z"/>
	</g>
	<g id="g3592" transform="translate(295.3833,232.5449)">
		<path id="path3594" class="st0" d="M98.5,140.1h46.6c2.9,0,5.3-2.4,5.3-5.3v-29.3c0-2.9-2.4-5.3-5.3-5.3H-53.2
			c-2.9,0-5.3,2.4-5.3,5.3v29.3c0,2.9,2.4,5.3,5.3,5.3h105"/>
	</g>
	<path id="path3596" class="st0" d="M303.7,219.9h-40v112.7h40V219.9z"/>
	<path id="path3598" class="st0" d="M378.9,219.9h40v112.7h-40V219.9z"/>
	<g id="g3600" transform="translate(278,185.9785)">
		<path id="path3602" class="st0" d="M92.7,248.7h94.1c5.2,0,9.3,4.2,9.3,9.3v44.2c0,5.2-4.2,9.3-9.3,9.3H92.7
			c-5.2,0-9.3-4.2-9.3-9.3v-44.2C83.3,252.9,87.5,248.7,92.7,248.7z"/>
	</g>
	<g id="g3604" transform="translate(234,138.8232)">
		<path id="path3606" class="st0" d="M78,358.7h-94.1c-5.2,0-9.3-4.2-9.3-9.3v-44.2c0-5.2,4.2-9.3,9.3-9.3H78c5.2,0,9.3,4.2,9.3,9.3
			v44.2C87.3,354.6,83.2,358.7,78,358.7z"/>
	</g>
	<g id="g3608" transform="translate(156.4141,93.8232)">
		<path id="path3610" class="st0" d="M52.1,463.7h265.6"/>
	</g>
	<g id="g3612" transform="translate(156.4141,63.8232)">
		<path id="path3614" class="st0" d="M52.1,533.7h205.6"/>
	</g>
</g>
</svg>
