<?xml version="1.0" encoding="utf-8"?>
<!-- Generator: Adobe Illustrator 25.0.0, SVG Export Plug-In . SVG Version: 6.00 Build 0)  -->
<svg version="1.1" id="Capa_1" xmlns="http://www.w3.org/2000/svg" xmlns:xlink="http://www.w3.org/1999/xlink" x="0px" y="0px"
	 viewBox="0 0 512 512" style="enable-background:new 0 0 512 512;" xml:space="preserve">
<style type="text/css">
	.st0{fill:none;stroke:#061F75;stroke-width:15;stroke-linecap:round;stroke-linejoin:round;stroke-miterlimit:10;}
</style>
<g>
	<path class="st0" d="M457,340.3v72.2c0,17.7-14.4,32.1-32.1,32.1H39.6c-17.7,0-32.1-14.4-32.1-32.1V187.8
		c0-17.7,14.4-32.1,32.1-32.1h385.3c17.7,0,32.1,14.4,32.1,32.1v120.4"/>
	<path class="st0" d="M39,123.6c5.1-6.1,12.5-10.4,21-11.4l382.7-44.6c17.6-2.1,33.6,10.6,35.6,28.2l26,223.2
		c2.1,17.6-10.6,33.6-28.2,35.6l-19.1,2.2"/>
	<line class="st0" x1="55.7" y1="348.3" x2="119.9" y2="348.3"/>
	<line class="st0" x1="55.7" y1="388.4" x2="216.2" y2="388.4"/>
	<line class="st0" x1="152" y1="348.3" x2="216.2" y2="348.3"/>
	<line class="st0" x1="248.3" y1="348.3" x2="312.5" y2="348.3"/>
	<line class="st0" x1="344.6" y1="348.3" x2="408.8" y2="348.3"/>
	<path class="st0" d="M119.9,308.2H71.7c-8.9,0-16.1-7.2-16.1-16.1V260c0-8.9,7.2-16.1,16.1-16.1h48.2c8.9,0,16.1,7.2,16.1,16.1
		v32.1C135.9,301,128.7,308.2,119.9,308.2z"/>
	<line class="st0" x1="87.8" y1="276.1" x2="103.8" y2="276.1"/>
	<path class="st0" d="M384.3,284.1c5.4-10.9,8.5-23.1,8.5-36.1s-3.1-25.2-8.5-36.1"/>
	<path class="st0" d="M355.5,269.6c3.3-6.5,5.2-13.8,5.2-21.6s-2-15.1-5.2-21.6"/>
	<path class="st0" d="M326.8,255.2c1.1-2.2,1.8-4.6,1.8-7.2c0-2.6-0.7-5-1.8-7.2"/>
</g>
</svg>
