<svg id="svg1173" xmlns="http://www.w3.org/2000/svg" viewBox="0 0 682.67 682.67"><g id="g1183"><g id="g1189"><path id="path1191" d="M495.59,382.08c0-37.53,53.18-37.53,53.18,0v84.08" fill="none" stroke="#061f75" stroke-linecap="round" stroke-linejoin="round" stroke-width="20"/></g><g id="g1193"><path id="path1195" d="M548.77,404.75c0-37.57,53.15-37.54,53.15,0v60.72" fill="none" stroke="#061f75" stroke-linecap="round" stroke-linejoin="round" stroke-width="20"/></g><g id="g1197"><path id="path1199" d="M389.22,267c0-37.54,53.18-37.54,53.18,0V439.44" fill="none" stroke="#061f75" stroke-linecap="round" stroke-linejoin="round" stroke-width="20"/></g><g id="g1201"><path id="path1203" d="M442.4,359.42c0-37.53,53.19-37.53,53.19,0V452.8" fill="none" stroke="#061f75" stroke-linecap="round" stroke-linejoin="round" stroke-width="20"/></g><g id="g1205"><path id="path1207" d="M389.22,267V452.76" fill="none" stroke="#061f75" stroke-linecap="round" stroke-linejoin="round" stroke-width="20"/></g><g id="g1209"><path id="path1211" d="M389.22,438.61v19.45c0,20.2-4.27,35.45-17.92,18.46-21.05-30.65-36.51-47.33-66.07-42.19-17.35,3.07-24,19.19-12.1,34.47l84.22,123.65c18,26.53,20.52,43.4,20.52,67a13.23,13.23,0,0,0,13.2,13.17H568.61a13.23,13.23,0,0,0,13.2-13.17V618.71c0-34.2,15.61-31,20.11-72.8V511.67" fill="none" stroke="#061f75" stroke-linecap="round" stroke-linejoin="round" stroke-width="20"/></g><g id="g1213"><path id="path1215" d="M558.56,121.73,481.37,199" fill="none" stroke="#061f75" stroke-linecap="round" stroke-linejoin="round" stroke-width="20"/></g><g id="g1217"><path id="path1219" d="M581.58,264.64H508.51" fill="none" stroke="#061f75" stroke-linecap="round" stroke-linejoin="round" stroke-width="20"/></g><g id="g1221"><path id="path1223" d="M309.69,158.39,350.25,199" fill="none" stroke="#061f75" stroke-linecap="round" stroke-linejoin="round" stroke-width="20"/></g><g id="g1225"><path id="path1227" d="M142.57,158.85H63.76a23.77,23.77,0,0,1-23.7-23.72V33.72A23.77,23.77,0,0,1,63.76,10h227a23.77,23.77,0,0,1,23.7,23.72V135.13a23.8,23.8,0,0,1-23.7,23.72H188.76" fill="none" stroke="#061f75" stroke-linecap="round" stroke-linejoin="round" stroke-width="20"/></g><g id="g1229"><path id="path1231" d="M162.53,59.91H266.94m-186.36,0H111" fill="none" stroke="#061f75" stroke-linecap="round" stroke-linejoin="round" stroke-width="20"/></g><g id="g1233"><path id="path1235" d="M200.07,361.58l126.17-72.95" fill="none" stroke="#061f75" stroke-linecap="round" stroke-linejoin="round" stroke-width="20"/></g><g id="g1237"><path id="path1239" d="M389.22,353.52A92.72,92.72,0,1,1,478.54,333" fill="none" stroke="#061f75" stroke-linecap="round" stroke-linejoin="round" stroke-width="20"/></g><g id="g1241"><path id="path1243" d="M185,107.85H80.58m186.36,0H236.51" fill="none" stroke="#061f75" stroke-linecap="round" stroke-linejoin="round" stroke-width="20"/></g><g id="g1245"><path id="path1247" d="M570.43,42.16a57.17,57.17,0,1,1,0,80.9A57.13,57.13,0,0,1,570.43,42.16Z" fill="none" stroke="#061f75" stroke-linecap="round" stroke-linejoin="round" stroke-width="20"/></g><g id="g1249"><path id="path1251" d="M619,227.14a37.48,37.48,0,1,1-37.46,37.5A37.46,37.46,0,0,1,619,227.14Z" fill="none" stroke="#061f75" stroke-linecap="round" stroke-linejoin="round" stroke-width="20"/></g><g id="g1253"><path id="path1255" d="M161.21,506.68A97.76,97.76,0,1,1,197,373.12,97.58,97.58,0,0,1,161.21,506.68Z" fill="none" stroke="#061f75" stroke-linecap="round" stroke-linejoin="round" stroke-width="20"/></g><g id="g1257"><path id="path1259" d="M132.71,457.23a40.67,40.67,0,1,1,14.85-55.55A40.64,40.64,0,0,1,132.71,457.23Z" fill="none" stroke="#061f75" stroke-linecap="round" stroke-linejoin="round" stroke-width="20"/></g></g></svg>