<?xml version="1.0" encoding="utf-8"?>
<!-- Generator: Adobe Illustrator 25.0.0, SVG Export Plug-In . SVG Version: 6.00 Build 0)  -->
<svg version="1.1" id="Capa_1" xmlns="http://www.w3.org/2000/svg" xmlns:xlink="http://www.w3.org/1999/xlink" x="0px" y="0px"
	 viewBox="0 0 512 512" style="enable-background:new 0 0 512 512;" xml:space="preserve">
<style type="text/css">
	.st0{fill:none;stroke:#061F75;stroke-width:15;stroke-linecap:round;stroke-linejoin:round;stroke-miterlimit:10;}
	.st1{fill:none;stroke:#061F75;stroke-width:14.9994;stroke-linecap:round;stroke-linejoin:round;stroke-miterlimit:9.9996;}
</style>
<g>
	<path class="st0" d="M273.8,386.4c0,9.8-8,17.8-17.8,17.8s-17.8-8-17.8-17.8c0-9.8,8-17.8,17.8-17.8S273.8,376.6,273.8,386.4z"/>
	<path class="st0" d="M330.6,333.9c18,1.4,32.2,16.5,32.2,34.9v29c0,59-47.8,106.8-106.8,106.8l0,0c-59,0-106.8-47.8-106.8-106.8
		v-29c0-18.1,13.8-33,31.4-34.8"/>
	<path class="st0" d="M379.9,333.7H132.1c-13.8,0-25-11.2-25-25V154.7c0-13.8,11.2-25,25-25h247.8c13.8,0,25,11.2,25,25v154.1
		C404.9,322.5,393.7,333.7,379.9,333.7z"/>
	<line class="st0" x1="76.5" y1="127.7" x2="76.5" y2="188.7"/>
	<line class="st0" x1="196.6" y1="220.3" x2="196.6" y2="243.1"/>
	<line class="st0" x1="315.4" y1="220.3" x2="315.4" y2="243.1"/>
	<line class="st0" x1="296.6" y1="39.5" x2="425.6" y2="39.5"/>
	<line class="st0" x1="296.6" y1="72.4" x2="425.6" y2="72.4"/>
	<ellipse class="st1" cx="76.5" cy="104.3" rx="20.1" ry="20.1"/>
	<path class="st0" d="M105.1,191.5H60.8c-8.3,0-15,6.7-15,15v50.4c0,8.3,6.7,15,15,15h44.2"/>
	<path class="st0" d="M406.9,271.9h44.2c8.3,0,15-6.7,15-15v-50.4c0-8.3-6.7-15-15-15h-44.2"/>
	<line class="st0" x1="211.6" y1="367.6" x2="211.6" y2="335.7"/>
	<path class="st0" d="M300.4,335.7V414c0,13.8-11.2,25-25,25h-38.8c-13.8,0-25-11.2-25-25v-13.8"/>
	<path class="st0" d="M251.8,171h53.4c33.5,0,60.7,27.2,60.7,60.7l0,0c0,33.5-27.2,60.7-60.7,60.7h-98.4
		c-33.5,0-60.7-27.2-60.7-60.7l0,0c0-33.5,27.2-60.7,60.7-60.7h12.3"/>
	<path class="st0" d="M358.8,7.5H266c-5.5,0-10,4.5-10,10v76.8c0,5.5,4.5,10,10,10h134.4c2.9,0,5.7,1.3,7.6,3.5l25.1,29.2
		c1.2,1.4,3.5,0.6,3.5-1.3v-26.4c0-2.8,2.2-5,5-5h14.6c5.5,0,10-4.5,10-10V17.5c0-5.5-4.5-10-10-10h-64.7"/>
</g>
</svg>
