<?xml version="1.0" encoding="utf-8"?>
<!-- Generator: Adobe Illustrator 25.0.0, SVG Export Plug-In . SVG Version: 6.00 Build 0)  -->
<svg version="1.1" id="icons" xmlns="http://www.w3.org/2000/svg" xmlns:xlink="http://www.w3.org/1999/xlink" x="0px" y="0px"
	 viewBox="0 0 512 512" style="enable-background:new 0 0 512 512;" xml:space="preserve">
<style type="text/css">
	.st0{fill:#061F75;}
</style>
<path class="st0" d="M256,443.7c103.7,0,187.7-84.1,187.7-187.7S359.7,68.3,256,68.3S68.3,152.3,68.3,256
	C68.4,359.6,152.4,443.6,256,443.7z M256,85.3c94.3,0,170.7,76.4,170.7,170.7S350.3,426.7,256,426.7S85.3,350.3,85.3,256
	C85.4,161.8,161.8,85.4,256,85.3z"/>
<path class="st0" d="M15.4,297l24.6,9.8c5.5,23.3,14.7,45.5,27.3,65.8l-10.4,24.4c-3.5,7.9-2.2,17,3.3,23.6
	c4.1,4.9,8.7,10.1,14.9,16.3c6.1,6,11.3,10.7,16.1,14.6c6.6,5.6,15.8,6.9,23.8,3.4l24.4-10.4c20.3,12.6,42.5,21.8,65.8,27.3
	l9.9,24.6c3.2,7.9,10.5,13.5,19,14.4c6.6,0.7,13.8,1,22.1,1c8.2,0,15.5-0.3,22-1c8.5-0.9,15.9-6.4,19.1-14.4l9.8-24.6
	c23.3-5.5,45.5-14.7,65.8-27.3l24.4,10.4c7.9,3.5,17,2.2,23.6-3.3c4.9-4.1,10.1-8.7,16.3-14.9c6-6.1,10.7-11.3,14.6-16.1
	c5.6-6.6,6.9-15.8,3.4-23.8l-10.4-24.4c12.6-20.3,21.8-42.5,27.3-65.8l24.6-9.9c7.9-3.2,13.5-10.5,14.4-19c0.7-6.6,1-13.8,1-22.1
	c0-7.4-0.3-14.7-1-22c-0.9-8.5-6.4-15.8-14.4-19l-24.6-9.8c-5.5-23.3-14.7-45.5-27.3-65.8l10.4-24.4c3.5-7.9,2.2-17-3.3-23.6
	c-4.1-4.9-8.7-10.1-14.9-16.3c-6.1-6-11.3-10.7-16.1-14.6c-6.6-5.6-15.8-6.9-23.8-3.4l-24.5,10.5c-20.3-12.6-42.5-21.8-65.8-27.3
	L297,15.4c-3.2-7.9-10.5-13.5-19-14.4c-6.6-0.7-13.8-1-22.1-1c-8.2,0-15.5,0.3-22,1c-8.5,0.9-15.9,6.4-19.1,14.4L205.1,40
	c-23.3,5.5-45.5,14.7-65.8,27.3l-24.4-10.4c-7.9-3.5-17-2.2-23.6,3.3c-4.9,4.1-10.1,8.7-16.3,14.9c-6,6.1-10.7,11.3-14.6,16.1
	c-5.6,6.6-6.9,15.8-3.4,23.8l10.4,24.4c-12.6,20.3-21.8,42.5-27.3,65.8L15.4,215c-7.9,3.2-13.5,10.5-14.4,19c-0.7,6.6-1,13.8-1,22.1
	c0,8.2,0.3,15.5,1,22C1.9,286.5,7.4,293.8,15.4,297z M17.9,235.6c0.3-2.1,1.7-4,3.7-4.7l28.9-11.5c2.6-1.1,4.6-3.4,5.2-6.1
	c5.2-24.4,14.8-47.5,28.4-68.4c1.6-2.4,1.8-5.4,0.7-8l-12.2-28.6c-1-2-0.7-4.4,0.7-6.1c3.8-4.5,8.1-9.4,13.7-15
	c5.8-5.6,10.6-10,15.3-13.9c1.7-1.3,4-1.6,6-0.6l28.6,12.2c2.6,1.1,5.6,0.9,8-0.7c20.9-13.6,44-23.2,68.4-28.4
	c2.8-0.6,5.1-2.5,6.1-5.2l11.5-28.8c0.8-2.1,2.7-3.5,4.8-3.8c6-0.6,12.7-0.9,20.4-0.9c6.8,0,13.7,0.3,20.5,0.9
	c2.1,0.3,4,1.7,4.7,3.7l11.5,28.8c1.1,2.6,3.4,4.6,6.1,5.2c24.4,5.2,47.5,14.8,68.4,28.4c2.4,1.6,5.4,1.8,8,0.7l28.6-12.2
	c2-1,4.4-0.7,6.1,0.7c4.5,3.8,9.4,8.1,15,13.7c5.6,5.8,10,10.6,13.9,15.3c1.3,1.7,1.6,4,0.6,6l-12.2,28.6c-1.1,2.6-0.9,5.6,0.7,8
	c13.6,20.9,23.2,44.1,28.4,68.4c0.6,2.8,2.5,5.1,5.2,6.1l28.8,11.5c2,0.8,3.5,2.6,3.8,4.8v0.1c0.6,6,0.9,12.7,0.9,20.4
	c0,6.8-0.3,13.7-0.9,20.5c-0.3,2.1-1.7,4-3.7,4.7l-28.8,11.4c-2.6,1.1-4.6,3.4-5.2,6.1c-5.2,24.4-14.8,47.5-28.4,68.4
	c-1.6,2.4-1.8,5.4-0.7,8l12.2,28.6c1,2,0.7,4.4-0.7,6.1c-3.8,4.5-8.1,9.4-13.7,15c-5.8,5.6-10.6,10-15.3,13.9c-1.7,1.3-4,1.6-6,0.6
	l-28.6-12.2c-2.6-1.1-5.6-0.9-8,0.7c-20.9,13.6-44.1,23.2-68.4,28.4c-2.8,0.6-5.1,2.5-6.1,5.2l-11.5,28.8c-0.8,2.1-2.7,3.5-4.8,3.8
	c-6,0.6-12.7,0.9-20.4,0.9c-6.8,0-13.7-0.3-20.5-0.9c-2.1-0.3-4-1.7-4.7-3.7l-11.5-28.8c-1.1-2.6-3.4-4.6-6.1-5.2
	c-24.4-5.2-47.5-14.8-68.4-28.4c-1.4-0.9-3-1.4-4.6-1.4c-1.2,0-2.3,0.2-3.4,0.7l-28.6,12.2c-2,1-4.4,0.7-6.1-0.7
	c-4.5-3.8-9.4-8.1-15-13.7c-5.6-5.8-10-10.6-13.9-15.3c-1.3-1.7-1.6-4-0.6-6l12.2-28.6c1.1-2.6,0.9-5.6-0.7-8
	c-13.6-20.9-23.2-44-28.4-68.4c-0.6-2.8-2.5-5.1-5.2-6.1l-28.8-11.5c-2.1-0.8-3.5-2.7-3.8-4.8c-0.6-6-0.9-12.7-0.9-20.4
	C17,249.2,17.3,242.3,17.9,235.6L17.9,235.6z"/>
<path class="st0" d="M256,392.5c74-0.1,134.5-59.2,136.4-133.2l2.7,2.7c3.4,3.3,8.8,3.2,12.1-0.2c3.2-3.3,3.2-8.5,0-11.9L390,232.9
	c-3.3-3.3-8.7-3.3-12.1,0L360.9,250c-3.3,3.4-3.2,8.8,0.2,12.1c3.3,3.2,8.5,3.2,11.9,0l2.3-2.3c-2,65.9-57,117.7-123,115.7
	c-52.3-1.6-97.5-37.1-111.5-87.6c-1.3-4.5-6-7.2-10.5-5.9s-7.2,6-5.9,10.5C140.9,351.5,194.7,392.4,256,392.5z"/>
<path class="st0" d="M134,262l17.1-17.1c3.3-3.4,3.2-8.8-0.2-12.1c-3.3-3.2-8.5-3.2-11.9,0l-0.2,0.2c12.6-64.7,75.3-107,140-94.3
	c38.5,7.5,70.9,33.5,86.6,69.5c1.8,4.4,6.7,6.5,11.1,4.7c4.4-1.8,6.5-6.7,4.7-11.1c-0.1-0.2-0.1-0.3-0.2-0.5
	c-30.1-69.1-110.5-100.7-179.6-70.5c-43.4,18.9-73.9,59.1-80.6,106l-4-4c-3.4-3.3-8.8-3.2-12.1,0.2c-3.2,3.3-3.2,8.5,0,11.9L122,262
	C125.3,265.4,130.7,265.4,134,262L134,262z"/>
<path class="st0" d="M256,213.3c9.4,0,17.1,7.6,17.1,17.1c0,4.7,3.8,8.5,8.5,8.5s8.5-3.8,8.5-8.5c-0.1-15.5-10.6-29-25.6-32.9v-9.7
	c0-4.7-3.8-8.5-8.5-8.5c-4.7,0-8.5,3.8-8.5,8.5v9.7c-18.2,4.7-29.2,23.3-24.5,41.5c3.9,15.1,17.5,25.6,33,25.6
	c9.4,0,17.1,7.6,17.1,17.1s-7.6,17.1-17.1,17.1c-9.4,0-17.1-7.6-17.1-17.1c0-4.7-3.8-8.5-8.5-8.5s-8.5,3.8-8.5,8.5
	c0.1,15.5,10.6,29,25.6,32.9v9.7c0,4.7,3.8,8.5,8.5,8.5c4.7,0,8.5-3.8,8.5-8.5v-9.7c18.2-4.7,29.2-23.3,24.5-41.5
	c-3.9-15.1-17.5-25.6-33-25.6c-9.4,0-17.1-7.6-17.1-17.1C238.9,221,246.6,213.3,256,213.3z"/>
</svg>
