<svg id="Layer_1" enable-background="new 0 0 550 550" height="512" viewBox="0 0 550 550" width="512" xmlns="http://www.w3.org/2000/svg"><g><g id="_1351_-_Cyber_Security"><path d="m311.33 367.32h-72.66c-19.88 0-36-16.12-36-36v-72c0-3.31 2.69-6 6-6h132.66c3.31 0 6 2.69 6 6v72c0 19.88-16.12 36-36 36zm-96.66-102v66c0 13.25 10.75 24 24 24h72.66c13.25 0 24-10.75 24-24v-66z"/><path d="m320.92 265.28c-3.31 0-6-2.69-6-6v-25.51c0-22.05-17.87-39.92-39.92-39.92s-39.92 17.87-39.92 39.92v25.51c0 3.31-2.69 6-6 6s-6-2.69-6-6v-25.51c0-28.67 23.25-51.92 51.93-51.91 28.67 0 51.91 23.24 51.91 51.91v25.51c0 3.31-2.69 6-6 6z"/><path d="m290.31 316.3h-30.62c-3.31 0-6-2.69-6-6s2.69-6 6-6h30.62c3.31 0 6 2.69 6 6s-2.69 6-6 6z"/><path d="m275 428.59c-84.89 0-154-69.07-154-154s69.07-154 154-154 154 69.07 154 154-69.11 154-154 154zm0-296c-78.28 0-142 63.68-142 142s63.68 142 142 142 142-63.68 142-142-63.72-142-142-142z"/><path d="m275 132.59c-3.31 0-6-2.69-6-6v-61.18c0-3.31 2.69-6 6-6s6 2.69 6 6v61.18c0 3.31-2.69 6-6 6z"/><path d="m275 71.41c-14.59 0-26.41-11.82-26.41-26.41s11.82-26.41 26.41-26.41 26.41 11.82 26.41 26.41c-.02 14.58-11.83 26.39-26.41 26.41zm0-40.82c-7.96 0-14.41 6.45-14.41 14.41s6.45 14.41 14.41 14.41 14.41-6.45 14.41-14.41c-.01-7.95-6.46-14.4-14.41-14.41z"/><path d="m218.88 143.65c-3.31 0-6-2.69-6-6v-56.06h-45c-3.31 0-6-2.69-6-6s2.69-6 6-6h51c3.31 0 6 2.69 6 6v62c.03 3.31-2.63 6.03-5.94 6.06-.02 0-.04 0-.06 0z"/><path d="m147.45 102.02c-14.59 0-26.41-11.82-26.41-26.41s11.82-26.41 26.41-26.41c14.58 0 26.4 11.81 26.41 26.39-.01 14.59-11.82 26.41-26.41 26.43zm0-40.82c-7.96 0-14.41 6.45-14.41 14.41s6.45 14.41 14.41 14.41 14.41-6.45 14.41-14.41c0-.01 0-.01 0-.02-.02-7.95-6.46-14.38-14.41-14.39z"/><path d="m331.12 143.65c-3.31 0-6-2.69-6-6v-62.06c0-3.31 2.69-6 6-6h51c3.31 0 6 2.69 6 6s-2.69 6-6 6h-45v56c.03 3.31-2.63 6.03-5.94 6.06-.02 0-.04 0-.06 0z"/><path d="m402.55 102.02c-14.59-.02-26.39-11.86-26.37-26.45s11.86-26.39 26.45-26.37c14.56.02 26.36 11.83 26.37 26.39-.01 14.6-11.85 26.44-26.45 26.43zm0-40.82c-7.96.02-14.39 6.49-14.37 14.45s6.49 14.39 14.45 14.37c7.95-.02 14.38-6.48 14.37-14.43-.02-7.96-6.49-14.4-14.45-14.39z"/><path d="m275 490.59c-3.31 0-6-2.69-6-6v-61.22c0-3.31 2.69-6 6-6s6 2.69 6 6v61.22c0 3.31-2.69 6-6 6z"/><path d="m275 531.41c-14.59 0-26.41-11.82-26.41-26.41s11.82-26.41 26.41-26.41 26.41 11.82 26.41 26.41c-.02 14.58-11.83 26.39-26.41 26.41zm0-40.82c-7.96 0-14.41 6.45-14.41 14.41s6.45 14.41 14.41 14.41 14.41-6.45 14.41-14.41c-.01-7.95-6.46-14.4-14.41-14.41z"/><path d="m218.88 480.39h-51c-3.31 0-6-2.69-6-6s2.69-6 6-6h45v-56.05c0-3.31 2.69-6 6-6s6 2.69 6 6v62.05c0 3.31-2.69 6-6 6z"/><path d="m147.45 500.79c-14.59 0-26.41-11.82-26.41-26.41s11.82-26.41 26.41-26.41 26.41 11.82 26.41 26.41v.01c-.02 14.58-11.83 26.39-26.41 26.4zm0-40.81c-7.96 0-14.41 6.45-14.41 14.41s6.45 14.41 14.41 14.41 14.41-6.45 14.41-14.41c-.01-7.96-6.45-14.4-14.41-14.41z"/><path d="m382.14 480.39h-51c-3.31 0-6-2.69-6-6v-62.05c0-3.31 2.69-6 6-6s6 2.69 6 6v56.05h45c3.31 0 6 2.69 6 6s-2.69 6-6 6z"/><path d="m402.55 500.79c-14.59-.02-26.39-11.86-26.37-26.45s11.86-26.39 26.45-26.37c14.57.02 26.38 11.85 26.37 26.42-.02 14.59-11.86 26.41-26.45 26.4zm0-40.81c-7.96.02-14.39 6.49-14.37 14.45s6.49 14.39 14.45 14.37c7.94-.02 14.37-6.47 14.37-14.41-.01-7.97-6.48-14.42-14.45-14.41z"/><path d="m484.18 281h-60.81c-3.31 0-6-2.69-6-6s2.69-6 6-6h60.81c3.31 0 6 2.69 6 6s-2.69 6-6 6z"/><path d="m504.59 301.41c-14.59 0-26.41-11.82-26.41-26.41s11.82-26.41 26.41-26.41 26.41 11.82 26.41 26.41c-.02 14.58-11.83 26.39-26.41 26.41zm0-40.82c-7.96 0-14.41 6.45-14.41 14.41s6.45 14.41 14.41 14.41 14.41-6.45 14.41-14.41c-.01-7.95-6.46-14.4-14.41-14.41z"/><path d="m474.39 388.14c-3.31 0-6-2.69-6-6v-45h-56c-3.31 0-6-2.69-6-6s2.69-6 6-6h62c3.31 0 6 2.69 6 6v51c0 3.31-2.69 6-6 6z"/><path d="m474.39 428.96c-14.59 0-26.41-11.82-26.41-26.41s11.82-26.41 26.41-26.41 26.41 11.82 26.41 26.41v.04c-.04 14.56-11.85 26.35-26.41 26.37zm0-40.82c-7.96 0-14.41 6.45-14.41 14.41s6.45 14.41 14.41 14.41c7.94 0 14.39-6.43 14.41-14.37.02-7.96-6.43-14.43-14.39-14.45-.01 0-.01 0-.02 0z"/><path d="m474.39 224.88h-62c-3.31 0-6-2.69-6-6s2.69-6 6-6h56v-45c0-3.31 2.69-6 6-6s6 2.69 6 6v51c0 3.31-2.69 6-6 6z"/><path d="m474.39 173.86c-14.59 0-26.41-11.82-26.41-26.41s11.82-26.41 26.41-26.41 26.41 11.82 26.41 26.41c-.02 14.58-11.83 26.39-26.41 26.41zm0-40.82c-7.96 0-14.41 6.45-14.41 14.41s6.45 14.41 14.41 14.41 14.41-6.45 14.41-14.41c-.01-7.96-6.45-14.4-14.41-14.41z"/><path d="m126.63 281h-60.81c-3.31 0-6-2.69-6-6s2.69-6 6-6h60.81c3.31 0 6 2.69 6 6s-2.69 6-6 6z"/><path d="m45.41 301.41c-14.59 0-26.41-11.82-26.41-26.41s11.82-26.41 26.41-26.41 26.41 11.82 26.41 26.41c-.02 14.58-11.83 26.39-26.41 26.41zm0-40.82c-7.96 0-14.41 6.45-14.41 14.41s6.45 14.41 14.41 14.41 14.41-6.45 14.41-14.41c-.01-7.96-6.45-14.4-14.41-14.41z"/><path d="m75.61 388.14c-3.31 0-6-2.69-6-6v-51c0-3.31 2.69-6 6-6h62c3.31 0 6 2.69 6 6s-2.69 6-6 6h-56v45c0 3.31-2.69 6-6 6z"/><path d="m75.61 428.96c-14.59.01-26.42-11.8-26.43-26.39s11.8-26.42 26.39-26.43 26.42 11.8 26.43 26.39v.06c-.04 14.56-11.83 26.34-26.39 26.37zm0-40.82c-7.96-.01-14.42 6.43-14.43 14.39s6.43 14.42 14.39 14.43c7.95.01 14.41-6.42 14.43-14.37.01-7.96-6.43-14.43-14.39-14.45z"/><path d="m137.65 224.88h-62c-3.31 0-6-2.69-6-6v-51c0-3.31 2.69-6 6-6s6 2.69 6 6v45h56c3.31 0 6 2.69 6 6s-2.69 6-6 6z"/><path d="m75.61 173.86c-14.59.01-26.42-11.8-26.43-26.39s11.8-26.42 26.39-26.43 26.42 11.8 26.43 26.39v.02c-.02 14.57-11.82 26.38-26.39 26.41zm0-40.82c-7.96-.01-14.42 6.43-14.43 14.39s6.43 14.42 14.39 14.43 14.42-6.43 14.43-14.39c0-.01 0-.01 0-.02-.01-7.95-6.44-14.39-14.39-14.41z"/></g></g></svg>