<svg id="Capa_1" data-name="Capa 1" xmlns="http://www.w3.org/2000/svg" viewBox="0 0 512 512"><path d="M433.13,38.13h55.06A16.31,16.31,0,0,1,504.5,54.44V457.56a16.31,16.31,0,0,1-16.31,16.31h-305M7.5,174.14V54.44A16.31,16.31,0,0,1,23.81,38.13H398.13M7.5,209.14V457.56a16.31,16.31,0,0,0,16.31,16.31H148.18" fill="none" stroke="#061f75" stroke-linecap="round" stroke-linejoin="round" stroke-width="15"/><line x1="501.79" y1="101.78" x2="10.21" y2="101.78" fill="none" stroke="#061f75" stroke-linecap="round" stroke-linejoin="round" stroke-width="15"/><line x1="110.31" y1="69.95" x2="110.31" y2="69.95" fill="none" stroke="#061f75" stroke-linecap="round" stroke-linejoin="round" stroke-width="15"/><line x1="76.19" y1="69.95" x2="76.19" y2="69.95" fill="none" stroke="#061f75" stroke-linecap="round" stroke-linejoin="round" stroke-width="15"/><line x1="42.07" y1="69.95" x2="42.07" y2="69.95" fill="none" stroke="#061f75" stroke-linecap="round" stroke-linejoin="round" stroke-width="15"/><path d="M162.84,236.91a32.28,32.28,0,1,1-32.28-32.27V166.89a70,70,0,1,0,70,70Z" fill="none" stroke="#061f75" stroke-linecap="round" stroke-linejoin="round" stroke-width="15"/><path d="M192.84,206.91h37.74a70,70,0,0,0-70-70v37.75A32.27,32.27,0,0,1,192.84,206.91Z" fill="none" stroke="#061f75" stroke-linecap="round" stroke-linejoin="round" stroke-width="15"/><line x1="97.29" y1="236.91" x2="64.07" y2="236.91" fill="none" stroke="#061f75" stroke-linecap="round" stroke-linejoin="round" stroke-width="15"/><line x1="130.56" y1="270.19" x2="130.56" y2="302.97" fill="none" stroke="#061f75" stroke-linecap="round" stroke-linejoin="round" stroke-width="15"/><path d="M277.85,270.19V191.62a5,5,0,0,1,5-5h42.08" fill="none" stroke="#061f75" stroke-linecap="round" stroke-linejoin="round" stroke-width="15"/><path d="M327.12,269V166.76a5,5,0,0,1,5-5H374" fill="none" stroke="#061f75" stroke-linecap="round" stroke-linejoin="round" stroke-width="15"/><path d="M425.65,272.48H376.38V141.89a5,5,0,0,1,5-5h38.05a6.21,6.21,0,0,1,6.22,6.22V272.48Z" fill="none" stroke="#061f75" stroke-linecap="round" stroke-linejoin="round" stroke-width="15"/><path d="M333.29,306.93H448.46a5,5,0,0,0,5-5V277.45a5,5,0,0,0-5-5H255a5,5,0,0,0-5,5v24.48a5,5,0,0,0,5,5h43.25" fill="none" stroke="#061f75" stroke-linecap="round" stroke-linejoin="round" stroke-width="15"/><circle cx="264" cy="420.8" r="13.95" fill="none" stroke="#061f75" stroke-linecap="round" stroke-linejoin="round" stroke-width="15"/><circle cx="322.5" cy="362.3" r="13.95" fill="none" stroke="#061f75" stroke-linecap="round" stroke-linejoin="round" stroke-width="15"/><circle cx="381" cy="420.8" r="13.95" fill="none" stroke="#061f75" stroke-linecap="round" stroke-linejoin="round" stroke-width="15"/><circle cx="439.51" cy="362.3" r="13.95" fill="none" stroke="#061f75" stroke-linecap="round" stroke-linejoin="round" stroke-width="15"/><line x1="310.8" y1="374" x2="275.7" y2="409.1" fill="none" stroke="#061f75" stroke-linecap="round" stroke-linejoin="round" stroke-width="15"/><line x1="334.2" y1="374" x2="369.3" y2="409.1" fill="none" stroke="#061f75" stroke-linecap="round" stroke-linejoin="round" stroke-width="15"/><line x1="427.8" y1="374" x2="392.7" y2="409.1" fill="none" stroke="#061f75" stroke-linecap="round" stroke-linejoin="round" stroke-width="15"/><line x1="60.54" y1="348.35" x2="80.68" y2="348.35" fill="none" stroke="#061f75" stroke-linecap="round" stroke-linejoin="round" stroke-width="15"/><line x1="60.54" y1="391.55" x2="80.68" y2="391.55" fill="none" stroke="#061f75" stroke-linecap="round" stroke-linejoin="round" stroke-width="15"/><line x1="60.54" y1="434.76" x2="80.68" y2="434.76" fill="none" stroke="#061f75" stroke-linecap="round" stroke-linejoin="round" stroke-width="15"/><line x1="115.68" y1="348.35" x2="257.28" y2="348.35" fill="none" stroke="#061f75" stroke-linecap="round" stroke-linejoin="round" stroke-width="15"/><line x1="115.68" y1="391.55" x2="185.69" y2="391.55" fill="none" stroke="#061f75" stroke-linecap="round" stroke-linejoin="round" stroke-width="15"/><line x1="115.68" y1="434.76" x2="215.69" y2="434.76" fill="none" stroke="#061f75" stroke-linecap="round" stroke-linejoin="round" stroke-width="15"/></svg>