<?xml version="1.0" encoding="utf-8"?>
<!-- Generator: Adobe Illustrator 25.0.0, SVG Export Plug-In . SVG Version: 6.00 Build 0)  -->
<svg version="1.1" id="Layer_1" xmlns="http://www.w3.org/2000/svg" xmlns:xlink="http://www.w3.org/1999/xlink" x="0px" y="0px"
	 viewBox="0 0 512 512" style="enable-background:new 0 0 512 512;" xml:space="preserve">
<style type="text/css">
	.st0{fill:#061F75;}
</style>
<path class="st0" d="M344,177.5c0-4.4-3.6-8-8-8h-10.1c-1.2-3.8-2.7-7.4-4.5-10.9l7.2-7.2c3.1-3.1,3.1-8.2,0-11.3c0,0,0,0,0,0
	l-20.6-20.6c-3.1-3.1-8.2-3.1-11.3,0c0,0,0,0,0,0l-7.2,7.2c-3.5-1.8-7.2-3.3-10.9-4.5V112c0-4.4-3.6-8-8-8h-29.1c-4.4,0-8,3.6-8,8
	v10.1c-3.8,1.2-7.4,2.7-10.9,4.5l-7.2-7.2c-3.1-3.1-8.2-3.1-11.3,0c0,0,0,0,0,0l-20.6,20.6c-3.1,3.1-3.1,8.2,0,11.3c0,0,0,0,0,0
	l7.2,7.2c-1.8,3.5-3.3,7.2-4.5,10.9H176c-4.4,0-8,3.6-8,8v29.1c0,4.4,3.6,8,8,8h10.1c1.2,3.8,2.7,7.4,4.5,10.9l-7.2,7.2
	c-3.1,3.1-3.1,8.2,0,11.3c0,0,0,0,0,0l20.6,20.6c3.1,3.1,8.2,3.1,11.3,0c0,0,0,0,0,0l7.2-7.2c3.5,1.8,7.2,3.3,10.9,4.5V272
	c0,4.4,3.6,8,8,8h29.1c4.4,0,8-3.6,8-8v-10.1c3.8-1.2,7.4-2.7,10.9-4.5l7.2,7.2c3.1,3.1,8.2,3.1,11.3,0c0,0,0,0,0,0l20.6-20.6
	c3.1-3.1,3.1-8.2,0-11.3c0,0,0,0,0,0l-7.2-7.2c1.8-3.5,3.3-7.2,4.5-10.9H336c4.4,0,8-3.6,8-8L344,177.5z M328,198.5h-2.8
	c-6.7,0.1-12.6,4.4-14.5,10.8c-1,3.1-2.2,6.1-3.7,9c-3.2,5.9-2.1,13.2,2.6,17.9l2,2l-9.3,9.3l-2-2c-4.8-4.7-12-5.7-17.9-2.6
	c-2.9,1.5-5.9,2.7-9,3.7c-6.4,1.9-10.8,7.8-10.8,14.5v2.8h-13.1v-2.8c-0.1-6.7-4.4-12.6-10.8-14.5c-3.1-1-6.1-2.2-9-3.7
	c-5.9-3.2-13.2-2.1-17.9,2.6l-2,2l-9.3-9.3l2-2c4.7-4.8,5.7-12,2.6-17.9c-1.5-2.9-2.7-5.9-3.7-9c-1.9-6.4-7.8-10.8-14.5-10.8H184
	v-13.1h2.8c6.7-0.1,12.6-4.4,14.5-10.8c1-3.1,2.2-6.1,3.7-9c3.2-5.9,2.1-13.2-2.6-17.9l-2-2l9.3-9.3l2,2c4.8,4.7,12,5.7,17.9,2.6
	c2.9-1.5,5.9-2.7,9-3.7c6.4-1.9,10.8-7.8,10.8-14.5V120h13.1v2.8c0.1,6.7,4.4,12.6,10.8,14.5c3.1,1,6.1,2.2,9,3.7
	c5.9,3.2,13.2,2.1,17.9-2.6l2-2l9.3,9.3l-2,2c-4.7,4.8-5.7,12-2.6,17.9c1.5,2.9,2.7,5.9,3.7,9c1.9,6.4,7.8,10.8,14.5,10.8h2.8V198.5
	z"/>
<path class="st0" d="M256,144c-26.5,0-48,21.5-48,48s21.5,48,48,48s48-21.5,48-48C304,165.5,282.5,144,256,144z M256,224
	c-17.7,0-32-14.3-32-32s14.3-32,32-32s32,14.3,32,32C288,209.7,273.7,224,256,224z"/>
<path class="st0" d="M24,504h464c4.4,0,8-3.6,8-8c0-1.1-0.2-2.2-0.6-3.2l-48-112c-1.3-2.9-4.2-4.8-7.4-4.8h-96v16h90.7l41.1,96H36.1
	l41.1-96H168v-16H72c-3.2,0-6.1,1.9-7.4,4.8l-48,112c-1.7,4.1,0.1,8.8,4.2,10.5C21.8,503.8,22.9,504,24,504L24,504z"/>
<path class="st0" d="M232,304h16v48h-16V304z"/>
<path class="st0" d="M232,368h16v16h-16V368z"/>
<path class="st0" d="M232,400h16v40h-16V400z"/>
<path class="st0" d="M264,304h16v56h-16V304z"/>
<path class="st0" d="M264,376h16v64h-16V376z"/>
<path class="st0" d="M296,320h16v72h-16V320z"/>
<path class="st0" d="M200,408h16v16h-16V408z"/>
<path class="st0" d="M200,312h16v80h-16V312z"/>
<path class="st0" d="M296,408h16v16h-16V408z"/>
<path class="st0" d="M384,32c-4.4,0-8,3.6-8,8v48c0,4.4,3.6,8,8,8h24v16h-16c-4.4,0-8,3.6-8,8v40c0,4.4,3.6,8,8,8h40
	c4.4,0,8-3.6,8-8v-16h40c4.4,0,8-3.6,8-8V72c0-4.4-3.6-8-8-8h-40V40c0-4.4-3.6-8-8-8H384z M392,80V48h32v16h-8c-4.4,0-8,3.6-8,8v8
	H392z M424,152h-24v-24h8v8c0,4.4,3.6,8,8,8h8V152z M472,80v48h-48V80H472z"/>
<path class="st0" d="M280,72c4.4,0,8-3.6,8-8V16c0-4.4-3.6-8-8-8h-48c-4.4,0-8,3.6-8,8v48c0,4.4,3.6,8,8,8H280z M240,24h32v32h-32
	V24z"/>
<path class="st0" d="M32,248h48c4.4,0,8-3.6,8-8v-24h40c4.4,0,8-3.6,8-8v-64c0-4.4-3.6-8-8-8H64c-4.4,0-8,3.6-8,8v40H32
	c-4.4,0-8,3.6-8,8v48C24,244.4,27.6,248,32,248z M72,152h48v48H72V152z M40,200h16v8c0,4.4,3.6,8,8,8h8v16H40V200z"/>
<path class="st0" d="M80,112h40c4.4,0,8-3.6,8-8V64c0-4.4-3.6-8-8-8H80c-4.4,0-8,3.6-8,8v40C72,108.4,75.6,112,80,112z M88,72h24v24
	H88V72z"/>
<path class="st0" d="M376,248c-4.4,0-8,3.6-8,8v32c0,4.4,3.6,8,8,8h32c4.4,0,8-3.6,8-8v-32c0-4.4-3.6-8-8-8H376z M400,280h-16v-16
	h16V280z"/>
<path class="st0" d="M93.5,416H152v-16H88c-3.3,0-6.3,2.1-7.5,5.2l-24,64c-1.6,4.1,0.5,8.7,4.7,10.3c0.9,0.3,1.8,0.5,2.8,0.5h384
	c4.4,0,8-3.6,8-8c0-1-0.2-1.9-0.5-2.8l-24-64c-1.2-3.1-4.2-5.2-7.5-5.2h-64v16h58.5l18,48H75.5L93.5,416z"/>
</svg>
