<svg id="svg2991" xmlns="http://www.w3.org/2000/svg" viewBox="0 0 682.67 682.67"><g id="g3001"><g id="g3007"><path id="path3009" d="M341.33,222.11S324.82,79.34,149.47,10.82V65.39" fill="none" stroke="#061f75" stroke-linecap="round" stroke-linejoin="round" stroke-width="20"/></g><g id="g3011"><path id="path3013" d="M341.33,222.11S357.84,79.34,533.2,10.82V65.39" fill="none" stroke="#061f75" stroke-linecap="round" stroke-linejoin="round" stroke-width="20"/></g><g id="g3015"><path id="path3017" d="M195.23,86.76c-60-31.63-111.8-43.49-111.8-43.49L47,80.29" fill="none" stroke="#061f75" stroke-linecap="round" stroke-linejoin="round" stroke-width="20"/></g><g id="g3019"><path id="path3021" d="M343.44,222.11c-23.87-42.65-58.13-76.09-94-101.92" fill="none" stroke="#061f75" stroke-linecap="round" stroke-linejoin="round" stroke-width="20"/></g><g id="g3023"><path id="path3025" d="M339.22,222.11c76.56-136.8,260-178.86,260-178.86l36.43,37" fill="none" stroke="#061f75" stroke-linecap="round" stroke-linejoin="round" stroke-width="20"/></g><g id="g3027"><path id="path3029" d="M372.8,671.85H309.86a13.31,13.31,0,0,1-13.3-13.31V235.42a13.31,13.31,0,0,1,13.3-13.31H372.8a13.31,13.31,0,0,1,13.31,13.31h0V658.54A13.31,13.31,0,0,1,372.8,671.85Z" fill="none" stroke="#061f75" stroke-linecap="round" stroke-linejoin="round" stroke-width="20"/></g><path id="path3031" d="M386.11,312.84H296.56V268.51h89.55Z" fill="none" stroke="#061f75" stroke-linecap="round" stroke-linejoin="round" stroke-width="20"/><path id="path3033" d="M386.11,625.45H296.56V581.12h89.55Z" fill="none" stroke="#061f75" stroke-linecap="round" stroke-linejoin="round" stroke-width="20"/><g id="g3035"><path id="path3037" d="M341.33,387.13v119.7" fill="none" stroke="#061f75" stroke-linecap="round" stroke-linejoin="round" stroke-width="20"/></g><g id="g3039"><path id="path3041" d="M669.83,451v53.49a13.29,13.29,0,0,1-6.77,11.59L405.93,660.7a13.3,13.3,0,0,1-19.82-11.59V229.89a13.28,13.28,0,0,1,6.78-11.58L650,73.66a13.3,13.3,0,0,1,19.82,11.59V387.13" fill="none" stroke="#061f75" stroke-linecap="round" stroke-linejoin="round" stroke-width="20"/></g><g id="g3043"><path id="path3045" d="M276.74,660.7,19.61,516.06a13.29,13.29,0,0,1-6.78-11.59V85.26a13.32,13.32,0,0,1,19.83-11.6L289.78,218.31a13.28,13.28,0,0,1,6.78,11.58V649.11a13.31,13.31,0,0,1-19.82,11.59Z" fill="none" stroke="#061f75" stroke-linecap="round" stroke-linejoin="round" stroke-width="20"/></g><g id="g3047"><path id="path3049" d="M621.07,248,434.88,354.42v-64.3l186.19-106.4Z" fill="none" stroke="#061f75" stroke-linecap="round" stroke-linejoin="round" stroke-width="20"/></g></g></svg>