<svg clip-rule="evenodd" fill-rule="evenodd" stroke-linejoin="round" stroke-miterlimit="2" viewBox="0 0 510 510" xmlns="http://www.w3.org/2000/svg"><g id="Artboard411"><path d="m303.254 395.201c-22.623 50.006-77.673 85.596-142.573 84.556-110.677 1.78-192.667-102.236-134.601-204.262l.005-.008c15.922-27.904 40.409-59.232 73.559-95.562-9.664-4.848-16.34-14.866-16.34-26.392 0-15.374 11.94-28.099 27.003-29.359-9.9-9.9-21.599-21.599-21.593-21.593-11.726-11.678-11.738-30.823-.011-42.55 9.9-9.9 25.632-11.597 37.492-4.041.007.005.014.009.02.013.951.61 2.034.73 3.077.296 1.045-.434 1.756-1.266 1.994-2.373l.002-.01c2.92-13.497 15.027-23.695 29.386-23.695 14.064 0 26.366 9.941 29.38 23.671.002.011.005.023.007.034.238 1.107.949 1.939 1.994 2.373 1.043.434 2.126.314 3.074-.294 11.628-7.465 27.371-6.119 37.515 4.026l.012.012c11.672 11.72 11.661 30.855-.012 42.527l-21.604 21.604c15.063 1.26 27.003 13.985 27.003 29.359 0 11.533-6.684 21.556-16.357 26.401 4.484 4.91 8.809 9.727 12.974 14.456 23.79-33.672 63.01-55.727 107.204-55.727 21.447 0 41.719 5.19 59.625 14.377l41.689-41.713c2.071-2.072 5.108-2.846 7.918-2.019 2.81.828 4.943 3.125 5.561 5.989l5.092 23.623 2.257-2.257c3.122-3.123 8.192-3.123 11.314 0 3.122 3.122 3.122 8.191 0 11.313l-2.258 2.258 23.624 5.092c2.863.617 5.16 2.749 5.988 5.559.828 2.809.054 5.847-2.017 7.918l-41.797 41.796c9.065 17.812 14.181 37.947 14.181 59.241 0 72.231-58.917 131.178-131.177 131.178-13.427 0-26.395-2.037-38.61-5.817zm-184.722-212.172c-35.775 38.55-61.975 71.34-78.548 100.384-51.494 90.484 22.379 181.994 120.555 180.344.09-.002.179-.002.269 0 57.693.97 106.98-29.99 127.45-74.232-45.648-20.568-77.572-66.529-77.572-119.685 0-22.073 5.501-42.901 15.2-61.186-7.198-8.258-14.899-16.792-23.103-25.625zm14.3-58.957h55.683l32.816-32.816c5.466-5.466 5.456-14.426-.006-19.917-4.748-4.743-12.113-5.362-17.553-1.869l-.003.002c-5.512 3.535-11.805 4.117-17.857 1.601-6.04-2.512-10.103-7.359-11.487-13.753-1.413-6.43-7.164-11.099-13.751-11.099-6.716 0-12.382 4.765-13.745 11.068-1.378 6.409-5.443 11.268-11.494 13.784s-12.344 1.934-17.837-1.588c-5.561-3.543-12.94-2.782-17.582 1.86-5.484 5.484-5.495 14.438-.011 19.9l.011.011zm259.029 42.045c-15.134-7.337-32.099-11.454-49.997-11.454-63.421 0-115.178 51.731-115.178 115.177 0 63.421 51.757 115.178 115.178 115.178 63.446 0 115.177-51.757 115.177-115.178 0-17.79-4.068-34.659-11.322-49.724-.46-.017-.922-.075-1.38-.174l-33.718-7.267-1.65 1.65c12.514 15.094 20.05 34.452 20.05 55.515 0 47.978-39.149 87.158-87.157 87.158-47.979 0-87.158-39.18-87.158-87.158 0-48.008 39.179-87.157 87.158-87.157 21.205 0 40.681 7.637 55.819 20.302l1.624-1.623-7.267-33.689c-.111-.517-.17-1.038-.179-1.556zm56.422-13.732-4.172-19.358-35.512 35.532 4.172 19.339zm-24.197 46.825c8.372 1.804 19.363 4.173 19.363 4.173l35.511-35.511-19.363-4.173zm-37.763 15.136c-12.194-9.794-27.663-15.663-44.459-15.663-39.171 0-71.158 31.962-71.158 71.157 0 39.171 31.987 71.158 71.158 71.158 39.195 0 71.157-31.987 71.157-71.158 0-16.655-5.771-32.004-15.416-44.149l-19.995 19.995c4.666 6.892 7.391 15.205 7.391 24.154 0 23.827-19.311 43.11-43.137 43.11-23.829 0-43.111-19.281-43.111-43.11 0-23.826 19.284-43.138 43.111-43.138 9.093 0 17.529 2.814 24.485 7.618zm-31.594 31.594c-3.829-2.065-8.21-3.238-12.865-3.238-14.987 0-27.111 12.152-27.111 27.138 0 14.985 12.126 27.11 27.111 27.11 14.986 0 27.137-12.123 27.137-27.11 0-4.508-1.099-8.76-3.044-12.501l-18.297 18.297c-3.123 3.122-8.192 3.122-11.314 0s-3.122-8.191 0-11.313zm-241.964-78.911h95.818c7.406 0 13.46-6.068 13.46-13.496 0-7.402-6.058-13.461-13.46-13.461h-95.818c-7.403 0-13.461 6.059-13.461 13.461 0 7.428 6.055 13.496 13.461 13.496zm47.097 205.449c.129-.006.259-.009.39-.009.163 0 .324.004.485.014.276-.001.553-.005.83-.012 7.109-.174 14.999-1.991 20.824-6.002 4.695-3.233 7.825-8.104 7.01-14.932-.823-6.735-4.614-11.096-9.533-14.064-6.106-3.683-13.756-5.451-20.802-6.607-18.773-3.071-39.126-12.135-40.207-34.412l-.001-.004c-.81-16.865 9.628-29.205 23.981-34.852 2.999-1.18 6.163-2.055 9.413-2.607v-9.148c0-4.416 3.585-8 8-8s8 3.584 8 8v9.047c13.897 2.197 27.046 10.501 33.589 26.11 1.707 4.072-.213 8.764-4.285 10.471s-8.764-.214-10.471-4.286c-4.919-11.734-15.693-16.859-26.26-16.925-.189.014-.38.021-.573.021-.144 0-.286-.004-.428-.012-3.862.093-7.67.858-11.126 2.218-8.032 3.16-14.311 9.756-13.858 19.192.366 7.52 5.093 11.927 10.902 14.765 4.9 2.394 10.561 3.757 15.907 4.632h.004c19.353 3.176 40.836 11.583 43.631 34.535l.002.015c2.782 23.21-17.246 35.758-37.034 38.35v8.931c0 4.415-3.585 8-8 8s-8-3.585-8-8v-9.035c-17.25-2.571-32.529-13.212-37.029-31.286-1.067-4.285 1.545-8.63 5.83-9.696 4.284-1.067 8.629 1.545 9.696 5.83 3.305 13.273 16.126 19.547 29.113 19.758zm129.164-318.619c0-4.416 3.585-8 8-8s8 3.584 8 8v16.672c0 4.415-3.585 8-8 8s-8-3.585-8-8zm42.039 26.038c4.415 0 8 3.585 8 8 0 4.416-3.585 8-8 8h-16.672c-4.416 0-8-3.584-8-8 0-4.415 3.584-8 8-8zm-26.039 42.039c0 4.415-3.585 8-8 8s-8-3.585-8-8v-16.672c0-4.415 3.585-8 8-8s8 3.585 8 8zm-42.039-26.039c-4.415 0-8-3.584-8-8 0-4.415 3.585-8 8-8h16.672c4.416 0 8 3.585 8 8 0 4.416-3.584 8-8 8z"/></g></svg>