<svg id="Layer_1" data-name="Layer 1" xmlns="http://www.w3.org/2000/svg" viewBox="0 0 50 50"><path d="M40.8,22.79A16,16,0,1,0,22.89,40.86,16.84,16.84,0,0,0,25,41a15.82,15.82,0,0,0,8.2-2.28,1.55,1.55,0,0,0-1.6-2.65,12.86,12.86,0,1,1,6.13-9.33,12.17,12.17,0,0,1-.6,2.52A2.23,2.23,0,0,1,35,30.71a2.31,2.31,0,0,1-2.3-2.3V18.88a1.54,1.54,0,1,0-3.08,0h0a7.72,7.72,0,1,0,.55,11.86,5.39,5.39,0,0,0,4.83,3,5.32,5.32,0,0,0,5.06-3.53,16,16,0,0,0,.72-7.48ZM25,29.68a4.63,4.63,0,1,1,4.63-4.63A4.63,4.63,0,0,1,25,29.68Z"/></svg>