<?xml version="1.0" encoding="utf-8"?>
<!-- Generator: Adobe Illustrator 25.0.0, SVG Export Plug-In . SVG Version: 6.00 Build 0)  -->
<svg version="1.1"
	 id="Layer_1" text-rendering="geometricPrecision" image-rendering="optimizeQuality" shape-rendering="geometricPrecision"
	 xmlns="http://www.w3.org/2000/svg" xmlns:xlink="http://www.w3.org/1999/xlink" x="0px" y="0px" viewBox="0 0 512 512"
	 style="enable-background:new 0 0 512 512;" xml:space="preserve">
<style type="text/css">
	.st0{fill-rule:evenodd;clip-rule:evenodd;fill:#061F75;}
</style>
<g id="Layer_x0020_1">
	<g id="_483761600">
		<g>
			<g>
				<path class="st0" d="M504,201.5c-4.4,0-8-3.5-8-8c0-45.1-17.5-87.6-49.5-119.6c-32-31.9-74.5-49.6-119.8-49.6
					c-4.4,0-7.9-3.5-7.9-7.9c0-4.5,3.5-8,7.9-8c49.5,0,96,19.3,131.1,54.2c35,35.1,54.2,81.5,54.2,131
					C512,197.9,508.5,201.5,504,201.5z"/>
			</g>
			<g>
				<path class="st0" d="M445.9,201.5c-4.5,0-8-3.5-8-8c0-29.6-11.6-57.5-32.6-78.5c-20.9-20.9-48.8-32.5-78.5-32.5
					c-4.4,0-7.9-3.7-7.9-8c0-4.4,3.5-8,7.9-8c34,0,65.9,13.2,89.9,37.2c24.1,24.1,37.2,56,37.2,89.9
					C453.8,197.9,450.2,201.5,445.9,201.5z"/>
			</g>
			<g>
				<path class="st0" d="M387.6,201.5c-4.4,0-8-3.5-8-8c0-14.1-5.4-27.4-15.5-37.3c-9.9-10-23.3-15.6-37.4-15.6
					c-4.4,0-7.9-3.5-7.9-7.9c0-4.5,3.5-8,7.9-8c18.4,0,35.8,7.1,48.8,20.2c13,13,20.2,30.2,20.2,48.7
					C395.7,197.9,392.1,201.5,387.6,201.5z"/>
			</g>
			<g>
				<path class="st0" d="M125.1,434.5c-21,0-38.1-17.1-38.1-38.1c0-4.4,3.7-7.9,8-7.9c4.4,0,8,3.5,8,7.9c0,12.2,9.9,22.1,22.1,22.1
					s22.1-9.9,22.1-22.1s-9.9-22.1-22.1-22.1c-21,0-38.1-17-38.1-38c0-21,17.1-38.1,38.1-38.1c20.9,0,38,17.1,38,38.1
					c0,4.4-3.5,8-8,8c-4.4,0-7.9-3.7-7.9-8c0-12.2-9.9-22.1-22.1-22.1s-22.1,9.9-22.1,22.1s9.9,22.1,22.1,22.1c20.9,0,38,17.1,38,38
					C163.1,417.4,146,434.5,125.1,434.5z"/>
			</g>
			<g>
				<path class="st0" d="M125.1,314.2c-4.5,0-8-3.7-8-8v-20.9c0-4.4,3.5-8,8-8c4.4,0,7.9,3.7,7.9,8v20.9
					C133,310.5,129.4,314.2,125.1,314.2z"/>
			</g>
			<g>
				<path class="st0" d="M125.1,455.3c-4.5,0-8-3.5-8-7.9v-20.9c0-4.4,3.5-8,8-8c4.4,0,7.9,3.7,7.9,8v20.9
					C133,451.8,129.4,455.3,125.1,455.3z"/>
			</g>
			<g>
				<path class="st0" d="M375.8,503.7H47.2c-26,0-47.2-21.1-47.2-47.2V187.8c0-26.2,21.4-47.6,47.6-47.6h214.6
					c26.2,0,47.5,21.4,47.5,47.6v41.1h66.1c26.1,0,47.2,21.3,47.2,47.2v43.7c0,4.4-3.5,7.9-7.9,7.9H288.7
					c-21.3,0-38.6,17.4-38.6,38.6s17.4,38.5,38.6,38.5h126.5c4.4,0,7.9,3.5,7.9,8v43.6C423.2,482.6,401.9,503.7,375.8,503.7z
					 M47.6,156.3c-17.5,0-31.7,14.1-31.7,31.5v268.7c0,17.2,14.1,31.2,31.3,31.2h328.6c17.2,0,31.3-14.1,31.3-31.2v-35.7H288.7
					c-30.1,0-54.6-24.4-54.6-54.6c0-30,24.4-54.6,54.6-54.6h118.5v-35.6c0-17.2-14.1-31.3-31.3-31.3h-74.2c-4.4,0-7.9-3.5-7.9-7.9
					v-49.3c0-17.4-14.2-31.5-31.5-31.5H47.6V156.3z"/>
			</g>
			<g>
				<path class="st0" d="M301.8,245h-205c-4.5,0-8-3.7-8-8c0-4.5,3.5-8,8-8h205c4.4,0,8,3.5,8,8C309.8,241.3,306.1,245,301.8,245z"
					/>
			</g>
			<g>
				<path class="st0" d="M417.3,420.8H288.7c-30.1,0-54.6-24.4-54.6-54.6c0-30,24.4-54.6,54.6-54.6h128.6
					c14.9,0,26.9,12.2,26.9,26.9v55.3C444.2,408.8,432.2,420.8,417.3,420.8z M288.7,327.8c-21.3,0-38.6,17.4-38.6,38.6
					s17.4,38.5,38.6,38.5h128.6c6,0,11-4.8,11-11v-55.2c0-6-4.8-11-11-11H288.7z"/>
			</g>
			<g>
				<path class="st0" d="M289.2,389.9c-13,0-23.6-10.6-23.6-23.6c0-13,10.6-23.5,23.6-23.5c13,0,23.5,10.5,23.5,23.5
					C312.8,379.2,302.1,389.9,289.2,389.9z M289.2,358.8c-4.3,0-7.6,3.3-7.6,7.6c0,4.1,3.3,7.4,7.6,7.4c4.1,0,7.4-3.3,7.4-7.4
					C296.7,362.1,293.4,358.8,289.2,358.8z"/>
			</g>
		</g>
	</g>
</g>
</svg>
