<?xml version="1.0" encoding="utf-8"?>
<!-- Generator: Adobe Illustrator 25.0.0, SVG Export Plug-In . SVG Version: 6.00 Build 0)  -->
<svg version="1.1" id="Capa_1" xmlns="http://www.w3.org/2000/svg" xmlns:xlink="http://www.w3.org/1999/xlink" x="0px" y="0px"
	 viewBox="0 0 512 512" style="enable-background:new 0 0 512 512;" xml:space="preserve">
<style type="text/css">
	.st0{fill:none;stroke:#061F75;stroke-width:15;stroke-linecap:round;stroke-linejoin:round;stroke-miterlimit:10;}
</style>
<g>
	<line class="st0" x1="197.1" y1="415.6" x2="197.1" y2="383.3"/>
	<line class="st0" x1="245.5" y1="383.3" x2="245.5" y2="415.6"/>
	<path class="st0" d="M261.7,347.2v26c0,5.6-4.5,10.1-10.1,10.1H191c-5.6,0-10.1-4.5-10.1-10.1v-26"/>
	<path class="st0" d="M330,46.3c33.1,27.1,55.9,66.3,61.6,110.9"/>
	<path class="st0" d="M300.9,27C277.1,14.6,250,7.5,221.3,7.5c-94.8,0-171.7,76.9-171.7,171.7c0,94.8,76.9,171.7,171.7,171.7
		c51.7,0,98.1-22.9,129.6-59"/>
	<path class="st0" d="M92.5,237.8c-8.1-17.9-12.7-37.7-12.7-58.6c0-78.1,63.3-141.4,141.4-141.4c58.5,0,108.7,35.5,130.2,86.2"/>
	<path class="st0" d="M110.8,267.5c25.9,32.4,65.8,53.1,110.5,53.1c32.1,0,61.7-10.7,85.4-28.7"/>
	<g>
		<path class="st0" d="M236.2,146c0,0-9.2-8.1-21.6-4.6c-14.3,4-15.1,20.8-6.9,27.3c4.7,3.7,12.1,7.6,21.5,11.4
			c21.8,9,13.4,36.6-8.4,36.6c-5.8,0-15.1-2.8-19.9-8.4"/>
		<line class="st0" x1="221.3" y1="130.7" x2="221.3" y2="227.7"/>
	</g>
	<circle class="st0" cx="221.3" cy="179.2" r="74.8"/>
	<path class="st0" d="M180.9,504.5v-78.8c0-5.6,4.5-10.1,10.1-10.1h60.6c5.6,0,10.1,4.5,10.1,10.1v78.8"/>
	<line class="st0" x1="261.7" y1="447.9" x2="180.9" y2="447.9"/>
	<path class="st0" d="M421.5,291.9h20.7c16,0,25.7-17.8,16.9-31.2L375.2,132c-8-12.2-25.9-12.2-33.9,0l-83.9,128.7
		c-8.8,13.4,0.9,31.2,16.9,31.2h112.2"/>
	<g>
		<g>
			<line class="st0" x1="358.3" y1="238.3" x2="358.3" y2="163.6"/>
		</g>
	</g>
	<line class="st0" x1="358.3" y1="263.7" x2="358.3" y2="263.7"/>
</g>
</svg>
