<svg id="Capa_1" data-name="Capa 1" xmlns="http://www.w3.org/2000/svg" viewBox="0 0 512 512"><path d="M298.42,383.25H213.58a8.48,8.48,0,0,0-8.48,8.48v59.39a8.48,8.48,0,0,0,8.48,8.48h84.84a8.47,8.47,0,0,0,8.48-8.48V391.73A8.47,8.47,0,0,0,298.42,383.25Zm-8.49,59.38H222.07V400.22h67.86Z" fill="#061f75"/><rect x="247.52" y="391.73" width="16.97" height="59.38" fill="#061f75"/><path d="M340.83,52.4H171.17a8.49,8.49,0,0,0-8.49,8.48V451.12a8.48,8.48,0,0,0,8.49,8.48H340.83a8.47,8.47,0,0,0,8.49-8.48V60.88A8.49,8.49,0,0,0,340.83,52.4Zm-8.48,390.23H179.65V69.37h152.7Z" fill="#061f75"/><path d="M171.17,86.33H103.3a8.49,8.49,0,0,0-8.48,8.49v356.3a8.48,8.48,0,0,0,8.48,8.48h67.87a8.48,8.48,0,0,0,8.48-8.48V94.82A8.49,8.49,0,0,0,171.17,86.33Zm-8.49,356.3h-50.9V103.3h50.9Z" fill="#061f75"/><rect x="77.85" y="86.33" width="25.45" height="16.97" fill="#061f75"/><rect x="145.72" y="52.4" width="220.57" height="16.97" fill="#061f75"/><rect x="196.62" y="340.83" width="16.97" height="25.45" fill="#061f75"/><rect x="230.55" y="340.83" width="16.97" height="25.45" fill="#061f75"/><rect x="264.48" y="340.83" width="16.97" height="25.45" fill="#061f75"/><rect x="298.42" y="340.83" width="16.97" height="25.45" fill="#061f75"/><rect x="196.62" y="298.42" width="16.97" height="25.45" fill="#061f75"/><rect x="230.55" y="298.42" width="16.97" height="25.45" fill="#061f75"/><rect x="264.48" y="298.42" width="16.97" height="25.45" fill="#061f75"/><rect x="298.42" y="298.42" width="16.97" height="25.45" fill="#061f75"/><rect x="196.62" y="256" width="16.97" height="25.45" fill="#061f75"/><rect x="230.55" y="256" width="16.97" height="25.45" fill="#061f75"/><rect x="264.48" y="256" width="16.97" height="25.45" fill="#061f75"/><rect x="298.42" y="256" width="16.97" height="25.45" fill="#061f75"/><rect x="196.62" y="213.58" width="16.97" height="25.45" fill="#061f75"/><rect x="230.55" y="213.58" width="16.97" height="25.45" fill="#061f75"/><rect x="264.48" y="213.58" width="16.97" height="25.45" fill="#061f75"/><rect x="298.42" y="213.58" width="16.97" height="25.45" fill="#061f75"/><rect x="196.62" y="171.17" width="16.97" height="25.45" fill="#061f75"/><rect x="230.55" y="171.17" width="16.97" height="25.45" fill="#061f75"/><rect x="264.48" y="171.17" width="16.97" height="25.45" fill="#061f75"/><rect x="298.42" y="171.17" width="16.97" height="25.45" fill="#061f75"/><rect x="196.62" y="128.75" width="16.97" height="25.45" fill="#061f75"/><rect x="230.55" y="128.75" width="16.97" height="25.45" fill="#061f75"/><rect x="264.48" y="128.75" width="16.97" height="25.45" fill="#061f75"/><rect x="298.42" y="128.75" width="16.97" height="25.45" fill="#061f75"/><rect x="196.62" y="86.33" width="16.97" height="25.45" fill="#061f75"/><rect x="230.55" y="86.33" width="16.97" height="25.45" fill="#061f75"/><rect x="264.48" y="86.33" width="16.97" height="25.45" fill="#061f75"/><rect x="298.42" y="86.33" width="16.97" height="25.45" fill="#061f75"/><rect x="128.75" y="383.25" width="16.97" height="25.45" fill="#061f75"/><rect x="128.75" y="340.83" width="16.97" height="25.45" fill="#061f75"/><rect x="128.75" y="298.42" width="16.97" height="25.45" fill="#061f75"/><rect x="128.75" y="256" width="16.97" height="25.45" fill="#061f75"/><rect x="128.75" y="213.58" width="16.97" height="25.45" fill="#061f75"/><rect x="128.75" y="171.17" width="16.97" height="25.45" fill="#061f75"/><rect x="128.75" y="128.75" width="16.97" height="25.45" fill="#061f75"/><path d="M408.7,86.33H340.83a8.48,8.48,0,0,0-8.48,8.49v356.3a8.47,8.47,0,0,0,8.48,8.48H408.7a8.47,8.47,0,0,0,8.48-8.48V94.82A8.48,8.48,0,0,0,408.7,86.33Zm-8.48,356.3h-50.9V103.3h50.9Z" fill="#061f75"/><rect x="408.7" y="86.33" width="25.45" height="16.97" fill="#061f75"/><rect x="366.28" y="383.25" width="16.97" height="25.45" fill="#061f75"/><rect x="366.28" y="340.83" width="16.97" height="25.45" fill="#061f75"/><rect x="366.28" y="298.42" width="16.97" height="25.45" fill="#061f75"/><rect x="366.28" y="256" width="16.97" height="25.45" fill="#061f75"/><rect x="366.28" y="213.58" width="16.97" height="25.45" fill="#061f75"/><rect x="366.28" y="171.17" width="16.97" height="25.45" fill="#061f75"/><rect x="366.28" y="128.75" width="16.97" height="25.45" fill="#061f75"/><rect x="1.5" y="442.63" width="101.8" height="16.97" fill="#061f75"/><rect x="408.7" y="442.63" width="101.8" height="16.97" fill="#061f75"/><rect x="35.43" y="272.97" width="16.97" height="178.15" fill="#061f75"/><rect x="35.43" y="272.97" width="16.97" height="84.83" transform="translate(-234.74 161.29) rotate(-53.13)" fill="#061f75"/><rect x="1.48" y="306.91" width="84.84" height="16.97" transform="translate(-180.51 89.47) rotate(-36.88)" fill="#061f75"/><rect x="459.6" y="272.97" width="16.97" height="178.15" fill="#061f75"/><rect x="459.6" y="272.97" width="16.96" height="84.83" transform="translate(-65.08 500.62) rotate(-53.13)" fill="#061f75"/><rect x="425.62" y="306.94" width="84.83" height="16.96" transform="translate(-95.65 343.78) rotate(-36.86)" fill="#061f75"/></svg>