<?xml version="1.0" encoding="utf-8"?>
<!-- Generator: Adobe Illustrator 27.9.1, SVG Export Plug-In . SVG Version: 6.00 Build 0)  -->
<svg version="1.1" id="Capa_1" xmlns="http://www.w3.org/2000/svg" xmlns:xlink="http://www.w3.org/1999/xlink" x="0px" y="0px"
	 viewBox="0 0 612 612" style="enable-background:new 0 0 612 612;" xml:space="preserve">
<g>
	<g id="_x37__43_">
		<g>
			<path d="M307.1,196.7l78.8,78.8H183.5c-10.6,0-19.1,8.6-19.1,19.1s8.6,19.1,19.1,19.1H386l-78.8,78.8c-7.5,7.5-7.5,19.6,0,27
				c7.5,7.5,19.6,7.5,27,0l108.2-108.2c4.6-4.6,6-10.9,5-16.8c1.1-5.9-0.4-12.2-5-16.8L334.2,169.6c-7.5-7.5-19.6-7.5-27,0
				C299.7,177.1,299.7,189.2,307.1,196.7z M306,0C137,0,0,137,0,306s137,306,306,306s306-137,306-306S475,0,306,0z M306,573.8
				C158.1,573.8,38.2,453.9,38.2,306S158.1,38.3,306,38.3S573.8,158.1,573.8,306S453.9,573.8,306,573.8z"/>
		</g>
	</g>
</g>
</svg>
