<?xml version="1.0" encoding="utf-8"?>
<!-- Generator: Adobe Illustrator 27.9.1, SVG Export Plug-In . SVG Version: 6.00 Build 0)  -->
<svg version="1.1" id="Capa_1" xmlns="http://www.w3.org/2000/svg" xmlns:xlink="http://www.w3.org/1999/xlink" x="0px" y="0px"
	 viewBox="0 0 512 512" style="enable-background:new 0 0 512 512;" xml:space="preserve">
<style type="text/css">
	.st0{fill:#1B3281;}
	.st1{fill:#FAA61A;}
</style>
<g>
	<path class="st0" d="M462.7,184c19.6-11.3,26.3-36.4,15-56c-11.3-19.6-36.4-26.3-56-15c-4.1,2.4-7.7,5.4-10.7,8.8L294.6,54.7
		c1.5-4.3,2.3-8.9,2.3-13.7c0-22.6-18.4-41-41-41s-41,18.4-41,41c0,4.8,0.8,9.4,2.3,13.7L101,121.8c-3-3.5-6.6-6.5-10.7-8.8
		c-19.6-11.3-44.7-4.6-56,15c-11.3,19.6-4.6,44.7,15,56c4.1,2.4,8.5,4,13,4.8v134.4c-4.5,0.8-8.9,2.5-13,4.8
		c-19.6,11.3-26.3,36.4-15,56c11.3,19.6,36.4,26.3,56,15c4.1-2.4,7.7-5.4,10.7-8.8l116.4,67.2c-1.5,4.3-2.3,8.9-2.3,13.7
		c0,22.6,18.4,41,41,41s41-18.4,41-41c0-4.8-0.8-9.4-2.3-13.7L411,390.2c2.7,3.2,6,6,9.8,8.3c3.5,2.2,8.1,1.1,10.3-2.5
		c2.2-3.5,1.1-8.1-2.5-10.3c-11.9-7.3-16.1-22.7-8.9-35.2c7.2-12.5,23.2-16.7,35.5-9.5c6,3.5,10.3,9.1,12.1,15.8
		c3.1,11.6-2.1,23.2-11.5,28.9c-3.5,2.2-4.6,6.8-2.5,10.3c2.2,3.5,6.8,4.6,10.3,2.5c14.9-9.1,23.1-27.4,18.2-45.6
		c-2.8-10.6-9.6-19.4-19.1-24.9c-4.1-2.4-8.5-4-13-4.8V188.8C454.2,188,458.6,186.4,462.7,184L462.7,184z M429.2,126
		c12.5-7.2,28.3-2.9,35.5,9.5c7.2,12.4,2.9,28.3-9.5,35.5c-12.4,7.1-28.3,3-35.5-9.5C412.4,149,416.8,133.1,429.2,126z M256,15
		c14.3,0,26,11.7,26,26s-11.7,26-26,26s-26-11.7-26-26S241.7,15,256,15L256,15z M47.3,135.5c7.2-12.4,23.1-16.7,35.5-9.5
		c12.4,7.1,16.7,23,9.5,35.5c-7.2,12.5-23.2,16.6-35.5,9.5C44.4,163.8,40.1,147.9,47.3,135.5z M82.8,386
		c-12.4,7.2-28.3,2.9-35.5-9.5c-7.2-12.4-2.9-28.3,9.5-35.5c12.3-7.1,28.3-3,35.5,9.5C99.5,363,95.2,378.9,82.8,386z M256,497
		c-14.3,0-26-11.7-26-26s11.7-26,26-26s26,11.7,26,26S270.3,497,256,497z M406.7,343c-6.3,10.9-7.1,23.3-3.2,34.2l-116.3,67.2
		c-7.5-8.8-18.7-14.4-31.1-14.4s-23.6,5.6-31.1,14.4l-116.4-67.2c4.1-11.6,2.8-23.9-3.1-34.2c-5.5-9.5-14.3-16.3-24.9-19.1
		c-1-0.3-2.1-0.5-3.1-0.7V188.8c12.1-2.3,22.1-9.5,28-19.8c5.9-10.3,7.2-22.5,3.1-34.2l116.4-67.2C232.4,76.4,243.5,82,256,82
		s23.6-5.6,31.1-14.4l116.4,67.2c-4.1,11.6-2.8,23.9,3.1,34.2c6,10.3,16,17.5,28,19.8v134.4C422.6,325.5,412.6,332.7,406.7,343z"/>
	<path class="st1" d="M370.7,177.6l-104.2-60.1c-6.5-3.8-14.6-3.8-21.1,0l-104.2,60.1c-6.5,3.7-10.6,10.7-10.6,18.3v120.3
		c0,7.6,4.1,14.6,10.6,18.3c3.7,2.2,99.9,57.7,104.2,60.1c6.6,3.8,14.7,3.7,21.1,0l104.2-60.1c6.5-3.8,10.6-10.8,10.6-18.3v-32.8
		c0-4.1-3.4-7.5-7.5-7.5s-7.5,3.4-7.5,7.5v32.8c0,2.2-1.2,4.2-3.1,5.3L263.5,379V260c1.1-0.4,2.1-0.9,3.1-1.5l26.1-15.1v37.3
		c0,8.6,9.3,13.8,16.6,9.6l23.9-13.8c4.4-2.5,7.1-7.3,7.1-12.3V216l25.9-15v47.4c0,4.1,3.4,7.5,7.5,7.5s7.5-3.4,7.5-7.5v-52.5
		C381.3,188.2,377.1,181.3,370.7,177.6L370.7,177.6z M300.2,221.8l-102.6-59.4l17.6-10.2l102.7,59.4
		C310.5,215.9,314.8,213.4,300.2,221.8L300.2,221.8z M245.4,258.5c1,0.6,2.4,1.2,3.1,1.5v119l-99.7-57.6c-1.9-1.1-3.1-3.1-3.1-5.3
		V201L245.4,258.5z M259.1,245.6c-1.9,1.1-4.3,1.1-6.2,0L153.2,188l29.4-17l102.7,59.4L259.1,245.6z M325.3,224.6v39.1l-17.6,10.2
		v-39.1l17.3-10L325.3,224.6z M332.8,203l-102.7-59.4l22.7-13.1c1.9-1.1,4.2-1.1,6.1,0l99.7,57.6L332.8,203z"/>
</g>
</svg>
