<?xml version="1.0" encoding="utf-8"?>
<!-- Generator: Adobe Illustrator 25.0.0, SVG Export Plug-In . SVG Version: 6.00 Build 0)  -->
<svg version="1.1" id="Layer_1" xmlns="http://www.w3.org/2000/svg" xmlns:xlink="http://www.w3.org/1999/xlink" x="0px" y="0px"
	 viewBox="0 0 484.2 463.3" style="enable-background:new 0 0 484.2 463.3;" xml:space="preserve">
<style type="text/css">
	.st0{clip-path:url(#SVGID_2_);}
	.st1{fill:#1B3281;}
	.st2{fill:#FAA61B;}
</style>
<g id="Layer_2_1_">
	<g id="Layer_5_copy">
		<g>
			<defs>
				<rect id="SVGID_1_" x="2.5" y="7" width="449.3" height="449.3"/>
			</defs>
			<clipPath id="SVGID_2_">
				<use xlink:href="#SVGID_1_"  style="overflow:visible;"/>
			</clipPath>
			<g class="st0">
				<path class="st1" d="M411.1,31.8H120.3c-11.9,0-21.6,9.7-21.6,21.6v38.5c8.6-1.1,17.3-1.1,25.9,0V57.7h282.2v348.5H124.6V284.4
					c-8.6,1.1-17.3,1.1-25.9,0v126.1c0,11.9,9.7,21.6,21.6,21.6h290.9c11.9,0,21.6-9.7,21.6-21.6V53.4
					C432.7,41.5,423.1,31.8,411.1,31.8z"/>
				<rect x="204.4" y="219" class="st1" width="156.1" height="25.9"/>
				<rect x="204.4" y="273.4" class="st1" width="156.1" height="25.9"/>
				<rect x="204.4" y="333.9" class="st1" width="156.1" height="25.9"/>
				<polygon class="st2" points="160.3,203.7 144.7,183 229.6,118.7 277.1,164.5 335.5,123.6 350.4,144.8 274.5,198 227.5,152.8 
									"/>
				<polygon class="st2" points="354.2,167.3 382.5,106.4 315.6,112.3 				"/>
				<path class="st2" d="M111.5,91c-53.6,0-97.1,43.5-97.1,97.1c0,53.6,43.5,97.1,97.1,97.1s97.1-43.5,97.1-97.1c0,0,0,0,0,0
					C208.6,134.5,165.1,91,111.5,91z M144.2,245.5c-5,4.1-11,6.9-17.3,8.2v16.1h-25.1v-15.6c-7.9-1.4-15.3-4.6-21.6-9.5
					c-9.1-7-13.5-17.5-13.2-31.4l0.2-0.5h22.9c0,7.7,2.1,13.4,6.2,17.1c4.1,3.7,9.7,5.5,16.7,5.5c6.3,0,11.2-1.5,14.5-4.4
					c3.3-2.9,5-6.9,5-11.8c0-5-1.6-9.1-4.7-12.1c-3.2-3.1-8.7-5.9-16.6-8.6c-13.6-4.6-23.9-10-30.9-16.1S69.4,167.7,69.5,157
					c0-10.7,4-19.5,11.9-26.3c5.8-4.9,12.9-8.2,20.5-9.4v-14.9h25.1v16c6.1,1.7,11.7,4.7,16.4,9c8,7.3,11.8,16.9,11.5,28.8l-0.2,0.5
					h-23c0-6.5-1.8-11.5-5.3-15.1c-3.6-3.5-8.6-5.3-15-5.3c-5.8,0-10.3,1.6-13.5,4.7c-3.2,3.1-4.9,7.5-4.8,11.9
					c-0.1,4.3,1.8,8.3,5.2,10.9c3.5,2.8,9.4,5.9,17.9,9c13,4.1,22.8,9.4,29.6,16S156,208.3,156,219C156,230.2,152.1,239,144.2,245.5
					z"/>
			</g>
		</g>
	</g>
</g>
</svg>
