<svg xmlns="http://www.w3.org/2000/svg" viewBox="0 0 509.5 509.5"><defs><style>.cls-1{fill:#1b3281;}.cls-2{fill:#faa61a;}</style></defs><g id="Layer_2" data-name="Layer 2"><g id="Layer_1-2" data-name="Layer 1"><path class="cls-1" d="M499.69,452.31l-95.53-95.53a225.45,225.45,0,0,1-47.38,47.38l95.53,95.53a33.5,33.5,0,0,0,47.38-47.38Z"/><path class="cls-2" d="M242.8,249.45,399.15,93.11,377.94,71.89,224.55,225.28A47.65,47.65,0,0,1,242.8,249.45Z"/><path class="cls-2" d="M171.91,224.65l-52-52L53.25,239.24,26.56,212.56,5.35,233.77l47.9,47.9,66.62-66.62,33.23,33.22A47.61,47.61,0,0,1,171.91,224.65Z"/><path class="cls-1" d="M413.56,178.55A196.18,196.18,0,0,1,419,224.5,194.5,194.5,0,0,1,87,362,194.56,194.56,0,0,1,314.49,52l39-11.22A223.42,223.42,0,0,0,224.5,0C100.51,0,0,100.51,0,224.5S100.51,449,224.5,449,449,348.49,449,224.5a223.48,223.48,0,0,0-22.61-98.27Z"/><polygon class="cls-2" points="410.99 123.52 434.21 36.83 347.52 60.05 410.99 123.52"/><path class="cls-2" d="M197.75,327a62.5,62.5,0,1,1,62.5-62.5A62.57,62.57,0,0,1,197.75,327Zm0-95a32.5,32.5,0,1,0,32.5,32.5A32.54,32.54,0,0,0,197.75,232Z"/></g></g></svg>