<svg xmlns="http://www.w3.org/2000/svg" viewBox="0 0 509.5 509.5"><defs><style>.cls-1{fill:#faa61a;}.cls-2{fill:#1b3281;}</style></defs><g id="Layer_2" data-name="Layer 2"><g id="Layer_1-2" data-name="Layer 1"><path class="cls-1" d="M287.64,236.06v183h48.89a225.56,225.56,0,0,0,22-14.46V170.83h-6.82Z"/><polygon class="cls-1" points="194.4 429.09 265.26 429.09 265.26 258.85 194.4 331.01 194.4 429.09"/><path class="cls-1" d="M107.16,310.63l-6,5.41V412.1q5.53,3.64,11.3,7H172V298.8l-53.54,45.43Z"/><path class="cls-1" d="M157.57,178.26q0-7.22-4.52-11.59t-15.9-8.24q-19.49-6.52-29.58-15.37t-10.1-24.13q0-15.37,11.37-25.11t29-9.75q18.71,0,30.12,10.47T179,122l-.15.52H157q0-9.36-5.1-14.39t-14.31-5q-8.35,0-12.92,4.47A15.27,15.27,0,0,0,120.06,119a12.93,12.93,0,0,0,5,10.44q5,4.08,17.09,8.63,18.57,5.83,28.31,15.24t9.74,24.77q0,16.07-11.29,25.33T139,212.69q-18.18,0-31.21-10t-12.65-30l.16-.52H117.2q0,11.09,5.88,16.32T139,193.72q9,0,13.8-4.21A14.25,14.25,0,0,0,157.57,178.26Z"/><rect class="cls-1" x="128.4" y="70.63" width="23.92" height="18.68"/><rect class="cls-1" x="128.4" y="207.95" width="23.92" height="18.68"/><path class="cls-2" d="M499.69,452.31l-95.53-95.53a225.45,225.45,0,0,1-47.38,47.38l95.53,95.53a33.5,33.5,0,0,0,47.38-47.38Z"/><path class="cls-2" d="M362,87a197.93,197.93,0,0,1,15.69,17.68l5.9-26-22.84,7.09C361.19,86.15,361.62,86.55,362,87Z"/><path class="cls-2" d="M410.1,98.17l-9.77,43a194.53,194.53,0,1,1-67.82-78.44l35.32-11A223.58,223.58,0,0,0,224.5,0C100.51,0,0,100.51,0,224.5S100.51,449,224.5,449,449,348.49,449,224.5A223.48,223.48,0,0,0,410.1,98.17Z"/><path class="cls-1" d="M393.16,59.52l-69,22.3-4.7,1.52L323,86.81,335.71,99.4l-131,159L199,240.92l-3.75-11.44-1.53-4.7-3.46,3.53-7.87,8L124,296l-11.86-28.25-1.43-3.41-2-4.62-3.15,3.9-2.16,2.66L56.9,320.73l4.34,4.13,43.47-40.8,10.48,26.81,1.75,5.4,1.41,4.35,3.43-3,4.44-3.92L183.63,263l5.69,22.49,3.73,14.74,1.34,5.3,3.75-4,10.61-11.24L363.21,126.55l12.52,12.36,3.88,3.82,1.16-5.32L397,63l1.11-5.1ZM122.94,301.31l30.81-31.43-30.81,31.43L109.32,268.9Zm62.39-43.85-61.09,54,61.09-54,6.9,27.26ZM394.08,62.37l-69,22.31,69-22.31Z"/></g></g></svg>