<svg id="Layer_3" enable-background="new 0 0 60 60" viewBox="0 0 60 60" xmlns="http://www.w3.org/2000/svg"><path d="m17.08 17.9v7.18c2.75-.69 5.53-1.16 8.33-1.39v-5.79c0-2.53 2.06-4.59 4.59-4.59s4.59 2.06 4.59 4.59v5.79c2.8.23 5.58.7 8.32 1.39v-7.18c0-1.73-.34-3.41-.98-4.95-.64-1.55-1.58-2.96-2.8-4.18-2.46-2.44-5.7-3.78-9.13-3.78-7.12 0-12.92 5.79-12.92 12.91z"/><path d="m13.4 28.97v22.55c0 .43.28.82.69.95 5.2 1.69 10.56 2.54 15.91 2.54s10.7-.85 15.9-2.54c.42-.13.7-.52.7-.95v-22.55c0-.44-.28-.82-.7-.96-10.4-3.38-21.4-3.38-31.81 0-.41.14-.69.52-.69.96zm6.44 15.02 6.98-6.98c.38-.38 1.04-.38 1.41 0l4.29 4.29 4.52-4.52h-1.55c-.55 0-1-.45-1-1s.45-1 1-1h3.96c.13 0 .26.03.38.08.24.1.44.3.54.54.05.12.08.25.08.38v3.96c0 .55-.45 1-1 1s-1-.45-1-1v-1.54l-5.23 5.23c-.39.39-1.02.39-1.41 0l-4.29-4.29-6.27 6.27c-.2.2-.45.29-.71.29s-.51-.1-.71-.29c-.38-.39-.38-1.02.01-1.42z"/></svg>