<svg height="682pt" viewBox="-21 -21 682 682.66799" width="682pt" xmlns="http://www.w3.org/2000/svg"><path d="m621.585938 602.5h-21.25v-412.5h18.75c6.808593 0 13.089843-3.699219 16.40625-9.667969 3.292968-5.949219 3.109374-13.234375-.515626-19.023437l-93.75-153.09375c-6.847656-10.953125-24.933593-10.953125-31.785156 0l-93.75 153.09375c-3.625 5.789062-3.808594 13.074218-.511718 19.023437 3.3125 5.96875 9.59375 9.667969 16.40625 9.667969h18.75v412.5h-37.5v-318.75c0-10.359375-8.390626-18.75-18.75-18.75h-112.5c-10.363282 0-18.75 8.390625-18.75 18.75v318.75h-37.5v-206.25c0-10.359375-8.390626-18.75-18.75-18.75h-112.5c-10.363282 0-18.75 8.390625-18.75 18.75v206.25h-56.25c-10.363282 0-18.75 8.390625-18.75 18.75 0 10.363281 8.386718 18.75 18.75 18.75h602.5c10.359374 0 18.75-8.386719 18.75-18.75 0-10.359375-8.390626-18.75-18.75-18.75zm0 0"/><path d="m56.585938 152.5c10.34375 0 18.75 8.40625 18.75 18.75 0 10.347656-8.40625 18.75-18.75 18.75-6.6875 0-12.910157-3.585938-16.261719-9.394531-5.164063-8.953125-16.644531-12.082031-25.613281-6.828125-8.957032 5.183594-12.03125 16.644531-6.832032 25.617187 6.746094 11.679688 17.582032 20.011719 29.957032 24.445313v20.90625c0 10.367187 8.386718 18.75 18.75 18.75 10.359374 0 18.75-8.382813 18.75-18.75v-20.703125c21.777343-7.761719 37.5-28.378907 37.5-52.792969 0-31.015625-25.234376-56.25-56.25-56.25-10.347657 0-18.75-8.402344-18.75-18.75 0-10.34375 8.402343-18.75 18.75-18.75 6.683593 0 12.910156 3.589844 16.257812 9.394531 5.148438 8.9375 16.574219 12.011719 25.617188 6.832031 8.953124-5.183593 12.03125-16.644531 6.828124-25.621093-6.746093-11.679688-17.582031-20.011719-29.953124-24.441407v-24.914062c0-10.359375-8.390626-18.75-18.75-18.75-10.363282 0-18.75 8.390625-18.75 18.75v24.703125c-21.777344 7.769531-37.5 28.382813-37.5 52.796875 0 31.015625 25.234374 56.25 56.25 56.25zm0 0"/></svg>