<?xml version="1.0" encoding="UTF-8"?>
<svg id="increase_x5F_customer_x5F_loyalty" xmlns="http://www.w3.org/2000/svg" version="1.1" viewBox="0 0 512 512">
  <!-- Generator: Adobe Illustrator 29.6.1, SVG Export Plug-In . SVG Version: 2.1.1 Build 9)  -->
  <rect x="248.7" y="7.7" width="12.7" height="33.2"/>
  <rect x="285.4" y="28.6" width="33.2" height="12.7" transform="translate(152.6 299.7) rotate(-67.2)"/>
  <rect x="196.3" y="18.4" width="12.7" height="33.2" transform="translate(2.3 81.3) rotate(-22.8)"/>
  <path d="M172.8,155.6c0,7,10,12.5,11.7,19,1.8,6.6-4,16.4-.6,22.3,3.4,5.9,14.8,5.8,19.6,10.6,4.8,4.8,4.6,16.2,10.6,19.6,5.8,3.4,15.6-2.4,22.3-.6,6.4,1.7,12,11.7,19,11.7s12.5-10,19-11.7c6.6-1.8,16.4,4,22.3.6,5.9-3.4,5.8-14.8,10.6-19.6,4.8-4.8,16.2-4.6,19.6-10.6,3.4-5.8-2.4-15.6-.6-22.3,1.7-6.4,11.7-12,11.7-19s-10-12.5-11.7-19c-1.8-6.6,4-16.4.6-22.3-3.4-5.9-14.8-5.8-19.6-10.6-4.8-4.8-4.6-16.2-10.6-19.6-5.8-3.4-15.6,2.4-22.3.6-6.4-1.7-12-11.7-19-11.7s-12.5,10-19,11.7c-6.6,1.8-16.4-4-22.3-.6-5.9,3.4-5.8,14.8-10.6,19.6-4.8,4.8-16.2,4.6-19.6,10.6-3.4,5.8,2.4,15.6.6,22.3-1.7,6.4-11.7,12-11.7,19ZM225.9,136.6c6.5-6.6,16.9-5.9,23,1.2l3.8,4.3c1.3,1.5,3.6,1.5,4.9,0l3.8-4.3c6.2-7.1,16.5-7.8,23-1.2,6.7,6.8,7,18.2.7,25.3l-18.3,20.9c-3.1,3.5-7.3,5.5-11.7,5.5s-8.6-2-11.7-5.5l-18.3-20.9c-6.2-7.2-6-18.6.7-25.3Z"/>
  <path d="M117.9,397.4c14,0,25.3-11.4,25.3-25.3s0-1.8-.2-2.7l91.9-36.4c4.6,6.2,12,10.3,20.4,10.3,14,0,25.3-11.4,25.3-25.3s0-2-.2-3l92-36.5c4.6,6.2,12,10.2,20.3,10.2,14,0,25.3-11.4,25.3-25.3s0-1.9-.2-2.9c-.5-4.4-2.1-8.4-4.5-11.8-4.6-6.4-12.1-10.6-20.6-10.6-14,0-25.3,11.4-25.3,25.3s0,2.3.3,3.4l-91.8,36.4c-4.6-6.4-12.1-10.6-20.6-10.6-14,0-25.3,11.4-25.3,25.3s0,2.2.2,3.3l-91.6,36.3c-4.6-6.5-12.2-10.8-20.7-10.8-14,0-25.3,11.4-25.3,25.3s0,2.4.3,3.6L7.9,409.4l4.6,11.8,85.2-33.8c4.6,6.1,11.9,10.1,20.2,10.1ZM380.2,261.8c.8-6.3,6.1-11.2,12.6-11.2s5.9,1.1,8.1,2.9c2.8,2.3,4.6,5.8,4.6,9.7s0,1.4-.2,2.1c-1,6-6.2,10.5-12.5,10.5s-5.5-.9-7.6-2.6c-3.1-2.3-5.1-6-5.1-10.1s0-1,0-1.5ZM242.8,316.3c.8-6.2,6.1-11,12.6-11s5.8,1.1,8,2.9c2.8,2.3,4.6,5.9,4.6,9.8s0,1.4-.2,2c-1,6-6.2,10.6-12.5,10.6s-5.6-1-7.7-2.6c-3-2.3-5-6-5-10.1s0-1.1.1-1.6ZM105.3,370.8c.7-6.4,6-11.4,12.6-11.4s6,1.2,8.3,3.1c2.7,2.3,4.4,5.8,4.4,9.6s0,1.6-.2,2.4c-1.1,5.9-6.3,10.3-12.5,10.3s-5.4-.9-7.4-2.4c-3.2-2.3-5.2-6-5.2-10.3,0-.4,0-.9,0-1.3Z"/>
  <path d="M152.8,438.6h-69.8c-3.5,0-6.3,2.8-6.3,6.3v53.1c0,3.5,2.8,6.3,6.3,6.3h69.8c3.5,0,6.3-2.8,6.3-6.3v-53.1c0-3.5-2.8-6.3-6.3-6.3Z"/>
  <path d="M290.3,410.5h-69.8c-3.5,0-6.3,2.8-6.3,6.3v81.3c0,3.5,2.8,6.3,6.3,6.3h69.8c3.5,0,6.3-2.8,6.3-6.3v-81.3c0-3.5-2.8-6.3-6.3-6.3Z"/>
  <path d="M427.7,335.1h-69.8c-3.5,0-6.3,2.8-6.3,6.3v156.6c0,3.5,2.8,6.3,6.3,6.3h69.8c3.5,0,6.3-2.8,6.3-6.3v-156.6c0-3.5-2.8-6.3-6.3-6.3Z"/>
  <path d="M413.5,248.6c2.5,3.4,4.1,7.4,4.5,11.8l45.8-19.1-4.6-11.8-45.7,19.1Z"/>
  <path d="M500,213.5l-25.1-10.8c-2.6-1.1-5.5-.6-7.5,1.4-2,1.9-2.6,4.9-1.6,7.5l5.2,13.1h0s4.6,11.8,4.6,11.8h0l5.2,13.3c1,2.6,3.6,4.4,6.4,4.4h0c2.9,0,5.4-1.8,6.4-4.5l10.1-27.4c1.3-3.4-.4-7.3-3.7-8.7Z"/>
</svg>