<svg id="Capa_1" data-name="Capa 1" xmlns="http://www.w3.org/2000/svg" viewBox="0 0 512 512"><g id="Layer_2" data-name="Layer 2"><g id="Layer_1-2" data-name="Layer 1-2"><g id="security_provision" data-name="security provision"><path d="M502.16,265.84H433.24a9.84,9.84,0,0,0-9.84,9.83v19.71H331a39.12,39.12,0,0,0-19.55,5.21L195,367.38a39,39,0,0,0-18.39,23.89c-7,24.88,13.14,50,38.32,49.55a39.26,39.26,0,0,0,19.62-5.23l93.43-52.89a9.84,9.84,0,1,0-9.69-17.13l-93.46,52.92a20,20,0,0,1-27.22-7.22,19.68,19.68,0,0,1,7.2-26.82L321.2,317.66a19.59,19.59,0,0,1,9.74-2.6H423.4v78.76H409.91a68.56,68.56,0,0,0-36.79,10.81l-79,50.38a49.19,49.19,0,0,1-26.43,7.73H44.28a24.83,24.83,0,0,1-24-29.65c2-10.24,14.1-19.58,25.47-19.58h99.93a9.85,9.85,0,0,0,0-19.69H45.74c-20.94,0-41.05,15.95-44.81,35.53C-4.84,456.2,17,482.89,44.27,482.43H267.64a68.72,68.72,0,0,0,37-10.81l79-50.38a49,49,0,0,1,26.22-7.73h13.49V433.2a9.85,9.85,0,0,0,9.84,9.85h68.93a9.84,9.84,0,0,0,9.84-9.84h0V275.67a9.84,9.84,0,0,0-9.84-9.83Zm-9.85,157.54H443.09V285.53h49.22Z" fill="#061f75"/><path d="M79.62,292l63.7,31.86a9.87,9.87,0,0,0,8.8,0L215.83,292a107.66,107.66,0,0,0,59.86-96.86V78.78a9.9,9.9,0,0,0-10-9.84,6.08,6.08,0,0,0-.61,0,151.09,151.09,0,0,1-110.9-37,9.86,9.86,0,0,0-13,0A151.08,151.08,0,0,1,30.32,69a9.91,9.91,0,0,0-10.55,9.22c0,.2,0,.4,0,.59V195.15A107.65,107.65,0,0,0,79.62,292ZM39.45,89.06A170.9,170.9,0,0,0,147.73,52.22,170.2,170.2,0,0,0,256,89.06V195.15a88.1,88.1,0,0,1-49,79.25l-59.32,29.66L88.42,274.4a88.1,88.1,0,0,1-49-79.25Z" fill="#061f75"/><path d="M98.51,196.92H118.2v19.7a9.84,9.84,0,0,0,9.83,9.84h39.39a9.84,9.84,0,0,0,9.84-9.84h0v-19.7H197a9.84,9.84,0,0,0,9.85-9.83h0V147.7a9.85,9.85,0,0,0-9.84-9.85H177.26V118.16a9.84,9.84,0,0,0-9.83-9.84H128a9.84,9.84,0,0,0-9.84,9.83h0v19.69H98.51a9.84,9.84,0,0,0-9.85,9.84h0v39.38a9.84,9.84,0,0,0,9.83,9.84Zm9.84-39.38H128a9.83,9.83,0,0,0,9.85-9.83h0V128h19.69V147.7a9.83,9.83,0,0,0,9.83,9.84h19.71v19.69h-19.7a9.84,9.84,0,0,0-9.84,9.84h0v19.69H137.89V187.08a9.85,9.85,0,0,0-9.84-9.85h-19.7Z" fill="#061f75"/></g></g></g></svg>