<svg height="482pt" viewBox="0 -56 482.06556 482" width="482pt" xmlns="http://www.w3.org/2000/svg"><path d="m139.890625 116.703125c8.863281-3.613281 18.34375-5.472656 27.917969-5.472656 3.3125 0 6-2.683594 6-6 0-3.3125-2.6875-6-6-6-47.296875.511719-85.371094 38.996093-85.371094 86.296875 0 47.300781 38.074219 85.785156 85.371094 86.296875 3.3125 0 6-2.6875 6-6 0-3.316407-2.6875-6-6-6-35.542969-.003907-66.101563-25.179688-72.90625-60.0625-6.804688-34.882813 12.054687-69.699219 44.988281-83.058594zm0 0"/><path d="m4.878906 217.367188 21.597656 7.3125c3.691407 12.949218 9.097657 25.347656 16.078126 36.859374l-9.410157 21c-1.03125 2.296876-.515625 4.992188 1.285157 6.75l33.78125 32.957032c1.820312 1.777344 4.5625 2.210937 6.847656 1.085937l20.679687-10.214843c11.671875 6.757812 24.285157 11.734374 37.425781 14.765624l8.015626 21.542969c.875 2.351563 3.117187 3.910157 5.625 3.910157h.097656l21-.363282c3.316406-.054687 5.957031-2.789062 5.898437-6.101562-.058593-3.316406-2.789062-5.953125-6.105469-5.898438l-16.757812.289063-7.667969-20.632813c-.722656-1.941406-2.390625-3.371094-4.414062-3.785156-14.050781-2.882812-27.492188-8.183594-39.722657-15.671875-1.757812-1.074219-3.941406-1.171875-5.789062-.261719l-19.792969 9.777344-27.742187-27.058594 9-20.089844c.824218-1.839843.667968-3.96875-.414063-5.671874-7.730469-12.152344-13.523437-25.429688-17.167969-39.363282-.511718-1.953125-1.96875-3.515625-3.882812-4.164062l-20.617188-6.976563-.65625-38.691406 20.628907-7.671875c1.941406-.71875 3.371093-2.386719 3.789062-4.414062 2.882813-14.054688 8.183594-27.5 15.671875-39.734376 1.074219-1.757812 1.171875-3.941406.257813-5.789062l-9.777344-19.796875 27.070313-27.738281 20.085937 9c1.839844.824218 3.972656.671875 5.671875-.410156 12.152344-7.730469 25.433594-13.523438 39.363281-17.171876 1.953125-.507812 3.519531-1.964843 4.167969-3.878906l6.980469-20.617187 21.929687-.367188c3.316406-.054687 5.957032-2.785156 5.902344-6.101562-.054688-3.3125-2.785156-5.953125-6.101562-5.898438l-26.160157.445313c-2.535156.042968-4.769531 1.675781-5.582031 4.074218l-7.316406 21.601563c-12.949219 3.6875-25.34375 9.097656-36.859375 16.078125l-21-9.414062c-2.292969-1.027344-4.988281-.515626-6.746094 1.285156l-32.957031 33.773437c-1.78125 1.824219-2.214844 4.566407-1.089844 6.851563l10.21875 20.679687c-6.757812 11.675781-11.734375 24.292969-14.769531 37.4375l-21.539063 8.007813c-2.386718.882812-3.9531248 3.179687-3.910156 5.726562l.800781 47.160156c.042969 2.535157 1.675781 4.765626 4.078125 5.578126zm0 0"/><path d="m179.871094 179.527344v12h239.402344c3.09375 16.035156 17.867187 27.09375 34.121093 25.539062 16.257813-1.554687 28.671875-15.207031 28.671875-31.539062 0-16.332032-12.414062-29.984375-28.671875-31.539063-16.253906-1.554687-31.027343 9.503907-34.121093 25.539063zm256.578125-7.898438c7.675781-7.675781 20.121093-7.675781 27.796875-.003906 7.671875 7.675781 7.671875 20.121094 0 27.796875-7.675782 7.675781-20.121094 7.675781-27.796875 0-7.664063-7.679687-7.664063-20.113281 0-27.792969zm0 0"/><path d="m368.308594 68.667969c-15.167969 0-28.203125 10.761719-31.085938 25.652343h-50.554687c-17.734375.019532-32.109375 14.394532-32.128907 32.128907-.011718 11.113281-9.019531 20.117187-20.128906 20.132812h-54.539062v12h54.539062c17.734375-.019531 32.109375-14.394531 32.128906-32.132812.011719-11.109375 9.015626-20.117188 20.128907-20.128907h50.554687c3.164063 16.398438 18.527344 27.519532 35.09375 25.402344 16.570313-2.117187 28.640625-16.738281 27.582032-33.410156-1.058594-16.667969-14.886719-29.644531-31.589844-29.644531zm13.898437 45.550781c-7.671875 7.664062-20.109375 7.660156-27.777343-.011719-7.667969-7.671875-7.667969-20.105469 0-27.777343 7.667968-7.671876 20.105468-7.675782 27.777343-.011719 7.667969 7.683593 7.667969 20.121093 0 27.800781zm0 0"/><path d="m368.308594 302.386719c16.699218-.003907 30.519531-12.980469 31.578125-29.644531 1.058593-16.660157-11.011719-31.28125-27.574219-33.398438s-31.921875 8.996094-35.089844 25.390625h-50.554687c-11.113281-.011719-20.117188-9.019531-20.128907-20.128906-.019531-17.738281-14.394531-32.109375-32.128906-32.132813h-54.539062v12h54.539062c11.109375.015625 20.117188 9.019532 20.128906 20.132813.019532 17.734375 14.394532 32.109375 32.128907 32.128906h50.554687c2.882813 14.894531 15.917969 25.652344 31.085938 25.652344zm-13.898438-45.550781c7.675782-7.675782 20.117188-7.675782 27.792969 0 7.675781 7.675781 7.675781 20.121093 0 27.796874-7.675781 7.675782-20.117187 7.675782-27.792969 0-3.699218-3.679687-5.78125-8.683593-5.78125-13.898437.003906-5.21875 2.082032-10.21875 5.78125-13.898437zm0 0"/><path d="m291.085938 317.035156c-5.207032 5.179688-8.433594 12.019532-9.125 19.332032h-6.800782c-11.242187-.03125-21.292968-7.027344-25.226562-17.5625l-16.996094-45.886719c-5.691406-15.230469-20.222656-25.34375-36.484375-25.390625h-16.582031v12h16.582031c11.246094.03125 21.296875 7.027344 25.230469 17.558594l17 45.886718c5.691406 15.234375 20.222656 25.347656 36.480468 25.394532h7.9375c4.023438 13.679687 16.695313 22.980468 30.953126 22.71875 14.257812-.257813 26.582031-10.015626 30.105468-23.835938 3.523438-13.816406-2.621094-28.285156-15.015625-35.339844-12.390625-7.054687-27.96875-4.957031-38.054687 5.125zm42.039062 22.382813c-.003906 9.367187-6.625 17.429687-15.8125 19.253906s-18.386719-3.09375-21.972656-11.746094c-3.582032-8.65625-.554688-18.636719 7.234375-23.84375 7.785156-5.207031 18.167969-4.1875 24.792969 2.433594 3.699218 3.679687 5.773437 8.683594 5.757812 13.902344zm0 0"/><path d="m232.9375 98.136719 16.996094-45.886719c3.933594-10.535156 13.980468-17.53125 25.226562-17.5625h6.800782c1.585937 16.191406 15.210937 28.527344 31.480468 28.5 16.265625-.023438 29.851563-12.40625 31.382813-28.601562 1.535156-16.195313-9.484375-30.902344-25.460938-33.984376-15.972656-3.078124-31.671875 6.484376-36.265625 22.085938h-7.9375c-16.257812.046875-30.792968 10.160156-36.480468 25.394531l-17 45.886719c-3.933594 10.53125-13.980469 17.523438-25.226563 17.558594h-16.582031v12h16.582031c16.261719-.046875 30.792969-10.160156 36.484375-25.390625zm66.636719-80.398438c6.628906-6.632812 17.019531-7.652343 24.8125-2.445312 7.796875 5.210937 10.828125 15.199219 7.238281 23.859375-3.585938 8.664062-12.792969 13.585937-21.988281 11.757812-9.195313-1.828125-15.820313-9.898437-15.820313-19.273437-.007812-5.214844 2.066406-10.214844 5.757813-13.894531zm0 0"/></svg>