<?xml version="1.0" encoding="utf-8"?>
<!-- Generator: Adobe Illustrator 25.0.0, SVG Export Plug-In . SVG Version: 6.00 Build 0)  -->
<svg version="1.1" id="Слой_1" xmlns="http://www.w3.org/2000/svg" xmlns:xlink="http://www.w3.org/1999/xlink" x="0px" y="0px"
	 viewBox="0 0 512 512" style="enable-background:new 0 0 512 512;" xml:space="preserve">
<style type="text/css">
	.st0{fill:#061F75;}
</style>
<path class="st0" d="M403.7,341.5L374.1,324c32.7-65.3,6.3-144.8-59-177.5c-15.9-8-33.3-12.7-51.1-13.8V98.1
	c26.9-4.4,45.2-29.8,40.7-56.7S274.9-3.8,248,0.6s-45.2,29.8-40.7,56.7c3.4,20.9,19.8,37.3,40.7,40.7v34.6
	c-72.9,4.5-128.4,67.3-123.8,140.2c1.1,17.8,5.8,35.1,13.8,51.1l-29.6,17.6c-29.2-36.5-88-15.6-88,30.8
	c-0.1,27.3,21.9,49.4,49.2,49.5s49.4-21.9,49.5-49.2c0-5.9-1-11.7-3-17.2l29.8-17.7c40.3,60.8,122.2,77.3,183,37
	c14.7-9.7,27.3-22.3,37-37l30.2,17.7c-9.3,25.6,3.9,53.9,29.6,63.2s53.9-3.9,63.2-29.6c2-5.4,3-11.1,3-16.9
	C491.6,325.8,432.9,305,403.7,341.5L403.7,341.5z M69.7,405.5c-18.4,0-33.4-15-33.4-33.4s15-33.4,33.4-33.4s33.4,15,33.4,33.4l0,0
	c0.1,18.5-14.9,33.5-33.3,33.6c0,0-0.1,0-0.1,0V405.5z M222.6,49.4c0-18.4,15-33.4,33.4-33.4s33.4,15,33.4,33.4s-15,33.4-33.4,33.4
	l0,0C237.6,82.8,222.6,67.8,222.6,49.4z M256,380.8c-64.1,0-116-51.9-116-116s51.9-116,116-116s116,51.9,116,116
	C371.8,328.8,320,380.6,256,380.8z M442.3,405.6c-18.4,0-33.4-15-33.4-33.4c0-18.4,15-33.4,33.4-33.4c18.4,0,33.4,15,33.4,33.4l0,0
	C475.7,390.7,460.7,405.6,442.3,405.6z"/>
<path class="st0" d="M203.5,273.5c-3.1,3.1-3.1,8.2,0,11.3c3.1,3.1,8.2,3.1,11.3,0c22.8-22.7,59.6-22.7,82.4,0
	c3.1,3.1,8.2,3.1,11.3,0s3.1-8.2,0-11.3C279.5,244.6,232.5,244.6,203.5,273.5L203.5,273.5z"/>
<path class="st0" d="M256,284.9c-10.9,0-21.4,4.3-29.1,12c-3.1,3.1-3.1,8.2,0,11.3c3.1,3.1,8.2,3.1,11.3,0l0,0
	c9.8-9.8,25.7-9.8,35.5,0c3.1,3.1,8.2,3.1,11.3,0s3.1-8.2,0-11.3C277.4,289.2,266.9,284.8,256,284.9L256,284.9z"/>
<path class="st0" d="M256,218.7c-28.5-0.1-55.9,11.2-76,31.4c-3.1,3.1-3.1,8.2,0,11.3s8.2,3.1,11.3,0c35.7-35.7,93.5-35.7,129.1,0
	c0,0,0,0,0,0c3.1,3.2,8.2,3.2,11.4,0.1c3.2-3.1,3.2-8.2,0.1-11.4C311.9,229.9,284.5,218.6,256,218.7z"/>
<path class="st0" d="M327.3,65.6c97.2,35.1,154.9,135.1,136.7,236.8c-0.8,4.3,2.1,8.5,6.4,9.3c0.5,0,1,0,1.4,0
	c3.9,0.1,7.3-2.7,8-6.6c19.5-109.4-42.6-216.9-147.2-254.6c-4.2-1.5-8.7,0.7-10.2,4.8C321,59.5,323.2,64.1,327.3,65.6z"/>
<path class="st0" d="M40,312c0.5,0,1,0,1.4,0c4.4-0.7,7.3-4.8,6.6-9.2c0-0.1,0-0.3-0.1-0.4C29.7,200.7,87.5,100.7,184.7,65.6
	c4.2-1.5,6.3-6.1,4.8-10.2c-1.5-4.2-6.1-6.3-10.2-4.8C74.7,88.2,12.6,195.9,32.2,305.3C32.9,309.1,36.1,311.9,40,312z"/>
<path class="st0" d="M392.6,425.9c-78.8,66.8-194.4,66.8-273.2,0c-3.4-2.9-8.4-2.4-11.3,0.9c-2.9,3.4-2.4,8.4,0.9,11.3l0,0
	c84.8,71.8,209.1,71.8,293.9,0c3.4-2.9,3.8-7.9,0.9-11.3S396,423.1,392.6,425.9L392.6,425.9L392.6,425.9z"/>
</svg>
