<svg id="Capa_1" data-name="Capa 1" xmlns="http://www.w3.org/2000/svg" viewBox="0 0 512 512"><path d="M277.5,409.42a22.51,22.51,0,1,0-13.45,28.84A22.58,22.58,0,0,0,277.5,409.42Zm-18.58,14.75a7.51,7.51,0,1,1,4.49-9.62A7.5,7.5,0,0,1,258.92,424.17Z" fill="#061f75"/><path d="M511.55,340.26l-10.26-28.19a7.52,7.52,0,0,0-3.84-4.21l0,0-.34-.14-.33-.13-.08,0a7.47,7.47,0,0,0-5,0l-24.53,8.92L415,173.16h0l-20.51-56.37a7.5,7.5,0,0,0-14.1,5.13l18,49.33L302,206.3h0l-58.71,21.37-39.34-108,51.69-18.81,11.11,30.53a7.52,7.52,0,0,0,7,4.94,7.3,7.3,0,0,0,2.57-.46l37.59-13.68A7.5,7.5,0,0,0,318.8,114v0c0-.19-.07-.39-.11-.58s0-.11,0-.16a6.14,6.14,0,0,0-.22-.73L307.31,82,359,63.19,370.1,93.72a7.54,7.54,0,0,0,7,4.94,7.34,7.34,0,0,0,2.57-.46,7.51,7.51,0,0,0,4.48-9.61L370.52,51a7.53,7.53,0,0,0-5.89-4.84,7.51,7.51,0,0,0-3.72.36L295.17,70.45h0l-.06,0L257.61,84.12l-.07,0-.11,0-65.66,23.9a7.49,7.49,0,0,0-4.48,9.61l44.45,122.16L274.5,357.33a61.78,61.78,0,0,0-16.94-2.7L149.25,57.05a37.55,37.55,0,0,0-48.07-22.42h0L5,69.34h0c-.17.06-.33.14-.5.21l-.19.08-.47.26-.19.1c-.15.09-.29.19-.43.29L3,70.42l-.37.31-.19.16c-.12.11-.22.23-.33.34l-.18.18-.29.36L1.44,72a3.75,3.75,0,0,0-.24.36c-.06.08-.11.16-.16.24s-.13.25-.2.38l-.14.26-.15.38c0,.09-.09.19-.12.28s-.08.26-.11.38-.07.21-.1.31,0,.26-.08.38l-.06.33c0,.13,0,.26,0,.39s0,.22,0,.34v.73c0,.14,0,.27,0,.41l0,.33c0,.13,0,.27.08.4s0,.23.07.34.08.26.12.4.06.22.1.32h0v0l10.26,28.19c.08.21.18.4.27.6s.14.32.22.47.26.4.39.6.16.26.25.37a7.29,7.29,0,0,0,.53.58,3.08,3.08,0,0,0,.24.27,7.79,7.79,0,0,0,.65.52l.23.19a8.15,8.15,0,0,0,.75.44l.23.13a5.68,5.68,0,0,0,.81.32l.24.1a8.26,8.26,0,0,0,.86.2l.24,0a7.11,7.11,0,0,0,1.14.09l.64,0h.13L19,112l.23,0c.14,0,.27-.05.4-.09l.43-.13.2-.07h0l89.19-32.16L215.28,370a62.48,62.48,0,1,0,103.58,48.28l188.2-68.44h0a.84.84,0,0,1,.14-.06c.19-.08.38-.15.56-.24l.23-.12.43-.24.24-.16.38-.26.11-.1c.15-.12.31-.24.45-.37a.27.27,0,0,1,.07-.08,6.25,6.25,0,0,0,.44-.45l.08-.1c.13-.15.25-.3.37-.46l0-.06a6.49,6.49,0,0,0,.36-.55l.06-.1.28-.53.09-.22c.06-.15.13-.3.18-.45a3,3,0,0,0,.1-.32c0-.12.08-.24.11-.37a5,5,0,0,0,.11-.56l0-.15A7.5,7.5,0,0,0,511.55,340.26ZM293.22,87.13l8.54,23.49-23.49,8.55-8.55-23.49Zm44.46,122.15,8.55,23.49-23.5,8.55-8.55-23.49Zm-89.27,32.49L300.09,223l11.11,30.53a7.47,7.47,0,0,0,9.61,4.48l37.59-13.68a7.49,7.49,0,0,0,4.48-9.61l-11.11-30.53,51.69-18.81,49.6,136.29L303.42,376a63.12,63.12,0,0,0-9.3-8.68ZM121.06,67.31c0-.13-.1-.24-.15-.36s-.09-.23-.15-.34-.11-.2-.16-.3l-.2-.37-.16-.23c-.08-.13-.17-.26-.26-.38l-.15-.18c-.11-.13-.21-.26-.32-.38l-.15-.14c-.12-.13-.24-.25-.37-.37l-.12-.1-.45-.36-.07,0-.53-.35,0,0a7.4,7.4,0,0,0-3.38-1h0c-.24,0-.47,0-.7,0h-.13c-.2,0-.41,0-.61.06s-.19,0-.29.06a3.12,3.12,0,0,0-.44.09,4.91,4.91,0,0,0-.51.15l-.22.07h0L22.25,95,17.11,80.9l89.18-32.17h0a22.52,22.52,0,0,1,28.84,13.45l107,294.07a63.79,63.79,0,0,0-7.2,2.14,62.58,62.58,0,0,0-6.89,3ZM299.41,437.19A47.52,47.52,0,1,1,301,400.87,47.18,47.18,0,0,1,299.41,437.19ZM317.22,403a65.14,65.14,0,0,0-2.13-7.21,63.17,63.17,0,0,0-3-6.89l177.67-64.6,5.13,14.09Z" fill="#061f75"/></svg>