<svg id="Capa_1" data-name="Capa 1" xmlns="http://www.w3.org/2000/svg" viewBox="0 0 512 512"><path d="M125.7,126a10,10,0,1,0,10,10A10,10,0,0,0,125.7,126Z" fill="#061f75"/><path d="M215.69,313h-30V283a10,10,0,0,0-20,0v30h-30a10,10,0,1,0,0,20h30v30a10,10,0,0,0,20,0V333h30a10,10,0,1,0,0-20Z" fill="#061f75"/><path d="M485.58,322A80,80,0,0,0,376.3,292.71l-40.61,23.45V229.32a50.35,50.35,0,0,0-10-30l-50-66.66V104.27a30,30,0,0,0,20-28.27V30a30,30,0,0,0-30-30H85.7a30,30,0,0,0-30,30V76a30.05,30.05,0,0,0,20,28.28v28.38l-50,66.67a50.3,50.3,0,0,0-10,30V423a50.06,50.06,0,0,0,50,50H226.4a79.92,79.92,0,0,0,108.66,28.28l121.24-70A80.06,80.06,0,0,0,485.58,322ZM75.7,30a10,10,0,0,1,10-10h180a10,10,0,0,1,10,10V76a10,10,0,0,1-10,10H85.7a10,10,0,0,1-10-10V30Zm-34,181.32L93.7,142a10,10,0,0,0,2-6V106h160v20h-90a10,10,0,1,0,0,20h95l49,65.33A30.25,30.25,0,0,1,315.47,226H35.91A30.25,30.25,0,0,1,41.7,211.32ZM65.7,453a30,30,0,0,1-30-30v-10.1H217.38a80.16,80.16,0,0,0,.48,40.1Zm159.52-60H35.7V246h280V327.7l-60.62,35A79.41,79.41,0,0,0,225.22,393Zm99.85,90.95a60,60,0,1,1-60-103.91l54.28-31.34,60,103.92Zm121.23-70L396.66,442.6l-60-103.92L386.3,310a60,60,0,0,1,60,103.92Z" fill="#061f75"/></svg>