<svg id="Online_Store" data-name="Online Store" xmlns="http://www.w3.org/2000/svg" viewBox="0 0 512 512"><path d="M227.26,375.74a19.62,19.62,0,1,1,19.62-19.61A19.63,19.63,0,0,1,227.26,375.74Zm0-22.71a3.11,3.11,0,0,0-3.11,3.1c0,3.41,6.21,3.41,6.21,0A3.1,3.1,0,0,0,227.26,353ZM301,375.74a19.62,19.62,0,1,1,19.61-19.61A19.62,19.62,0,0,1,301,375.74ZM301,353a3.1,3.1,0,0,0-3.1,3.1c0,3.41,6.2,3.41,6.2,0A3.1,3.1,0,0,0,301,353ZM362.8,187.39a19.06,19.06,0,0,0-15.24-7.51H159.91L155,161.6a21.25,21.25,0,0,0-20.52-15.76H122.19a8.26,8.26,0,0,0,0,16.51H134.5a4.75,4.75,0,0,1,4.57,3.51l39.44,147.49a24.77,24.77,0,0,0,23.91,18.35H334.81a8.26,8.26,0,1,0,0-16.51H202.42a8.26,8.26,0,0,1-8-6.1l-3-11.26H315.76a33.15,33.15,0,0,0,32-24.55l18.41-69.22a19.12,19.12,0,0,0-3.34-16.67Zm-13.1,10.06a2.65,2.65,0,0,1,.47,2.37L342,230.6H313l4.6-34.2h30a2.67,2.67,0,0,1,2.14,1ZM296.32,230.6H266V196.4h34.95Zm-46.87-34.2v34.2H219.13l-4.63-34.2Zm-51.62,0,4.63,34.2h-29l-9.16-34.2Zm6.87,50.72,4.63,34.19H187.1l-9.16-34.19Zm16.67,0h28.08v34.19H226ZM266,281.31V247.12h28.12l-4.6,34.19Zm49.79,0h-9.61l4.6-34.19h26.84L331.76,269A16.56,16.56,0,0,1,315.76,281.31ZM139.87,55.86a7.73,7.73,0,0,0-7.74-7.74H47.18a7.74,7.74,0,0,0,0,15.48h84.95A7.74,7.74,0,0,0,139.87,55.86Zm233.32,0a8.26,8.26,0,1,1-8.26-8.26A8.26,8.26,0,0,1,373.19,55.86ZM399,47.6a8.26,8.26,0,1,0,8.26,8.26A8.26,8.26,0,0,0,399,47.6Zm34.07,0a8.26,8.26,0,1,0,8.26,8.26A8.26,8.26,0,0,0,433.07,47.6ZM506,408.48l-25.33-21.35c0-.51.1-1,.1-1.52V63a45.14,45.14,0,0,0-45-45H45A45.14,45.14,0,0,0,0,63V385.61a45.14,45.14,0,0,0,45,45h346.7v30.93a17,17,0,0,0,27.83,13.05l15.47-12.85,8.61,18.5a23.6,23.6,0,0,0,13.4,12.34,23.92,23.92,0,0,0,8.18,1.45,23.79,23.79,0,0,0,21.57-33.84l-8.6-18.52L498,438.18a17,17,0,0,0,7.95-29.7ZM16.48,63A28.56,28.56,0,0,1,45,34.49H435.68A28.56,28.56,0,0,1,464.24,63V77.21H16.48ZM391.72,348.66l0,65.43H45a28.56,28.56,0,0,1-28.56-28.48V93.77H464.24V373.32l-44.63-37.63a17,17,0,0,0-27.89,13Zm103.36,73.26-30.34,5.42a8.26,8.26,0,0,0-6,11.61l13.13,28.26a7.22,7.22,0,0,1,.24,5.55,7.42,7.42,0,0,1-3.76,4.12,7.3,7.3,0,0,1-5.58.22,7.16,7.16,0,0,1-4.11-3.77L445.5,445.1a8.27,8.27,0,0,0-5.68-4.58,8.58,8.58,0,0,0-1.81-.2,8.29,8.29,0,0,0-5.27,1.91l-24.47,19.35L409,348.3l86.35,72.8Z" fill="#061f75"/></svg>