<?xml version="1.0" encoding="utf-8"?>
<!-- Generator: Adobe Illustrator 25.0.0, SVG Export Plug-In . SVG Version: 6.00 Build 0)  -->
<svg version="1.1" id="Capa_1" xmlns="http://www.w3.org/2000/svg" xmlns:xlink="http://www.w3.org/1999/xlink" x="0px" y="0px"
	 viewBox="0 0 512 512" style="enable-background:new 0 0 512 512;" xml:space="preserve">
<style type="text/css">
	.st0{fill:none;stroke:#061F75;stroke-width:15;stroke-miterlimit:10;}
</style>
<g>
	<g>
		<polyline class="st0" points="121,293.6 121,226 125.4,226 151.4,255.1 177.2,226 181,226 181,293.6 		"/>
		<g>
			<polyline class="st0" points="248.5,226 211,226 211,285.9 248.5,285.9 			"/>
			<line class="st0" x1="211" y1="256" x2="233.5" y2="256"/>
		</g>
		<g>
			<path class="st0" d="M346,293.5v-44.9c0-12.4,10.1-22.5,22.5-22.5l0,0c12.4,0,22.5,10.1,22.5,22.5v44.9"/>
			<line class="st0" x1="346" y1="271" x2="391" y2="271"/>
		</g>
		<g>
			<line class="st0" x1="263.7" y1="226" x2="323.7" y2="226"/>
			<line class="st0" x1="293.7" y1="226" x2="293.7" y2="293.6"/>
		</g>
	</g>
	<polyline class="st0" points="406,323.5 7.5,323.5 7.5,188.5 504.5,188.5 504.5,323.5 421,323.5 	"/>
	<line class="st0" x1="46" y1="218.5" x2="31" y2="218.5"/>
	<line class="st0" x1="76" y1="218.5" x2="61" y2="218.5"/>
	<path class="st0" d="M49.6,323.5C76.9,404.1,151.9,462.7,241,465.9V323.5"/>
	<path class="st0" d="M241,188.5V46.1c-89.1,3.1-164.1,61.7-191.4,142.4"/>
	<path class="st0" d="M462.4,188.5C435.1,107.9,360.1,49.3,271,46.1v142.4"/>
	<path class="st0" d="M271,323.5v142.4c89.1-3.1,164.1-61.7,191.4-142.4"/>
	<path class="st0" d="M241,135.5c-43.2-3.1-82.8-19.2-114.9-44.5"/>
	<path class="st0" d="M385.9,91c-32.1,25.3-71.7,41.4-114.9,44.5"/>
	<path class="st0" d="M271,376.5c43.2,3,82.9,19.2,114.9,44.5"/>
	<path class="st0" d="M126.1,421c32.1-25.3,71.7-41.4,115-44.5"/>
	<path class="st0" d="M241,464.4c-46.1-10.1-84.1-66-98.7-140.9"/>
	<path class="st0" d="M369.7,323.5c-14.5,74.9-52.5,130.8-98.7,140.9"/>
	<path class="st0" d="M271,47.6c46.1,10.1,84.1,66,98.7,140.9"/>
	<path class="st0" d="M142.3,188.5c14.5-74.9,52.5-130.8,98.7-140.9"/>
	<circle class="st0" cx="436" cy="23.5" r="15"/>
	<circle class="st0" cx="489.5" cy="76" r="15"/>
	<polyline class="st0" points="436,38.5 436,76 408.2,103.8 	"/>
	<polyline class="st0" points="489.5,91 489.5,121 450.1,160.4 	"/>
	<circle class="st0" cx="76" cy="23.5" r="15"/>
	<circle class="st0" cx="22.5" cy="76" r="15"/>
	<polyline class="st0" points="76,38.5 76,76 103.8,103.8 	"/>
	<polyline class="st0" points="22.5,91 22.5,121 61.9,160.4 	"/>
	<circle class="st0" cx="436" cy="488.5" r="15"/>
	<circle class="st0" cx="489.5" cy="436" r="15"/>
	<polyline class="st0" points="436,473.5 436,436 408.2,408.2 	"/>
	<polyline class="st0" points="489.5,421 489.5,391 450.1,351.6 	"/>
	<circle class="st0" cx="76" cy="488.5" r="15"/>
	<circle class="st0" cx="22.5" cy="436" r="15"/>
	<polyline class="st0" points="76,473.5 76,436 103.8,408.2 	"/>
	<polyline class="st0" points="22.5,421 22.5,391 61.9,351.6 	"/>
</g>
</svg>
