<svg id="line" xmlns="http://www.w3.org/2000/svg" viewBox="0 0 64 64"><path d="M45.43,47a1,1,0,0,0-1,1h0v8a2,2,0,0,1-2,2H16.52a2,2,0,0,1-2-2V8a2,2,0,0,1,2-2h5.23l.78,2.32a1,1,0,0,0,.95.68h12a1,1,0,0,0,.94-.68L37.2,6h5.23a2,2,0,0,1,2,2v8a1,1,0,0,0,2,0V8a4,4,0,0,0-4-4H16.52a4,4,0,0,0-4,4V56a4,4,0,0,0,4,4H42.43a4,4,0,0,0,4-4V48a1,1,0,0,0-1-1ZM35.09,6l-.34,1H24.2l-.34-1Z" fill="#061f75"/><path d="M25.48,54a1,1,0,0,0,0,2h8a1,1,0,0,0,0-2Z" fill="#061f75"/><path d="M37.76,22a3,3,0,0,0-3-3H28.48a3,3,0,0,0-3,3v6.29a3,3,0,0,0,3,3h6.28a3,3,0,0,0,3-3Zm-2,6.29a1,1,0,0,1-1,1H28.48a1,1,0,0,1-1-1V22a1,1,0,0,1,1-1h6.28a1,1,0,0,1,1,1Z" fill="#061f75"/><path d="M48.48,19H42.19a3,3,0,0,0-3,3v6.29a3,3,0,0,0,3,3h6.29a3,3,0,0,0,3-3V22A3,3,0,0,0,48.48,19Zm1,9.29a1,1,0,0,1-1,1H42.19a1,1,0,0,1-1-1V22a1,1,0,0,1,1-1h6.29a1,1,0,0,1,1,1Z" fill="#061f75"/><path d="M37.76,42V35.71a3,3,0,0,0-3-3H28.48a3,3,0,0,0-3,3V42a3,3,0,0,0,3,3h6.28A3,3,0,0,0,37.76,42ZM27.48,42V35.71a1,1,0,0,1,1-1h6.28a1,1,0,0,1,1,1V42a1,1,0,0,1-1,1H28.48A1,1,0,0,1,27.48,42Z" fill="#061f75"/><path d="M48.48,32.71H42.19a3,3,0,0,0-3,3V42a3,3,0,0,0,3,3h6.29a3,3,0,0,0,3-3V35.71A3,3,0,0,0,48.48,32.71Zm1,9.29a1,1,0,0,1-1,1H42.19a1,1,0,0,1-1-1V35.71a1,1,0,0,1,1-1h6.29a1,1,0,0,1,1,1Z" fill="#061f75"/></svg>