<?xml version="1.0" encoding="utf-8"?>
<!-- Generator: Adobe Illustrator 25.0.0, SVG Export Plug-In . SVG Version: 6.00 Build 0)  -->
<svg version="1.1" id="Layer_1" xmlns="http://www.w3.org/2000/svg" xmlns:xlink="http://www.w3.org/1999/xlink" x="0px" y="0px"
	 viewBox="0 0 512 512" style="enable-background:new 0 0 512 512;" xml:space="preserve">
<style type="text/css">
	.st0{fill:#061F75;}
</style>
<g id="payment_gateway_x2C__security_x2C__phone_x2C__mobile_x2C__check_mark">
	<g>
		<g>
			<g>
				<g>
					<g>
						<g>
							<g>
								<path class="st0" d="M200,64h80c4.4,0,8-3.6,8-8s-3.6-8-8-8h-80c-4.4,0-8,3.6-8,8S195.6,64,200,64z"/>
							</g>
						</g>
					</g>
				</g>
			</g>
		</g>
		<g>
			<g>
				<g>
					<g>
						<g>
							<g>
								<path class="st0" d="M232,464h16c4.4,0,8-3.6,8-8s-3.6-8-8-8h-16c-4.4,0-8,3.6-8,8S227.6,464,232,464z"/>
							</g>
						</g>
					</g>
				</g>
			</g>
		</g>
		<g>
			<g>
				<g>
					<g>
						<path class="st0" d="M328,496H152c-22.1,0-40-17.9-40-40V56c0-22.1,17.9-40,40-40h176c13.8,0,26.5,7,33.9,18.8
							c2.3,3.7,1.2,8.7-2.5,11c-3.7,2.4-8.7,1.2-11-2.5c-4.4-7.1-12-11.3-20.4-11.3H152c-13.2,0-24,10.8-24,24v400
							c0,13.2,10.8,24,24,24h176c13.2,0,24-10.8,24-24V280c0-4.4,3.6-8,8-8s8,3.6,8,8v176C368,478.1,350.1,496,328,496z"/>
					</g>
				</g>
			</g>
		</g>
	</g>
	<g>
		<g>
			<g>
				<g>
					<g>
						<g>
							<path class="st0" d="M304.3,360c0,4.4-3.6,8-8,8h-48c-4.4,0-8-3.6-8-8s3.6-8,8-8h48C300.7,352,304.3,355.6,304.3,360z"/>
						</g>
					</g>
				</g>
			</g>
		</g>
		<g>
			<g>
				<g>
					<g>
						<g>
							<path class="st0" d="M336.3,328c0,4.4-3.6,8-8,8h-80c-4.4,0-8-3.6-8-8s3.6-8,8-8h80C332.7,320,336.3,323.6,336.3,328z"/>
						</g>
					</g>
				</g>
			</g>
		</g>
		<g>
			<g>
				<g>
					<g>
						<g>
							<path class="st0" d="M336.3,296c0,4.4-3.6,8-8,8h-80c-4.4,0-8-3.6-8-8s3.6-8,8-8h80C332.7,288,336.3,291.6,336.3,296z"/>
						</g>
					</g>
				</g>
			</g>
		</g>
		<g>
			<g>
				<g>
					<g>
						<g>
							<g>
								<g>
									<path class="st0" d="M184,384c22.4,0,40-17.6,40-40c0-18.2-12.3-31.4-36.7-39.3l-1.8-0.6c-9.1-3-17.5-7-17.5-16.1
										c0-9.4,6.6-16,16-16c11.3,0,18.8,6,18.8,6.1c3.4,2.8,8.4,2.4,11.3-1c2.8-3.4,2.4-8.4-1-11.3c-0.5-0.4-11.9-9.9-29.2-9.9
										c-18.3,0-32,13.8-32,32c0,22,21.5,29,28.6,31.3l1.8,0.6c17.3,5.6,25.6,13.5,25.6,24.1c0,13.7-10.3,24-24,24
										c-14.8,0-23.3-9.8-25.6-12.8c-2.7-3.6-7.7-4.2-11.2-1.6c-3.6,2.7-4.3,7.7-1.6,11.2C149,369.3,161.7,384,184,384L184,384z"
										/>
								</g>
							</g>
						</g>
					</g>
				</g>
			</g>
			<g>
				<g>
					<g>
						<g>
							<g>
								<g>
									<path class="st0" d="M184,400c4.4,0,8-3.6,8-8v-8c0-4.4-3.6-8-8-8s-8,3.6-8,8v8C176,396.4,179.6,400,184,400z"/>
								</g>
							</g>
						</g>
					</g>
				</g>
			</g>
			<g>
				<g>
					<g>
						<g>
							<g>
								<g>
									<path class="st0" d="M184,264c4.4,0,8-3.6,8-8v-8c0-4.4-3.6-8-8-8s-8,3.6-8,8v8C176,260.4,179.6,264,184,264z"/>
								</g>
							</g>
						</g>
					</g>
				</g>
			</g>
		</g>
	</g>
	<g>
		<g>
			<g>
				<g>
					<g>
						<g>
							<g>
								<g>
									<g>
										<g>
											<path class="st0" d="M336.5,192c-0.1,0-0.1,0-0.2,0c-2.3-0.1-4.5-1.1-6-2.9l-40-48c-2.8-3.4-2.4-8.4,1-11.3
												c3.4-2.8,8.4-2.4,11.3,1l34.1,41l81.8-89.2c3-3.3,8.1-3.5,11.3-0.5c3.2,3,3.5,8,0.5,11.3l-88,96
												C340.8,191.1,338.7,192,336.5,192L336.5,192z"/>
										</g>
									</g>
								</g>
							</g>
						</g>
					</g>
				</g>
			</g>
		</g>
		<g>
			<g>
				<g>
					<g>
						<g>
							<g>
								<path class="st0" d="M336,256c-52.9,0-96-43.1-96-96s43.1-96,96-96c17,0,33.7,4.5,48.4,13.1c3.8,2.2,5.1,7.1,2.9,10.9
									c-2.3,3.8-7.2,5.1-10.9,2.9C364.1,83.7,350.2,80,336,80c-44.1,0-80,35.9-80,80s35.9,80,80,80c44.1,0,80-35.9,80-80
									c0-5.8-0.6-11.6-1.8-17.2c-1-4.3,1.8-8.6,6.1-9.5c4.4-0.9,8.6,1.8,9.5,6.1c1.5,6.8,2.2,13.6,2.2,20.6
									C432,212.9,388.9,256,336,256L336,256z"/>
							</g>
						</g>
					</g>
				</g>
			</g>
		</g>
	</g>
</g>
</svg>
