<?xml version="1.0" encoding="utf-8"?>
<!-- Generator: Adobe Illustrator 25.0.0, SVG Export Plug-In . SVG Version: 6.00 Build 0)  -->
<svg version="1.1" id="Layer_1" xmlns="http://www.w3.org/2000/svg" xmlns:xlink="http://www.w3.org/1999/xlink" x="0px" y="0px"
	 viewBox="0 0 480 480" style="enable-background:new 0 0 480 480;" xml:space="preserve">
<style type="text/css">
	.st0{fill:#061F75;}
</style>
<path class="st0" d="M456,208H24c-13.2,0-24,10.8-24,24v208c0,13.2,10.8,24,24,24h432c13.2,0,24-10.8,24-24V232
	C480,218.7,469.2,208,456,208z M456,448H24c-4.4,0-8-3.6-8-8v-96l112,0v-16l-112,0v-96c0-4.4,3.6-8,8-8h432c4.4,0,8,3.6,8,8v96
	l-112,0v16l112,0v96C464,444.4,460.4,448,456,448z"/>
<path class="st0" d="M192,168c0-1.6,0.6-39.8,47.8-40l0.2,0l0.3,0c46,0.1,47.7,35.9,47.8,40v24h16v-24c-0.8-22-14-41.6-34-50.6
	c15.9-12.8,22-34.1,15.2-53.4c-6.8-19.2-24.9-32.1-45.3-32.1c-20.4,0-38.5,12.9-45.3,32.1s-0.6,40.6,15.3,53.4
	c-20,9-33.2,28.6-34,50.6v24h16V168z M208,80c0-17.7,14.3-32,31.9-32c17.7,0,32,14.2,32.1,31.9c0.1,17.7-14.2,32-31.8,32.1l-0.1,0
	l-0.2,0C222.2,111.9,208,97.6,208,80z"/>
<path class="st0" d="M240,240c-53,0-96,43-96,96s43,96,96,96s96-43,96-96C335.9,283,293,240.1,240,240z M240,416
	c-44.2,0-80-35.8-80-80s35.8-80,80-80s80,35.8,80,80C319.9,380.2,284.1,415.9,240,416z"/>
<path class="st0" d="M48,192h104v-80H48c-9.5,0-18.1,5.5-21.9,14.2S23.8,145,30.2,152c-6.4,7-8,17.1-4.2,25.8S38.5,192,48,192z
	 M136,176H48c-4.4,0-8-3.6-8-8s3.6-8,8-8h88V176z M48,128h88v16H48c-4.4,0-8-3.6-8-8S43.5,128,48,128z"/>
<path class="st0" d="M336,184c0-4.4,3.6-8,8-8h112c4.4,0,8,3.6,8,8v8h16v-8c0-13.2-10.8-24-24-24h-48v-16h48c13.2,0,24-10.8,24-24
	V40c0-13.2-10.8-24-24-24H344c-13.2,0-24,10.8-24,24v80c0,13.2,10.8,24,24,24h48v16h-48c-13.2,0-24,10.8-24,24v8h16V184z M336,120
	V40c0-4.4,3.6-8,8-8h112c4.4,0,8,3.6,8,8v80c0,4.4-3.6,8-8,8h-17.5c0.9-2.6,1.4-5.3,1.5-8V88c0-13.2-10.8-24-24-24h-32
	c-13.2,0-24,10.8-24,24v32c0,2.7,0.5,5.4,1.5,8H344C339.5,128,336,124.4,336,120z M384,128c-4.4,0-8-3.6-8-8V88c0-4.4,3.6-8,8-8h32
	c4.4,0,8,3.6,8,8v32c0,4.4-3.6,8-8,8h-8v-24h-16v24H384z"/>
<path class="st0" d="M280,312v-8c0-8.8-7.2-16-16-16h-16v-16h-16v16h-16c-8.8,0-16,7.2-16,16v24c0,8.8,7.2,16,16,16h16v24h-16v-8
	h-16v8c0,8.8,7.2,16,16,16h16v16h16v-16h16c8.8,0,16-7.2,16-16v-24c0-8.8-7.2-16-16-16h-16v-24h16v8H280z M264,344v24h-16v-24H264z
	 M232,328h-16v-24h16V328z"/>
</svg>
