<?xml version="1.0" encoding="utf-8"?>
<!-- Generator: Adobe Illustrator 25.0.0, SVG Export Plug-In . SVG Version: 6.00 Build 0)  -->
<svg version="1.1" id="Capa_1" xmlns="http://www.w3.org/2000/svg" xmlns:xlink="http://www.w3.org/1999/xlink" x="0px" y="0px"
	 viewBox="0 0 512 512" style="enable-background:new 0 0 512 512;" xml:space="preserve">
<style type="text/css">
	.st0{fill:none;stroke:#061F75;stroke-width:15;stroke-linecap:round;stroke-linejoin:round;stroke-miterlimit:10;}
</style>
<g>
	<line class="st0" x1="282.1" y1="129" x2="124" y2="129"/>
	<path class="st0" d="M89,129H32.5c-13.8,0-25,11.2-25,25v85.6c0,13.8,11.2,25,25,25h211.9"/>
	<g>
		<g>
			<g>
				<path class="st0" d="M46.2,236.1v-78.7h32.4c6.4,0,11.5,5.4,11.5,12v15.4c0,6.6-5.2,12-11.5,12H46.2"/>
			</g>
			<g>
				<polyline class="st0" points="159.2,236.1 132.1,157.5 132.1,157.5 104.9,236.1 				"/>
				<line class="st0" x1="115.2" y1="213" x2="148.2" y2="213"/>
			</g>
			<g>
				<polyline class="st0" points="166.8,157.5 194,200.2 221.2,157.5 				"/>
				<line class="st0" x1="194" y1="200.2" x2="194" y2="236.1"/>
			</g>
		</g>
	</g>
	<g>
		<g>
			<path class="st0" d="M378.2,359.5c31.8-1.5,63.1-14.4,87.4-38.7c27.7-27.7,40.6-64.6,38.7-100.9"/>
			<path class="st0" d="M465.6,133c-36.2-36.2-88-47.1-133.7-32.8"/>
			<path class="st0" d="M300.2,115.1c-7.9,5.1-15.4,11.1-22.3,18c-43.3,43.3-50.4,109.1-21.4,159.8"/>
			<polyline class="st0" points="429.7,138.1 467,134.3 463.1,97 			"/>
		</g>
		<polyline class="st0" points="371.8,141.4 371.8,226.9 430.2,269.9 		"/>
	</g>
	<g>
		<path class="st0" d="M267,417.8h86.2c13.8,0,25-11.2,25-25v-75c0-13.8-11.2-25-25-25H32.5c-13.8,0-25,11.2-25,25v75
			c0,13.8,11.2,25,25,25H232"/>
		<g>
			<g>
				<g>
					<line class="st0" x1="186.6" y1="390.1" x2="186.6" y2="320.5"/>
					<line class="st0" x1="208" y1="320.5" x2="165.2" y2="320.5"/>
				</g>
			</g>
			<g>
				<polyline class="st0" points="157.6,390.1 133.6,320.5 133.6,320.5 109.5,390.1 				"/>
				<line class="st0" x1="118.7" y1="369.6" x2="147.9" y2="369.6"/>
			</g>
			<g>
				<path class="st0" d="M47.3,355.3"/>
				<polyline class="st0" points="47.3,320.5 47.3,390.1 87.7,390.1 				"/>
			</g>
			<g>
				<path class="st0" d="M298,390.1v-69.6h29.8c5.9,0,10.6,4.7,10.6,10.6v13.6c0,5.9-4.7,10.6-10.6,10.6H298"/>
				<line class="st0" x1="319.1" y1="355.3" x2="338.4" y2="390.1"/>
			</g>
			<g>
				<polyline class="st0" points="271.9,320.5 231.5,320.5 231.5,390.1 271.9,390.1 				"/>
				<line class="st0" x1="232.2" y1="355.3" x2="271.9" y2="355.3"/>
			</g>
		</g>
	</g>
</g>
</svg>
