<svg id="Layer_5" data-name="Layer 5" xmlns="http://www.w3.org/2000/svg" viewBox="0 0 512 512"><path d="M480,312H400a24,24,0,0,0-24,24V480a24,24,0,0,0,24,24h80a24,24,0,0,0,24-24V336A24,24,0,0,0,480,312Zm-80,16h80a8,8,0,0,1,8,8v8H392v-8A8,8,0,0,1,400,328Zm88,32v96H392V360Zm-8,128H400a8,8,0,0,1-8-8v-8h96v8A8,8,0,0,1,480,488Zm-77.66-66.34,11.32-11.32L424,420.69l42.34-42.35,11.32,11.32L424,443.31ZM88,344a80,80,0,1,0,80,80A80.09,80.09,0,0,0,88,344Zm63.45,88a63.65,63.65,0,0,1-12.95,31.18l-10.9-10.9-11.31,11.31,10.89,10.9A63.55,63.55,0,0,1,96,487.44V472H80v15.45A63.65,63.65,0,0,1,48.82,474.5l10.89-10.9L48.4,452.28l-10.9,10.9A63.65,63.65,0,0,1,24.55,432H40V416H24.55a63.65,63.65,0,0,1,13-31.18l10.9,10.9,11.31-11.31-10.89-10.9A63.55,63.55,0,0,1,80,360.56V376H96V360.55a63.65,63.65,0,0,1,31.18,12.95l-10.89,10.9,11.31,11.31,10.9-10.9A63.69,63.69,0,0,1,151.45,416H136v16h15.45ZM96,420.69l13.66,13.65L98.34,445.66,80,427.31V392H96ZM480,8H304a24,24,0,0,0-24,24v96a24,24,0,0,0,24,24H480a24,24,0,0,0,24-24V32A24,24,0,0,0,480,8ZM304,24H480a8,8,0,0,1,8,8v8H296V32A8,8,0,0,1,304,24ZM480,136H304a8,8,0,0,1-8-8V56H488v72A8,8,0,0,1,480,136Zm-56-16h48V72H424Zm16-32h16v16H440Zm-96,16h16v16H344Zm32,0h16v16H376Zm-64,0h16v16H312Zm0-32h80V88H312ZM280,238.83V240H264v-1.17a6.84,6.84,0,0,0-6.83-6.83h-2.34a6.83,6.83,0,0,0-3.05,12.94l15.6,7.8a22.75,22.75,0,0,1-3.38,42.1V312H248V294.84a22.79,22.79,0,0,1-16-21.67V264h16v9.17a6.84,6.84,0,0,0,6.83,6.83h2.34a6.83,6.83,0,0,0,3.05-12.94l-15.6-7.8a22.75,22.75,0,0,1,3.38-42.1V200h16v17.16a22.79,22.79,0,0,1,16,21.67Zm8,99.06A88.12,88.12,0,0,0,343.59,264H400V168H384v80H343.59a87.82,87.82,0,0,0-131.13-68.38A24,24,0,0,0,200,169.47V104h16V84.21L131.26,14.86C120.42,6,103.59,6,92.74,14.86L8,84.21V104H24v65.47A24,24,0,0,0,8,192v24H177.71a87.32,87.32,0,0,0-9.31,32H112V232H96v32h72.41A88.12,88.12,0,0,0,224,337.89V416H184v16h56V342.47a84.43,84.43,0,0,0,32,0V416h88V400H288ZM184,168H168V104h16ZM88,104v64H72V104Zm16,0h16v64H104Zm32,0h16v64H136ZM102.87,27.26a14.81,14.81,0,0,1,18.26,0L195.37,88H28.63ZM56,104v64H40V104ZM24,200v-8a8,8,0,0,1,8-8H192a8,8,0,0,1,7.31,4.8A89.21,89.21,0,0,0,188.18,200Zm160,56a72,72,0,1,1,72,72A72.08,72.08,0,0,1,184,256Z" fill="#061f75"/></svg>