<svg height="512" viewBox="0 0 512 512" width="512" xmlns="http://www.w3.org/2000/svg"><g id="Outline"><g id="Plugins-Ads-on-website"><path d="m456 80h-400a40.045 40.045 0 0 0 -40 40v272a40.045 40.045 0 0 0 40 40h400a40.045 40.045 0 0 0 40-40v-272a40.045 40.045 0 0 0 -40-40zm-400 16h400a24.028 24.028 0 0 1 24 24v24h-448v-24a24.028 24.028 0 0 1 24-24zm400 320h-400a24.028 24.028 0 0 1 -24-24v-232h448v232a24.028 24.028 0 0 1 -24 24z"/><path d="m64 112h16v16h-16z"/><path d="m96 112h16v16h-16z"/><path d="m128 112h16v16h-16z"/><path d="m256 112h192v16h-192z"/><path d="m338.343 210.344-35.255 35.263-20.688-20.687 35.255-35.264-11.314-11.312-35.255 35.263-17.945-17.946a8 8 0 0 0 -11.315 0l-39.6 39.6a63.98 63.98 0 0 0 -5.295 84.491l-66.592 66.592 11.314 11.314 66.592-66.592a63.98 63.98 0 0 0 84.491-5.3l39.6-39.6a8 8 0 0 0 0-11.315l-17.936-17.931 35.255-35.264zm-56.917 104.112a48 48 0 0 1 -67.881 0 48 48 0 0 1 0-67.881l10.855-10.858 57.941 57.94 11.314-11.314-57.939-57.943 11.769-11.77 67.883 67.883z"/></g></g></svg>