<svg id="Layer_1" data-name="Layer 1" xmlns="http://www.w3.org/2000/svg" viewBox="0 0 512 512"><g id="Outline"><g id="Plugins-Ads-on-website"><path d="M456,80H56a40,40,0,0,0-40,40V392a40,40,0,0,0,40,40H456a40,40,0,0,0,40-40V120A40,40,0,0,0,456,80ZM56,96H456a24,24,0,0,1,24,24v24H32V120A24,24,0,0,1,56,96ZM456,416H56a24,24,0,0,1-24-24V160H480V392A24,24,0,0,1,456,416Z" fill="#061f75"/><path d="M64,112H80v16H64Z" fill="#061f75"/><path d="M96,112h16v16H96Z" fill="#061f75"/><path d="M128,112h16v16H128Z" fill="#061f75"/><path d="M256,112H448v16H256Z" fill="#061f75"/><path d="M338.34,210.34l-35.25,35.27L282.4,224.92l35.25-35.26-11.31-11.32-35.25,35.27-17.95-18a8,8,0,0,0-11.31,0h0l-39.6,39.6a64,64,0,0,0-5.3,84.49l-66.59,66.59,11.31,11.32,66.59-66.59a64,64,0,0,0,84.5-5.3l39.6-39.6a8,8,0,0,0,0-11.32h0L314.4,256.92l35.25-35.26ZM281.43,314.46a48,48,0,0,1-67.89-67.89l10.86-10.85,57.94,57.94,11.31-11.32L235.72,224.4l11.77-11.77,67.88,67.88Z" fill="#061f75"/></g></g></svg>