<svg id="Layer_1_1_" enable-background="new 0 0 64 64" height="512" viewBox="0 0 64 64" width="512" xmlns="http://www.w3.org/2000/svg"><path d="m42 16c0-5.514-4.486-10-10-10s-10 4.486-10 10 4.486 10 10 10 10-4.486 10-10zm-18 0c0-4.411 3.589-8 8-8s8 3.589 8 8-3.589 8-8 8-8-3.589-8-8z"/><path d="m37 20v-8c0-.552-.448-1-1-1h-8c-.552 0-1 .448-1 1v8c0 .552.448 1 1 1h8c.552 0 1-.448 1-1zm-2-1h-6v-6h2v2h2v-2h2z"/><path d="m6.888 53.563c-.183-.318-.499-.517-.893-.502-.367.009-.7.219-.866.546l-3.251 6.393c-.151.298-.144.652.02.943s.463.482.796.507l7.23.546c.026.003.051.004.076.004.342 0 .662-.175.846-.466.198-.313.206-.71.022-1.031l-1.525-2.658 16.609-9.374c1.588.951 3.695 1.529 6.048 1.529 2.36 0 4.474-.582 6.063-1.539l16.607 9.312-1.535 2.641c-.185.319-.18.714.014 1.028.183.296.506.475.851.475.021 0 .041 0 .062-.002l7.197-.443c.333-.021.635-.207.803-.496s.18-.643.033-.943l-3.177-6.473c-.162-.331-.494-.546-.862-.559-.376-.027-.714.178-.9.497l-1.48 2.546-15.946-8.941c.804-.901 1.27-1.958 1.27-3.103 0-1.16-.487-2.27-1.389-3.228l15.97-9.006 1.532 2.67c.179.312.51.502.868.502h.029c.369-.011.701-.224.866-.554l3.215-6.455c.149-.299.139-.653-.027-.943-.167-.29-.467-.478-.8-.5l-7.195-.485c-.38-.027-.72.154-.916.467s-.203.708-.02 1.028l1.453 2.534-16.696 9.416c-.529-.3-1.108-.557-1.725-.768 1.953-2.799 3.959-5.69 5.659-8.735 2.849-5.115 4.176-9.48 4.176-13.735 0-7.935-6.277-14.39-13.994-14.39-7.71 0-13.993 6.455-14.006 14.39 0 4.47 1.276 8.845 4.017 13.771 1.693 3.034 3.738 5.925 5.744 8.726-.598.21-1.156.461-1.665.75l-16.694-9.353 1.463-2.517c.185-.317.18-.71-.012-1.024-.191-.313-.528-.49-.906-.477l-7.162.381c-.334.018-.637.201-.807.489s-.186.642-.041.943l3.142 6.535c.161.334.492.552.862.566.013.002.026.002.039.002.355 0 .685-.189.865-.498l1.552-2.67 15.979 8.953c-.892.952-1.376 2.057-1.376 3.215 0 1.151.471 2.212 1.281 3.116l-15.933 8.993zm-2.547 6.006 1.732-3.406 2.121 3.698zm53.605-3.451 1.693 3.449-3.835.236zm1.685-27.736-1.713 3.439-2.121-3.698zm-53.568 3.484-1.673-3.482 3.816-.203zm17.702-2.861c-2.569-4.615-3.765-8.681-3.765-12.796.011-6.833 5.397-12.391 12.006-12.391 6.614 0 11.994 5.558 11.994 12.39 0 3.901-1.247 7.956-3.923 12.761-1.7 3.045-3.745 5.975-5.722 8.809-.824 1.181-1.615 2.314-2.364 3.43-.735-1.058-1.496-2.119-2.238-3.156-2.089-2.914-4.249-5.927-5.988-9.047zm2.904 12.434c.637-.43 1.429-.776 2.309-1.028.757 1.06 1.494 2.102 2.199 3.148.185.274.493.438.823.44v.001h.006.003.006c.111-.001.217-.027.319-.063.03-.01.057-.021.086-.034.097-.044.188-.098.266-.171.003-.003.008-.004.012-.008l.01-.01-.004-.004c.051-.051.1-.105.14-.167.664-1.025 1.384-2.076 2.126-3.146.885.245 1.69.592 2.342 1.027 1.089.747 1.688 1.662 1.688 2.576 0 2.168-3.206 4-7 4s-7-1.832-7-4c0-.912.595-1.823 1.669-2.561z"/></svg>