<svg id="Layer_1" data-name="Layer 1" xmlns="http://www.w3.org/2000/svg" viewBox="0 0 512 512"><g id="Outline"><path d="M475.7,490.37V84.77h16.9a8.45,8.45,0,0,0,8.45-8.45V17.17a8.44,8.44,0,0,0-8.45-8.44c-.25,0-.49,0-.74,0L204.56,34.11a8.44,8.44,0,0,0-7.71,8.41v33.8a8.45,8.45,0,0,0,8.45,8.45h16.9V220h16.9V84.77H458.8v405.6H403.43a31.63,31.63,0,0,0,4.67-16.65c0-12.09-6.33-18.46-11-23.11-4.13-4.16-5.95-6.2-5.95-10.94,0-21-11.61-42.25-33.8-42.25s-33.8,21.26-33.8,42.25c0,4.74-1.82,6.78-6,10.94-4.62,4.65-10.95,11-10.95,23.11a31.54,31.54,0,0,0,4.67,16.65H222.2V380.52a8.45,8.45,0,0,0-8.45-8.45h-50.7a8.45,8.45,0,0,0-8.45,8.45V490.37H129.25V341.16l101.4-44.36,101.4,44.36V389H349V348.55l13.51,5.92a8.45,8.45,0,0,0,11.84-7.75V304.47a8.47,8.47,0,0,0-5.06-7.74L234,237.58a8.5,8.5,0,0,0-6.78,0L92.06,296.73A8.47,8.47,0,0,0,87,304.47v42.25a8.45,8.45,0,0,0,8.45,8.45,8.57,8.57,0,0,0,3.39-.7l13.51-5.92V490.37H53.2V346.72H70.1v-16.9H19.4V143.92H205.3V127H149.65L118.33,95.7a8.5,8.5,0,0,0-6-2.48H44.75a8.45,8.45,0,0,0-8.45,8.45V127H11a8.45,8.45,0,0,0-8.45,8.45v202.8A8.45,8.45,0,0,0,11,346.72H36.3V490.37H2.5v16.9h507v-16.9ZM213.75,50.26,484.15,26.4V67.87H213.75ZM103.9,333.8V310l126.75-55.45L357.4,310v23.8L349,330.11v-.29h-.65L234,279.83a8.5,8.5,0,0,0-6.78,0L113,329.82h-.65v.29ZM53.2,110.12h55.65l16.9,16.9H53.2ZM171.5,389h33.8v101.4H171.5Zm169,101.4c-4.65,0-16.9-5.12-16.9-16.65,0-4.91,1.85-7,6-11.21,4.58-4.61,10.86-10.93,10.86-22.84,0-20.05,11.05-25.35,16.9-25.35,13.37,0,16.9,16.59,16.9,25.35,0,11.91,6.28,18.23,10.86,22.84,4.19,4.23,6,6.3,6,11.21,0,11.53-12.25,16.65-16.9,16.65Z" fill="#061f75"/><path d="M247.55,389a8.45,8.45,0,0,0-8.45,8.45v42.25a8.45,8.45,0,0,0,8.45,8.45h50.7a8.45,8.45,0,0,0,8.45-8.45V397.42a8.45,8.45,0,0,0-8.45-8.45Zm42.25,42.25H256V405.87h33.8Z" fill="#061f75"/><rect x="179.95" y="338.27" width="16.9" height="16.9" fill="#061f75"/><path d="M129.25,262.22v-84.5H205.3v-16.9H44.75a8.45,8.45,0,0,0-8.45,8.45v135.2a8.45,8.45,0,0,0,8.45,8.45H70.1V296H53.2V177.72h59.15v84.5Z" fill="#061f75"/><path d="M272.9,177.72h50.7a8.45,8.45,0,0,0,8.45-8.45v-50.7a8.45,8.45,0,0,0-8.45-8.45H272.9a8.45,8.45,0,0,0-8.45,8.45v50.7A8.45,8.45,0,0,0,272.9,177.72Zm8.45-50.7h33.8v33.8h-33.8Z" fill="#061f75"/><path d="M374.3,177.72H425a8.45,8.45,0,0,0,8.45-8.45v-50.7a8.45,8.45,0,0,0-8.45-8.45H374.3a8.45,8.45,0,0,0-8.45,8.45v50.7A8.45,8.45,0,0,0,374.3,177.72Zm8.45-50.7h33.8v33.8h-33.8Z" fill="#061f75"/><path d="M264.45,236.87h16.9V220h33.8v42.25h16.9v-50.7a8.45,8.45,0,0,0-8.45-8.45H272.9a8.45,8.45,0,0,0-8.45,8.45Z" fill="#061f75"/><path d="M365.85,262.22a8.45,8.45,0,0,0,8.45,8.45H425a8.45,8.45,0,0,0,8.45-8.45v-50.7a8.45,8.45,0,0,0-8.45-8.45H374.3a8.45,8.45,0,0,0-8.45,8.45ZM382.75,220h33.8v33.8h-33.8Z" fill="#061f75"/><path d="M391.2,346.72v16.9H425a8.45,8.45,0,0,0,8.45-8.45v-50.7A8.45,8.45,0,0,0,425,296H391.2v16.9h25.35v33.8Z" fill="#061f75"/><rect x="70.1" y="372.07" width="16.9" height="16.9" fill="#061f75"/></g></svg>