<?xml version="1.0" encoding="UTF-8"?>
<svg id="Layer_1" xmlns="http://www.w3.org/2000/svg" version="1.1" viewBox="0 0 485.63 486.39">
  <!-- Generator: Adobe Illustrator 30.5.1, SVG Export Plug-In . SVG Version: 2.1.4 Build 3)  -->
  <defs>
    <style>
      .st0 {
        fill: #061f75;
        stroke: #061f75;
        stroke-miterlimit: 10;
        stroke-width: .75px;
      }
    </style>
  </defs>
  <path class="st0" d="M138.84,312.11c21.86,45.78,63.33,78.6,107.12,102.61,32.39-17.31,61.84-38.64,84.99-67.05,14.28-17.52,24.65-34.63,33.75-55.29l5.18-12.76c5.78-15.69,10.2-31.73,13.29-48.21,2.33-12.41,3.61-24.61,4.6-37.19,1.29-16.44,1.39-32.63.82-49.12l-1.96-26.51-19.38-1.56c-34.69-3.98-66.08-12.78-96.89-29.34-8.21-4.41-15.84-9.37-23.65-14.8-41.69,29.35-89.19,43.08-139.99,45.69-1.49,13.68-2.25,27.48-2.22,41.08.01,4.86-2.59,8.98-6.03,11.55-4.1,3.07-9.12,3.63-13.72,2.07-6.55-2.22-10.14-8.04-10.09-14.83.1-12.42.66-24.49,1.85-36.88.64-6.66,1.13-12.99,2.34-19.48,1.38-7.37,8.09-11.94,15.29-12.33l7.78-.42c26.61-1.43,52.93-6,78.1-15.05,20.54-7.38,39.57-17.99,56.97-31.03,6.17-4.63,14.19-4.18,20.16.45,32.05,24.86,70.82,38.49,110.88,43.49,10.8,1.35,20.99,2.09,31.87,2.58,6.45.29,13.29,5.05,14.3,11.8,4.04,26.88,4.84,53.83,3.94,80.98-.4,12.19-1.65,23.98-3.02,36.03l-2.96,18.49-5.33,23.87c-7.29,28-18.84,56.04-34.56,80.42-13.75,21.32-30.24,40.5-49.42,57.17-17.51,15.2-36.71,28.3-57.02,39.37l-11.42,6.22c-5.16,2.81-11.3,3.05-16.49.17l-16.48-9.17c-30.9-17.98-60.27-41.05-82.97-68.84-12.42-15.21-22.68-31.98-30.25-50.13-6.16-14.77-10.05-30.27-12.32-46.02-.04-.28-.05-.49-.13-.47l-.52.15-26.04,6.09c-1.65.39-3.19-.12-4.18-1.31s-1.38-3.02-.42-4.55l33.05-52.89,9.46-15c.76-1.2,2.44-1.6,3.75-1.48s2.35.93,3.16,2.24l26.35,42.05,15.42,24.77c.86,1.39.86,3.05.03,4.45-.55.93-2.12,2.16-3.63,1.83l-16.54-3.66-9.68-2.18c2.33,14.58,6.45,28.61,12.8,41.92Z"/>
  <path class="st0" d="M257.86,344.66c0,.85-.73,2.24-1.52,2.24l-20.78-.04c-.86.05-1.9-.71-1.9-1.7l-.05-19.45c-9.35-1.28-18.24-4.24-26.19-9.2-8.49-5.3-14.54-12.96-17.9-22.35-1.73-4.82-3.04-9.64-2.92-14.77.03-1.43.84-2.29,2.25-2.29l28.55-.02c1.55,0,2.3.78,2.45,2.31.46,4.58,1.98,8.96,5.2,12.31,3.74,3.89,8.6,6.21,13.93,7.17,7.02,1.26,14.16.78,20.64-1.92,7.76-3.22,11.98-10.57,11.16-18.82-.48-4.88-2.68-8.93-6.74-11.8s-8.25-4.88-12.99-6.3l-19.25-5.76c-6.23-1.87-12.05-4.21-17.8-7.21-5.35-2.8-10.02-6.21-14.21-10.52-9.23-9.5-12.1-22.76-10.43-35.78,1.16-9.02,4.95-17.09,11.17-23.73,8.93-9.21,20.39-14.24,33.08-16.02l-.02-19.21c0-1.17.85-2.01,1.99-2.08l19.64.07c1.38-.27,2.65.61,2.65,2.03v19.11c19.76,2.7,36.5,13.88,42.55,33.37,1.33,4.3,2.15,8.47,2.43,13.01.05.89-.86,1.64-1.77,1.64h-29.77c-.98-.01-1.53-.76-1.61-1.64-.33-3.95-1.24-7.73-3.5-11-6.71-9.71-20.49-10.81-31.23-7.47-7.03,2.19-11.9,7.34-12.61,14.78-.58,5.97,1.75,11.47,6.67,15.05,3.5,2.54,7.36,4.41,11.57,5.66l17.21,5.1c7.43,2.2,14.51,4.59,21.41,8.06,20.16,10.16,28.89,28.31,24.61,50.55-2.39,12.44-9.85,22.96-20.9,29.16-7.5,4.61-16.15,7.08-25.05,8.47l-.03,18.98Z"/>
</svg>