<svg id="svg1476" xmlns="http://www.w3.org/2000/svg" xmlns:xlink="http://www.w3.org/1999/xlink" viewBox="0 0 682.67 682.67"><defs><mask id="mask" x="0" y="0" width="682.67" height="682.67" maskUnits="userSpaceOnUse"><g id="custom"><rect id="bg" width="682.67" height="682.67" fill="#fff"/><path id="path1494" d="M333.33,213.33A13.34,13.34,0,1,1,320,226.67a13.35,13.35,0,0,1,13.33-13.34" fill="#fff"/><path id="path1498" d="M333.33,266.67A13.33,13.33,0,1,1,320,280a13.34,13.34,0,0,1,13.33-13.33" fill="#fff"/></g></mask><clipPath id="clip-path"><rect width="682.67" height="682.67" fill="none"/></clipPath></defs><g mask="url(#mask)"><g id="g1482"><g id="g1484"><g clip-path="url(#clip-path)"><g id="g1486"><g id="g1492"><path id="path1494-2" data-name="path1494" d="M333.33,213.33A13.34,13.34,0,1,1,320,226.67a13.35,13.35,0,0,1,13.33-13.34" fill="#061f75"/></g><g id="g1496"><path id="path1498-2" data-name="path1498" d="M333.33,266.67A13.33,13.33,0,1,1,320,280a13.34,13.34,0,0,1,13.33-13.33" fill="#061f75"/></g><g id="g1500"><path d="M669.33,160H536a13.33,13.33,0,0,1-13.33-13.33V13.33a13.33,13.33,0,1,1,26.66,0v120h120a13.34,13.34,0,1,1,0,26.67Z" fill="#061f75"/></g><g id="g1504"><path d="M482.67,106.67H341.33a13.34,13.34,0,0,1,0-26.67H482.67a13.34,13.34,0,0,1,0,26.67Z" fill="#061f75"/></g><g id="g1508"><path d="M482.67,160H341.33a13.34,13.34,0,0,1,0-26.67H482.67a13.34,13.34,0,0,1,0,26.67Z" fill="#061f75"/></g><g id="g1512"><path d="M146.67,373.33C65.79,373.33,0,307.54,0,226.67S65.79,80,146.67,80A148.21,148.21,0,0,1,176,82.93c68,13.8,117.35,74.25,117.35,143.74S244,356.6,176,370.4A147.47,147.47,0,0,1,146.67,373.33Zm0-266.66a120,120,0,1,0,24,237.6c55.62-11.29,96-60.75,96-117.6s-40.37-106.32-96-117.6A120.48,120.48,0,0,0,146.67,106.67Z" fill="#061f75"/></g><g id="g1516"><path d="M146.67,320a93.44,93.44,0,0,1-93.34-93.33,13.34,13.34,0,1,1,26.67,0,66.74,66.74,0,0,0,66.67,66.66,13.34,13.34,0,0,1,0,26.67Z" fill="#061f75"/></g><g id="g1520"><path d="M280,240H146.67a13.33,13.33,0,0,1-13.34-13.33V93.33a13.34,13.34,0,0,1,26.67,0v120H280A13.34,13.34,0,0,1,280,240Z" fill="#061f75"/></g><g id="g1524"><path d="M642.67,682.67H200a40,40,0,0,1-40-40V357.33a13.34,13.34,0,0,1,26.67,0V642.67A13.35,13.35,0,0,0,200,656H642.67A13.35,13.35,0,0,0,656,642.67V152.19L530.48,26.67H200A13.35,13.35,0,0,0,186.67,40V96A13.34,13.34,0,0,1,160,96V40A40,40,0,0,1,200,0H536a13.3,13.3,0,0,1,9.43,3.91L678.76,137.24a13.34,13.34,0,0,1,3.91,9.43v496A40.05,40.05,0,0,1,642.67,682.67Z" fill="#061f75"/></g><g id="g1528"><path d="M253.33,594.67a40,40,0,1,1,40-40A40.05,40.05,0,0,1,253.33,594.67Zm0-53.34a13.35,13.35,0,1,0,9.43,3.91A13.35,13.35,0,0,0,253.33,541.33Z" fill="#061f75"/></g><g id="g1532"><path d="M354.67,488a39.71,39.71,0,0,1-28.28-11.72h0A40,40,0,1,1,354.67,488Zm-9.43-30.57a13.33,13.33,0,1,0-3.91-9.43A13.24,13.24,0,0,0,345.24,457.43Z" fill="#061f75"/></g><g id="g1536"><path d="M448,594.67a40,40,0,1,1,40-40A40,40,0,0,1,448,594.67Zm0-53.34a13.34,13.34,0,1,0,13.33,13.34A13.25,13.25,0,0,0,448,541.33Z" fill="#061f75"/></g><g id="g1540"><path d="M585.33,434.67a40,40,0,1,1,40-40A40.05,40.05,0,0,1,585.33,434.67Zm0-53.34a13.34,13.34,0,1,0,13.34,13.34A13.35,13.35,0,0,0,585.33,381.33Z" fill="#061f75"/></g><g id="g1544"><path d="M272.18,549.15a13.34,13.34,0,0,1-9.79-22.38l63.62-69a13.34,13.34,0,1,1,19.6,18.09l-63.62,69A13.33,13.33,0,0,1,272.18,549.15Z" fill="#061f75"/></g><g id="g1548"><path d="M429.15,549.15a13.29,13.29,0,0,1-10.38-5l-55.63-69a13.33,13.33,0,0,1,20.76-16.74l55.62,69a13.34,13.34,0,0,1-10.37,21.71Z" fill="#061f75"/></g><g id="g1552"><path d="M462.8,545.81A13.34,13.34,0,0,1,453,523.39L560.78,407.76a13.33,13.33,0,0,1,19.51,18.18L472.55,541.57A13.26,13.26,0,0,1,462.8,545.81Z" fill="#061f75"/></g><g id="g1556"><path d="M589.33,240H386.67a13.34,13.34,0,1,1,0-26.67H589.33a13.34,13.34,0,1,1,0,26.67Z" fill="#061f75"/></g><g id="g1560"><path d="M589.33,293.33H386.67a13.33,13.33,0,1,1,0-26.66H589.33a13.33,13.33,0,1,1,0,26.66Z" fill="#061f75"/></g></g></g></g></g></g></svg>