<?xml version="1.0" encoding="utf-8"?>
<!-- Generator: Adobe Illustrator 25.0.0, SVG Export Plug-In . SVG Version: 6.00 Build 0)  -->
<svg version="1.1" id="Layer_1" xmlns="http://www.w3.org/2000/svg" xmlns:xlink="http://www.w3.org/1999/xlink" x="0px" y="0px"
	 viewBox="0 0 512 512" style="enable-background:new 0 0 512 512;" xml:space="preserve">
<style type="text/css">
	.st0{fill:#061F75;}
</style>
<g id="Outline">
	<path class="st0" d="M24,496h432c22.1,0,40-17.9,40-40v-32h-16v32c0,13.2-10.8,24-24,24h-96v-32h80c2.2,0,4.2-0.9,5.8-2.4
		c23.8-24.7,24.2-64.5,1.3-89.7l-19-57c0.5-0.9,0.9-1.9,1.3-2.8H448c17.7,0,32,14.3,32,32v80h16v-80c0-26.5-21.5-48-48-48h-0.8
		c0.1-0.1,0.3-0.3,0.4-0.4c10.5-10.5,16.4-24.7,16.4-39.6v-64.4c10.7-10.9,10.7-28.3,0-39.1V112c0-53-43-96-96-96s-96,43-96,96v128
		c0,15.1,6.1,29.5,16.9,40H288c-26.5,0-48,21.5-48,48v16h16v-16c0-17.7,14.3-32,32-32h18.6c0.7,1.6,1.5,3.2,2.3,4.8l-12.3,55.4
		c-12.2,13.7-18.2,32-16.3,50.3l-42.1-51.5c-1.5-1.9-3.8-2.9-6.2-2.9H128v-40h40c4.4,0,8-3.6,8-8v-64c0-4.4-3.6-8-8-8H40
		c-4.4,0-8,3.6-8,8v64c0,4.4,3.6,8,8,8h40v40H24c-4.4,0-8,3.6-8,8v128C16,492.4,19.6,496,24,496z M428.9,352H314l7.7-34.6
		c26.7,25.6,69,24.7,94.6-1.9c0.1-0.1,0.2-0.2,0.3-0.3L428.9,352z M336,136.7v-12.6l47.1-33.7l48.9,48.9V176c0,35.3-28.7,64-64,64
		c-11.2,0-22.3-3-32-8.6v-72.1c6.2-2.2,9.5-9,7.3-15.3C342.1,140.6,339.4,137.9,336,136.7z M344,272v-19.7c15.6,4.9,32.4,4.9,48,0
		V272c0,10.9,7.4,20.5,18,23.2l0.6,1.9c-15.5,23.5-47.2,30-70.7,14.5c-5.5-3.6-10.2-8.2-13.9-13.6l0.4-2
		C331.2,296,344,289.5,344,272z M448,240c0,20-14.7,36.9-34.5,39.6c-3.3-1.1-5.5-4.1-5.5-7.6v-26.8c22.3-12.9,37.1-35.8,39.6-61.5
		c0.1,0,0.3,0,0.4,0V240z M456,156c0,5.1-3.2,9.6-8,11.3v-22.6C452.8,146.4,456,150.9,456,156z M288,240V112c0-44.2,35.8-80,80-80
		s80,35.8,80,80v16.3c-1.3-0.2-2.7-0.3-4-0.3h-0.7l-53.7-53.7c-2.8-2.8-7.1-3.1-10.3-0.9l-56,40c-2.1,1.5-3.4,3.9-3.4,6.5v159.2
		C301.4,275.4,288,259,288,240z M307.6,368h128.9c15.4,18.6,15.4,45.4,0,64h-81.8l-29.9-22.4c-1.4-1-3.1-1.6-4.8-1.6h-23.4
		C294.3,393.7,298.3,379.1,307.6,368z M317.3,424l26.7,20v36h-7c-9.5,0-18.5-3.9-25-10.8V448c0-1.8-0.6-3.6-1.8-5.1L294.7,424H317.3
		z M208,368h20.2l67.8,82.9V480h-88V368z M48,296v-48h112v48H48z M112,312v40H96v-40H112z M32,368h160v112H32V368z M392,148
		c0-6.6,5.4-12,12-12s12,5.4,12,12s-5.4,12-12,12C397.4,160,392,154.6,392,148z M344,184h16c0,4.4,3.6,8,8,8s8-3.6,8-8h16
		c0,13.3-10.7,24-24,24S344,197.3,344,184z M320.4,95.3L306.2,88c0.8-1.6,20.7-39.5,68.2-41.4l0.6,16
		C337.1,64.1,321.1,94.1,320.4,95.3z M88,120v2.1c0,3.3,2.7,5.9,5.9,5.9h20.1c3.3,0,5.9-2.7,5.9-5.9c0-2.6-1.6-4.8-4.1-5.6L87,106.8
		C75.5,102.9,69.3,90.5,73.1,79c3-9,11.4-15,20.8-15H96V48h16v16h2.1c12.1,0,21.9,9.8,21.9,21.9V88h-16v-2.1c0-3.3-2.7-5.9-5.9-5.9
		H93.9c-3.3,0-5.9,2.7-5.9,5.9c0,2.6,1.6,4.8,4.1,5.6l28.9,9.6c11.5,3.8,17.7,16.3,13.9,27.8c-3,9-11.4,15-20.8,15H112v16H96v-16
		h-2.1c-12.1,0-21.9-9.8-21.9-21.9V120H88z M35.8,159.6c-23.1-28.3-26.3-68-8.1-99.7l13.8,8c-19.9,34.5-8,78.5,26.4,98.4
		c6.5,3.7,13.4,6.4,20.7,8c2.1,0.4,3.9,1.7,5,3.4l10.2,15.6l10.2-15.6c1.2-1.8,3-3,5-3.4c38.9-8.4,63.6-46.7,55.1-85.6
		s-46.7-63.6-85.6-55.1C73.9,36.8,60.4,44.7,50.3,56L38.4,45.4c32.4-36.2,88-39.4,124.3-7s39.4,88,7,124.3
		c-11.6,13-26.9,22.3-43.8,26.6l-15.2,23.1c-2.4,3.7-7.4,4.7-11.1,2.3c-0.9-0.6-1.7-1.4-2.3-2.3l-15.2-23.1
		C64,184.6,47.7,174.2,35.8,159.6z M128,264h16v16h-16V264z M96,264h16v16H96V264z M64,264h16v16H64V264z M48,384h16v16H48V384z
		 M48,416h16v48H48V416z"/>
</g>
</svg>
