<?xml version="1.0" encoding="utf-8"?>
<!-- Generator: Adobe Illustrator 25.0.0, SVG Export Plug-In . SVG Version: 6.00 Build 0)  -->
<svg version="1.1" id="Capa_1" xmlns="http://www.w3.org/2000/svg" xmlns:xlink="http://www.w3.org/1999/xlink" x="0px" y="0px"
	 viewBox="0 0 512 512" style="enable-background:new 0 0 512 512;" xml:space="preserve">
<style type="text/css">
	.st0{fill:#061F75;}
</style>
<g>
	<g>
		<path class="st0" d="M253.7,0C184.2,1.2,128,58.2,128,128v90.8c0,4.1,3.3,7.6,7.4,7.6c0,0,0.1,0,0.1,0c0,0,0.1,0,0.1,0
			c4.1,0,7.4-3.5,7.4-7.6v-89.5C143,65.9,194.7,13.9,258,15c61.3,1.1,110.9,51.3,110.9,112.9v90.8c0,4.1,3.3,7.6,7.4,7.6
			c0,0,0.1,0,0.1,0c0,0,0.1,0,0.1,0c4.1,0,7.4-3.5,7.4-7.6v-89.3C384,57.7,325.5-1.2,253.7,0z"/>
	</g>
</g>
<g>
	<g>
		<path class="st0" d="M146.5,322.6c0-7.2,6-10.4,14.3-10.4c9.7,0,12.7,4.4,15.8,4.4c3.4,0,5-4.2,5-6.5c0-6.3-13.4-8.3-20.9-8.3
			c-12.3,0-26.5,5-26.5,22c0,27.5,37.3,19.6,37.3,39.9c0,8.3-6.2,12.2-14.4,12.2c-12.7,0-15.5-9.1-19.6-9.1c-2.9,0-5.3,3.8-5.3,6.5
			c0,5.7,10.4,13.5,25.3,13.5c15.1,0,26.1-8,26.1-24.4C183.8,331.8,146.5,339.5,146.5,322.6z"/>
	</g>
</g>
<g>
	<g>
		<path class="st0" d="M242,302c-3,0-6.1,1.1-6.1,3.9v31.6h-28.6v-31.6c0-2.8-3-3.9-6.1-3.9c-3,0-6.1,1.1-6.1,3.9v75.9
			c0,2.6,3.1,4,6.1,4c3.1,0,6.1-1.4,6.1-4v-34.6h28.6v34.6c0,2.6,3.1,4,6.1,4c3.1,0,6.1-1.4,6.1-4v-75.9
			C248.1,303.2,245.1,302,242,302z"/>
	</g>
</g>
<g>
	<g>
		<path class="st0" d="M288.1,302c-14.6,0-25.7,7-25.7,25.6V361c0,18.6,11.1,25.6,25.7,25.6c14.4,0,25.8-7,25.8-25.6v-33.4
			C313.9,309,302.5,302,288.1,302z M301.7,361c0,10.1-5.2,14.8-13.6,14.8c-8.6,0-13.5-4.7-13.5-14.8v-33.4
			c0-10.1,4.9-14.8,13.5-14.8c8.5,0,13.6,4.7,13.6,14.8V361z"/>
	</g>
</g>
<g>
	<g>
		<path class="st0" d="M355.2,302h-22.4c-2.9,0-4.7,1.8-4.7,3.9v75.9c0,2.6,3.1,4,6.1,4c3.1,0,6.1-1.4,6.1-4v-28.3h14.2
			c14.4,0,25.8-7,25.8-25.3v-0.9C380.3,308.8,369.3,302,355.2,302z M368.1,329c0,10.1-5.2,14.9-13.6,14.9h-14.2v-31.1h14.2
			c8.5,0,13.6,4.7,13.6,14.8V329z"/>
	</g>
</g>
<g>
	<g>
		<path class="st0" d="M348.9,153.3H163.1c-4.1,0-7.5,3.4-7.5,7.5s3.4,7.5,7.5,7.5h185.8c4.1,0,7.5-3.4,7.5-7.5
			S353.1,153.3,348.9,153.3z"/>
	</g>
</g>
<g>
	<g>
		<path class="st0" d="M454.1,487.9l-18-313.1c-0.7-12.1-10.7-21.5-22.8-21.5H404c-4.1,0-7.5,3.4-7.5,7.5s3.4,7.5,7.5,7.5h9.4
			c4.1,0,7.5,3.2,7.8,7.4l17.9,312.8c0.1,2.1-0.5,4.2-1.8,5.7c-1.5,1.8-3.6,2.8-6,2.8H80.9c-2.1,0-4.1-0.7-5.6-2.1
			c-1.7-1.6-2.5-3.8-2.4-6.1l18-313.1c0.2-4.1,3.7-7.4,7.8-7.4h9.4c4.1,0,7.5-3.4,7.5-7.5s-3.4-7.5-7.5-7.5h-9.4
			c-12.1,0-22.1,9.4-22.8,21.5l-18,313.1c-0.4,6.2,1.9,12.4,6.2,17c4.3,4.5,10.3,7.1,16.6,7.1h350.7c6.2,0,12.3-2.6,16.6-7.1
			C452.2,500.3,454.5,494.1,454.1,487.9z"/>
	</g>
</g>
</svg>
