<svg id="svg1566" xmlns="http://www.w3.org/2000/svg" viewBox="0 0 682.67 682.67"><g id="g1576"><g id="g1582"><path id="path1584" d="M302.38,523.92H173.78L128.19,669.33H554.48L508.89,523.92H380.68" fill="none" stroke="#061f75" stroke-linecap="round" stroke-linejoin="round" stroke-width="26.67"/></g><g id="g1586"><path id="path1588" d="M259.7,199.14A22.83,22.83,0,0,0,236.88,222V344.15c0,26.15,21.58,47.36,48.21,47.36H397.58c26.62,0,48.21-21.21,48.21-47.36V222A22.83,22.83,0,0,0,423,199.14Z" fill="none" stroke="#061f75" stroke-linecap="round" stroke-linejoin="round" stroke-width="26.67"/></g><g id="g1590"><path id="path1592" d="M294,243.09v-72.9a47.33,47.33,0,0,1,94.66,0v72.9" fill="none" stroke="#061f75" stroke-linecap="round" stroke-linejoin="round" stroke-width="26.67"/></g><g id="g1594"><path id="path1596" d="M342.37,13.34C207.09,12.78,96.5,122.43,96.5,257.1c0,107.34,69.69,198.48,166.47,231a68.72,68.72,0,0,1,35.91,27.7l42.45,65.64,42.45-65.63A69.2,69.2,0,0,1,419.94,488C516.6,455.42,586.16,364.35,586.16,257.1,586.16,122.81,477.11,13.89,342.37,13.34Z" fill="none" stroke="#061f75" stroke-linecap="round" stroke-linejoin="round" stroke-width="26.67"/></g></g></svg>