<?xml version="1.0" encoding="utf-8"?>
<!-- Generator: Adobe Illustrator 25.0.0, SVG Export Plug-In . SVG Version: 6.00 Build 0)  -->
<svg version="1.1" id="svg405" xmlns:svg="http://www.w3.org/2000/svg"
	 xmlns="http://www.w3.org/2000/svg" xmlns:xlink="http://www.w3.org/1999/xlink" x="0px" y="0px" viewBox="0 0 682.7 682.7"
	 style="enable-background:new 0 0 682.7 682.7;" xml:space="preserve">
<style type="text/css">
	.st0{fill:none;stroke:#061F75;stroke-width:20;stroke-linecap:round;stroke-linejoin:round;stroke-miterlimit:13.3333;}
</style>
<g id="g415">
	<g id="g421" transform="translate(371.0002,504.5)">
		<path id="path423" class="st0" d="M123.7-494.5H-16.5c-35.9,0-65,29-65,64.8v119.9"/>
	</g>
	<g id="g425" transform="translate(237.3388,242.9986)">
		<path id="path427" class="st0" d="M79.1,115.7c10.7,7.7,23.9,12.3,38.1,12.3h121.7v59l77.1-59h33.3c35.9,0,65-29,65-64.8v-231.4
			c0-35.8-29.1-64.8-65-64.8H320"/>
	</g>
	<g id="g429" transform="translate(315.4131,304.9772)">
		<path id="path431" class="st0" d="M105.1-28.9l6.7,5.4c10.6,8.6,23.9,13.3,37.5,13.3h95.1c9,0,16.3-7.5,15.8-16.6
			c-0.4-8.5,0-86.2,0-94.9c0-8.8-7.1-15.9-15.9-15.9l-64.5-0.2l7.9-18.7c8.2-19.4,6.9-41.6-3.6-59.9l0,0c-3-5.2-9.6-6.9-14.7-3.8
			l0,0c-3.1,1.9-5,5.3-5,9c0,16.8-6.1,32.9-17.2,45.5l-41.1,46.5"/>
	</g>
	<path id="path433" class="st0" d="M419.3,290.3h-53.8v-121h53.8V290.3z"/>
	<g id="g435" transform="translate(23.2673,270)">
		<path id="path437" class="st0" d="M7.8,52.7v100.9c0,28.2,22.9,51.1,51.2,51.1h100.6v47l60.8-47"/>
	</g>
	<g id="g439" transform="translate(236.2645,185)">
		<path id="path441" class="st0" d="M78.8,251c1-4,1.5-8.1,1.5-12.4V56.1C80.3,27.9,57.3,5,29.1,5H-154c-28.3,0-51.2,22.9-51.2,51.1
			v21.6"/>
	</g>
	<g id="g443" transform="translate(79.9881,277.2979)">
		<path id="path445" class="st0" d="M26.7,35.6h134.3"/>
	</g>
	<g id="g447" transform="translate(79.9881,244.0018)">
		<path id="path449" class="st0" d="M26.7,113.3h134.3"/>
	</g>
	<g id="g451" transform="translate(155.3103,311)">
		<path id="path453" class="st0" d="M51.8-43L29.6,91.3"/>
	</g>
	<g id="g455" transform="translate(122.0143,311)">
		<path id="path457" class="st0" d="M40.7-43L18.5,91.3"/>
	</g>
	<g id="g459" transform="translate(339,120)">
		<path id="path461" class="st0" d="M113,402.7v-49.1c0-20-16.3-36.2-36.4-36.2H-53.3c-20.1,0-36.4,16.2-36.4,36.2v129.5
			c0,20,16.3,36.2,36.4,36.2h71.4v33.3l43.2-33.3h15.4c20.1,0,36.4-16.2,36.4-36.2v-17.8"/>
	</g>
	<g id="g463" transform="translate(263.0173,75.2472)">
		<path id="path465" class="st0" d="M87.7,507.1c31.3-16.6,47.5-30.7,47.5-52.5c0-30.1-36.9-37.7-47.5-15.1
			c-12.1-23.4-47.5-15.1-47.5,15.1C40.2,476.4,56.4,490.5,87.7,507.1z"/>
	</g>
</g>
</svg>
