<svg id="Layer_1_1_" enable-background="new 0 0 64 64" height="512" viewBox="0 0 64 64" width="512" xmlns="http://www.w3.org/2000/svg"><path d="m2 55.004h1.52c.104.296.225.585.359.868l-1.075 1.075c-.188.188-.293.442-.293.707s.105.52.293.707l2.834 2.834c.375.375 1.039.375 1.414 0l1.076-1.076c.283.135.572.254.867.358v1.523c0 .552.448 1 1 1h4.008c.552 0 1-.448 1-1v-1.525c.294-.104.583-.224.864-.358l1.079 1.079c.188.188.442.293.707.293s.52-.105.707-.293l2.834-2.834c.188-.188.293-.442.293-.707s-.105-.52-.293-.707l-1.08-1.08c.134-.281.253-.569.357-.863h1.529c.552 0 1-.448 1-1v-4.008c0-.552-.448-1-1-1h-1.528c-.104-.294-.223-.582-.357-.863l1.08-1.08c.188-.188.293-.442.293-.707s-.105-.52-.293-.707l-2.834-2.834c-.375-.375-1.039-.375-1.414 0l-1.079 1.079c-.281-.134-.57-.253-.864-.358v-1.527c0-.552-.448-1-1-1h-4.008c-.552 0-1 .448-1 1v1.522c-.295.104-.584.224-.867.358l-1.076-1.076c-.188-.188-.442-.293-.707-.293s-.52.105-.707.293l-2.834 2.834c-.188.188-.293.442-.293.707s.105.52.293.707l1.075 1.075c-.135.284-.255.573-.36.869h-1.52c-.552 0-1 .448-1 1v4.008c0 .552.448 1 1 1zm1-4.008h1.259c.456 0 .854-.309.968-.75.163-.631.413-1.235.743-1.794.232-.393.168-.893-.154-1.215l-.891-.891 1.42-1.42.891.892c.321.322.82.386 1.215.154.559-.329 1.162-.579 1.793-.741.442-.114.75-.512.75-.968v-1.263h2.008v1.264c0 .456.308.854.749.968.632.164 1.234.414 1.792.743.392.231.894.168 1.215-.154l.894-.895 1.42 1.42-.896.896c-.322.322-.386.822-.154 1.215.328.557.577 1.159.74 1.791.114.441.512.75.968.75h1.27v2.008h-1.267c-.456 0-.854.308-.968.75-.163.631-.413 1.234-.74 1.791-.232.393-.168.893.154 1.215l.895.895-1.42 1.42-.894-.897c-.321-.322-.822-.386-1.215-.154-.557.329-1.16.579-1.792.743-.441.114-.749.512-.749.968v1.263h-2.008v-1.262c0-.456-.309-.854-.75-.968-.631-.163-1.235-.412-1.793-.741-.395-.231-.894-.167-1.215.154l-.891.891-1.42-1.42.89-.89c.323-.322.386-.822.154-1.215-.33-.56-.58-1.163-.743-1.794-.114-.441-.512-.75-.968-.75h-1.26z"/><path d="m12 57c2.757 0 5-2.243 5-5s-2.243-5-5-5-5 2.243-5 5 2.243 5 5 5zm0-8c1.654 0 3 1.346 3 3s-1.346 3-3 3-3-1.346-3-3 1.346-3 3-3z"/><path d="m62.948 6.266c-.119-.355-.427-.615-.797-.671l-3.618-.552-1.627-3.467c-.165-.352-.518-.576-.906-.576s-.741.224-.905.575l-1.627 3.467-3.618.552c-.371.057-.678.316-.797.671s-.029.748.232 1.016l2.647 2.713-.626 3.844c-.062.378.098.758.411.979.313.22.724.242 1.06.058l3.223-1.782 3.224 1.782c.151.083.318.125.484.125.202 0 .404-.062.576-.183.313-.22.473-.601.411-.979l-.626-3.844 2.647-2.713c.262-.267.351-.659.232-1.015zm-4.664 2.694c-.222.227-.322.546-.271.859l.376 2.309-1.906-1.053c-.15-.083-.317-.125-.484-.125s-.333.042-.484.125l-1.906 1.053.376-2.309c.051-.313-.049-.632-.271-.859l-1.641-1.682 2.222-.339c.33-.051.613-.262.754-.564l.951-2.021.949 2.021c.142.302.425.513.754.564l2.222.339z"/><path d="m47.377 13.076c-.544-.083-1.106.061-1.54.401l-7.846 6.138c.431-.829.63-1.76.55-2.714-.112-1.331-.736-2.538-1.757-3.4s-2.314-1.273-3.646-1.162c-1.331.113-2.538.737-3.4 1.757-.861 1.021-1.274 2.315-1.162 3.646.096 1.128.576 2.153 1.336 2.968-1.164.288-2.191.977-2.88 1.962l-7.879 10.754c-.45.643-.486 1.465-.094 2.145.391.679 1.115 1.057 1.902.995l2.396-.203c.582-.049 1.112-.349 1.439-.804l4.757-6.258.36 4.27-2.363 16.208c-.892.183-1.788.347-2.689.473l.277 1.98c3.138-.439 6.235-1.21 9.204-2.293 5.76-2.1 10.364-5.123 13.914-8.158l.224-.067-.031-.104c3.425-2.962 5.853-5.919 7.364-8.028.193-.27.24-.617.125-.927-.114-.311-.375-.545-.696-.625l-1.542-.386 5.615-3.119 1.326 5.968-1.324-.441c-.431-.144-.902.021-1.151.398l-.166.25c-12.571 19.139-26.545 23.779-36.055 24.301l.109 1.997c9.903-.544 24.394-5.301 37.357-24.807l2.271.757c.341.115.718.035.986-.206s.384-.608.306-.959l-2-9c-.068-.308-.278-.566-.566-.695-.288-.128-.619-.116-.896.038l-9 5c-.359.199-.559.598-.505 1.005.053.407.351.74.749.839l2.545.636c-1.319 1.706-3.14 3.783-5.483 5.892l-1.783-5.981c-.166-.514-.539-.945-1.002-1.172l-4.111-2.141-.643-4.888 9.156-6.976c.847-.644 1.041-1.838.441-2.717l-1.156-1.698c-.308-.454-.798-.764-1.343-.849zm-14.071 1.257c.086-.007.172-.011.258-.011.707 0 1.384.247 1.93.708.612.517.986 1.241 1.054 2.04.067.799-.18 1.576-.697 2.188s-1.241.987-2.04 1.054c-.8.069-1.576-.18-2.188-.697s-.987-1.241-1.054-2.04c-.139-1.649 1.089-3.103 2.737-3.242zm1.359 33.334 2.081-12.009 3.676 1.784 2.173 6.1c-2.317 1.532-4.956 2.953-7.93 4.125zm3.943-23.59c-.285.217-.432.57-.386.926l.786 5.979c.043.323.24.606.53.756l4.588 2.372 2.032 6.817c-.591.482-1.214.96-1.862 1.434l-2.002-5.62c-.184-.466-.532-.843-.98-1.062l-4.887-2.398c-.282-.138-.613-.135-.895.007-.281.143-.478.41-.531.72l-2.502 14.442c-.942.313-1.894.601-2.857.849l2.268-15.551c.011-.076.013-.152.007-.229l-.589-6.975c-.035-.413-.32-.761-.717-.876-.398-.117-.825.026-1.075.355l-6.346 8.349-2.409.22 7.879-10.754c.512-.731 1.316-1.194 2.206-1.27l3.113-.263h.002.001l3.985-.337c.194-.017.379-.089.532-.209l8.572-6.706 1.157 1.698z"/><path d="m4 2h2v2h-2z"/><path d="m6 4h2v2h-2z"/><path d="m2 4h2v2h-2z"/><path d="m4 6h2v2h-2z"/><path d="m12 5h2v2h-2z"/><path d="m14 7h2v2h-2z"/><path d="m10 7h2v2h-2z"/><path d="m12 9h2v2h-2z"/><path d="m58 56h2v2h-2z"/><path d="m60 58h2v2h-2z"/><path d="m56 58h2v2h-2z"/><path d="m58 60h2v2h-2z"/></svg>