<svg id="Layer_1" data-name="Layer 1" xmlns="http://www.w3.org/2000/svg" viewBox="0 0 512 512"><g id="_417_Communication_global_internet_connection" data-name="417,Communication,global,internet,connection"><path d="M256,339.57c-70.78,0-128.37-58.12-128.37-129.56S185.22,80.45,256,80.45,384.37,138.57,384.37,210,326.78,339.57,256,339.57Zm-48.26-64.72A138.32,138.32,0,0,0,216,294.62c9.42,18.16,21.45,29.57,34,32.3V270A244.74,244.74,0,0,0,207.74,274.85ZM262,326.92c12.54-2.73,24.58-14.14,34-32.3a139,139,0,0,0,8.29-19.85A242.76,242.76,0,0,0,262,270Zm54-49.47a151.47,151.47,0,0,1-9.39,22.7,99.54,99.54,0,0,1-14.85,21.7,116,116,0,0,0,52.59-35.48A266.8,266.8,0,0,0,316,277.45Zm-148.41,8.94a116.09,116.09,0,0,0,52.56,35.46,99.76,99.76,0,0,1-14.84-21.7A151,151,0,0,1,196,277.53,272.56,272.56,0,0,0,167.63,286.39ZM139.79,216a117.69,117.69,0,0,0,20.27,60.43A288.73,288.73,0,0,1,192.65,266,223.8,223.8,0,0,1,186,216ZM319.37,265.9A281.46,281.46,0,0,1,352,276.43,117.77,117.77,0,0,0,372.21,216H326A223.75,223.75,0,0,1,319.37,265.9ZM198,216a211.86,211.86,0,0,0,6.34,47.28A256.47,256.47,0,0,1,250,258V216ZM262,258a254.37,254.37,0,0,1,45.68,5.26A211.23,211.23,0,0,0,314,216H262ZM372.21,204A117.77,117.77,0,0,0,352,143.59a278.88,278.88,0,0,1-32.58,10.53A223.91,223.91,0,0,1,326,204ZM186,204a224,224,0,0,1,6.66-50,288.08,288.08,0,0,1-32.59-10.46A117.69,117.69,0,0,0,139.79,204Zm128,0a211.72,211.72,0,0,0-6.32-47.19A254.38,254.38,0,0,1,262,162.08V204Zm-64,0V162.07a256.39,256.39,0,0,1-45.67-5.34A211.86,211.86,0,0,0,198,204Zm12-54a242.76,242.76,0,0,0,42.29-4.79A139.58,139.58,0,0,0,296,125.4c-9.42-18.16-21.46-29.57-34-32.3Zm-54.26-4.88A244.88,244.88,0,0,0,250,150V93.1c-12.55,2.73-24.58,14.14-34,32.3A139.48,139.48,0,0,0,207.74,145.17Zm84.06-47a99.73,99.73,0,0,1,14.85,21.71,151.64,151.64,0,0,1,9.39,22.7,269.12,269.12,0,0,0,28.35-8.92A116,116,0,0,0,291.8,98.17ZM167.63,133.63A272.64,272.64,0,0,0,196,142.5a150.58,150.58,0,0,1,9.36-22.62,99.6,99.6,0,0,1,14.84-21.71A116.09,116.09,0,0,0,167.63,133.63Z" fill="#061f75"/><path d="M256,81.45c70.29,0,127.37,57.8,127.37,128.56S326.18,338.57,256,338.57,128.63,280.77,128.63,210,185.81,81.45,256,81.45m5,69.63h0A243,243,0,0,0,305.59,146a139.59,139.59,0,0,0-8.71-21.07c-10-19.21-22.55-30.74-35.88-33v59.19m-10,0V91.89c-13.33,2.31-25.92,13.84-35.89,33.05a139.56,139.56,0,0,0-8.67,21A245.22,245.22,0,0,0,251,151.07m64.37-7.29a268.63,268.63,0,0,0,30.69-9.69,117.61,117.61,0,0,0-57.7-38c6.4,6.23,12.26,14.37,17.4,24.28a149.52,149.52,0,0,1,9.61,23.44m-118.72-.08a149.88,149.88,0,0,1,9.59-23.36,94.34,94.34,0,0,1,17.39-24.28,117.67,117.67,0,0,0-57.68,38,275.63,275.63,0,0,0,30.7,9.63M138.74,205H187a224.28,224.28,0,0,1,6.9-51.69,286.35,286.35,0,0,1-34.18-11A118.57,118.57,0,0,0,138.74,205M325,205h48.23a118.62,118.62,0,0,0-20.93-62.64,278.72,278.72,0,0,1-34.18,11A223.67,223.67,0,0,1,325,205M197,205h54V161.09h0a253.72,253.72,0,0,1-47.4-5.53A213.9,213.9,0,0,0,197,205m64,0h54a213.29,213.29,0,0,0-6.62-49.37A251.18,251.18,0,0,1,261,161.1V205m91.33,72.64A118.59,118.59,0,0,0,373.26,215H325a223.76,223.76,0,0,1-6.88,51.62,278.65,278.65,0,0,1,34.18,11m-43.92-13.27A213.14,213.14,0,0,0,315,215H261v43.92a252,252,0,0,1,47.41,5.45m-104.8.09A254.37,254.37,0,0,1,251,258.93V215H197a213.37,213.37,0,0,0,6.65,49.46m-43.93,13.19a288.17,288.17,0,0,1,34.18-11A224.21,224.21,0,0,1,187,215H138.74a118.57,118.57,0,0,0,20.94,62.65M261,328.13h0c13.33-2.31,25.92-13.84,35.89-33.05a140.49,140.49,0,0,0,8.7-21.06A243,243,0,0,0,261,269v59.18m-10,0V269h0a245.12,245.12,0,0,0-44.56,5.14,139.86,139.86,0,0,0,8.67,21c10,19.21,22.56,30.74,35.89,33.05M288.37,324a117.56,117.56,0,0,0,57.69-38,266.58,266.58,0,0,0-30.69-9.68,150.89,150.89,0,0,1-9.61,23.44A94.52,94.52,0,0,1,288.37,324h0m-64.74,0a94.17,94.17,0,0,1-17.39-24.28,149.76,149.76,0,0,1-9.59-23.35A273.47,273.47,0,0,0,166,286a117.67,117.67,0,0,0,57.68,38M256,79.45C184.67,79.45,126.63,138,126.63,210s58,130.56,129.37,130.56S385.37,282,385.37,210,327.33,79.45,256,79.45Zm-46.95,65a136.22,136.22,0,0,1,7.84-18.56c9-17.3,20.3-28.37,32.11-31.49V149a244.34,244.34,0,0,1-39.95-4.59ZM263,149V94.37c11.81,3.12,23.14,14.19,32.11,31.49A137.94,137.94,0,0,1,303,144.5,241.07,241.07,0,0,1,263,149Zm53.7-7.65a152.27,152.27,0,0,0-9.16-22A104.34,104.34,0,0,0,295,100.35a115.08,115.08,0,0,1,47.66,32.87,268.11,268.11,0,0,1-26,8.16Zm-147.38-8.19A115.14,115.14,0,0,1,217,100.35a104.84,104.84,0,0,0-12.49,19.07,150.05,150.05,0,0,0-9.13,21.88c-8.66-2.23-17.39-5-26-8.11ZM140.85,203a116.61,116.61,0,0,1,19.59-58.21,292.89,292.89,0,0,0,31,10A225.07,225.07,0,0,0,185,203Zm179.74-48.17a280.85,280.85,0,0,0,31-10A116.69,116.69,0,0,1,371.15,203H327a225.05,225.05,0,0,0-6.4-48.17ZM199,203a210.14,210.14,0,0,1,6.06-45.1A257.49,257.49,0,0,0,249,163v40Zm64-40A254.45,254.45,0,0,0,307,158a210.21,210.21,0,0,1,6,45H263v-40Zm64,54h44.16a116.69,116.69,0,0,1-19.58,58.2,284.44,284.44,0,0,0-31-10A225,225,0,0,0,327,217Zm-64,0h50a210.22,210.22,0,0,1-6,45A255.57,255.57,0,0,0,263,257V217Zm-64,0h50v40a258.52,258.52,0,0,0-43.93,5.14A210.23,210.23,0,0,1,199,217Zm-58.16,0H185a225.07,225.07,0,0,0,6.42,48.25,289.79,289.79,0,0,0-31,10A116.68,116.68,0,0,1,140.85,217ZM263,325.65V271a241,241,0,0,1,40,4.53,136,136,0,0,1-7.86,18.63c-9,17.3-20.3,28.37-32.11,31.49Zm-53.95-50A244.24,244.24,0,0,1,249,271v54.64c-11.81-3.12-23.14-14.19-32.11-31.49a136.61,136.61,0,0,1-7.84-18.55Zm86,44.07a105,105,0,0,0,12.5-19.07,152.08,152.08,0,0,0,9.15-22,267.35,267.35,0,0,1,26,8.15A115.1,115.1,0,0,1,295,319.68ZM169.32,286.83a272.19,272.19,0,0,1,26-8.1,151.64,151.64,0,0,0,9.13,21.88A105,105,0,0,0,217,319.68a115.16,115.16,0,0,1-47.63-32.85Z" fill="#061f75"/><path d="M251.58,492.08a16.94,16.94,0,0,1,0-33.87h24.14a16.91,16.91,0,0,1,15.82,10.94h5.57A124.91,124.91,0,0,0,421.88,344.38v-4a27.63,27.63,0,0,1-21.59-26.93V242.12a27.59,27.59,0,0,1,55.18,0v11.42H461V224.46C461,111,368.66,18.66,255.19,18.66S49.4,111,49.4,224.46v29.08h7.13V242.12a27.59,27.59,0,0,1,55.18,0v71.36a27.59,27.59,0,0,1-55.18,0V302.06H45a7.63,7.63,0,0,1-7.62-7.61v-70a217.83,217.83,0,0,1,371.82-154,216.37,216.37,0,0,1,63.76,154v32a7.6,7.6,0,0,1,1.62,4.69v33.29a7.62,7.62,0,0,1-7.62,7.61H455.47v11.42a27.63,27.63,0,0,1-21.59,26.93v4c0,75.41-61.35,136.77-136.77,136.77h-5.57a16.9,16.9,0,0,1-15.82,10.93Zm0-21.87a4.94,4.94,0,0,0,0,9.87h24.14a4.94,4.94,0,0,0,0-9.87Zm176.3-243.67a15.6,15.6,0,0,0-15.59,15.58v71.36a15.59,15.59,0,0,0,31.18,0V242.12A15.61,15.61,0,0,0,427.88,226.54Zm-343.76,0a15.6,15.6,0,0,0-15.59,15.58v71.36a15.59,15.59,0,0,0,31.18,0V242.12A15.6,15.6,0,0,0,84.12,226.54ZM462.6,290.06V265.54h-7.13v24.52Zm-406.07,0V265.54H49.4v24.52Z" fill="#061f75"/><path d="M255.19,7.66A216.68,216.68,0,0,1,472,224.46h0v32.38a6.58,6.58,0,0,1,1.62,4.33v33.29a6.63,6.63,0,0,1-6.62,6.61H454.47v12.42a26.62,26.62,0,0,1-21.59,26.11v4.79c0,74.86-60.91,135.77-135.77,135.77h-6.27a16,16,0,0,1-15.12,10.93H251.58a15.94,15.94,0,0,1,0-31.87h24.14a16,16,0,0,1,15.12,10.94h6.27A125.91,125.91,0,0,0,422.88,344.38v-4.79a26.62,26.62,0,0,1-21.59-26.11V242.12a26.59,26.59,0,0,1,53.18,0v12.42H462V224.46c0-114-92.77-206.8-206.79-206.8S48.4,110.43,48.4,224.46v30.08h9.13V242.12a26.59,26.59,0,0,1,53.18,0v71.36a26.59,26.59,0,0,1-53.18,0V301.06H45a6.63,6.63,0,0,1-6.62-6.61v-70A216.68,216.68,0,0,1,255.19,7.66M84.12,330.07a16.61,16.61,0,0,0,16.59-16.59V242.12a16.59,16.59,0,0,0-33.18,0v71.36a16.61,16.61,0,0,0,16.59,16.59m343.76,0a16.61,16.61,0,0,0,16.59-16.59V242.12a16.59,16.59,0,0,0-33.18,0v71.36a16.61,16.61,0,0,0,16.59,16.59m26.59-39h9.13V264.54h-9.13v26.52m-406.07,0h9.13V264.54H48.4v26.52m203.18,190h24.14a5.94,5.94,0,0,0,0-11.87H251.58a5.94,5.94,0,0,0,0,11.87M255.19,5.66A218.52,218.52,0,0,0,36.4,224.46v70A8.63,8.63,0,0,0,45,303.06H55.53v10.42a28.59,28.59,0,0,0,57.18,0V242.12a28.59,28.59,0,0,0-57.18,0v10.42H50.4V224.46c0-112.93,91.86-204.8,204.79-204.8S460,111.53,460,224.46v28.08h-3.51V242.12a28.59,28.59,0,0,0-57.18,0v71.36a28.62,28.62,0,0,0,21.59,27.72v3.18A123.91,123.91,0,0,1,297.11,468.15h-4.89a17.91,17.91,0,0,0-16.5-10.94H251.58a17.94,17.94,0,0,0,0,35.87h24.14a17.91,17.91,0,0,0,16.5-10.93h4.89c76,0,137.77-61.81,137.77-137.77V341.2a28.62,28.62,0,0,0,21.59-27.72V303.06H467a8.63,8.63,0,0,0,8.62-8.61V261.16a8.61,8.61,0,0,0-1.62-5V222.33h0A218.55,218.55,0,0,0,255.19,5.66ZM84.12,328.07a14.61,14.61,0,0,1-14.59-14.59V242.12a14.59,14.59,0,0,1,29.18,0v71.36a14.61,14.61,0,0,1-14.59,14.59Zm343.76,0a14.6,14.6,0,0,1-14.59-14.59V242.12a14.59,14.59,0,0,1,29.18,0v71.36a14.61,14.61,0,0,1-14.59,14.59Zm28.59-61.53h5.13v22.52h-5.13V266.54Zm-406.07,0h5.13v22.52H50.4V266.54ZM251.58,479.08a3.94,3.94,0,0,1,0-7.87h24.14a3.94,3.94,0,0,1,0,7.87Z" fill="#061f75"/></g></svg>