<svg id="svg4590" xmlns="http://www.w3.org/2000/svg" xmlns:xlink="http://www.w3.org/1999/xlink" viewBox="0 0 682.67 682.67"><defs><clipPath id="clip-path"><rect width="682.67" height="682.67" fill="none"/></clipPath></defs><g clip-path="url(#clip-path)"><g id="g4600"><g id="g4606"><path d="M361.43,637.47a10,10,0,0,1-4.8-1.24l-29.17-16a21.7,21.7,0,0,1-10.16-25.87,42.55,42.55,0,0,0-20-50.66,10,10,0,1,1,9.62-17.54,62.55,62.55,0,0,1,29.4,74.5,1.7,1.7,0,0,0,.8,2l20.42,11.2L536.17,289.37,384.25,206l-16,29a10,10,0,0,1-17.52-9.65l20.77-37.73a10,10,0,0,1,13.57-3.94l169.46,93a10,10,0,0,1,3.95,13.59l-188.32,342A10,10,0,0,1,361.43,637.47Z" fill="#061f75"/></g><g id="g4610"><path d="M557.34,134A62.74,62.74,0,0,1,497.7,51.74a1.7,1.7,0,0,0-.8-2L443.15,20.22a1.75,1.75,0,0,0-2.37.67l-49.37,89.66a10,10,0,0,1-17.52-9.64l49.37-89.67a21.76,21.76,0,0,1,29.5-8.55l53.76,29.48A21.7,21.7,0,0,1,516.68,58a42.75,42.75,0,0,0,73.67,40.38,21.74,21.74,0,0,1,27.28-5.29l16.49,9a10,10,0,1,1-9.62,17.54l-16.49-9a1.77,1.77,0,0,0-2.19.42A62.53,62.53,0,0,1,557.34,134Z" fill="#061f75"/></g><g id="g4614"><path d="M604,279.37a10,10,0,0,1-8.75-14.82l67.22-122.09a1.68,1.68,0,0,0,.14-1.28,1.7,1.7,0,0,0-.84-1,10,10,0,0,1,9.63-17.53A21.7,21.7,0,0,1,680,152.1L612.76,274.2A10,10,0,0,1,604,279.37Z" fill="#061f75"/></g><g id="g4618"><path d="M391.64,652.39a21.73,21.73,0,0,1-10.43-2.67l-24.58-13.49a10,10,0,0,1-3.95-13.59L536.17,289.37,384.25,206l-16,29a10,10,0,1,1-17.52-9.65l20.77-37.73a10,10,0,0,1,13.57-3.94l169.46,93a10,10,0,0,1,3.95,13.59L375,623.51l15.79,8.67a1.75,1.75,0,0,0,2.37-.67L590.41,273.32,370.85,152.88a10,10,0,0,1,9.61-17.54L608.81,260.61a10,10,0,0,1,4,13.59l-202,367A21.75,21.75,0,0,1,391.64,652.39Z" fill="#061f75"/></g><g id="g4622"><path d="M574.94,202.59a9.93,9.93,0,0,1-4.8-1.24L440.5,130.24a10,10,0,0,1,9.62-17.54l129.64,71.12a10,10,0,0,1-4.82,18.77Z" fill="#061f75"/></g><g id="g4626"><path d="M345.22,527.86a10,10,0,0,1-8.56-4.83l-14.6-24.21-10.81.24H311a10,10,0,0,1-.21-20l16.59-.36a10.09,10.09,0,0,1,8.78,4.84L343,494.73l5.29-14.64a10,10,0,0,1,6.27-6.1l15.36-5.06-11.53-9a10,10,0,0,1-3.81-8.69l1.1-13.67-10.88,8.23a10,10,0,0,1-9.42,1.44l-16.94-6.09a10,10,0,1,1,6.76-18.82L337,426.6l24.35-18.43a10,10,0,0,1,16,8.77l-2.46,30.54,22.05,17.2a10,10,0,0,1-3,17.38l-28.52,9.4-10.77,29.8a10,10,0,0,1-8.43,6.55A8,8,0,0,1,345.22,527.86Z" fill="#061f75"/></g><g id="g4630"><path d="M358.69,366.4a9.87,9.87,0,0,1-4.81-1.25,10,10,0,0,1-3.94-13.58l50.55-91.81A10,10,0,1,1,418,269.4l-50.55,91.82A10,10,0,0,1,358.69,366.4Z" fill="#061f75"/></g><g id="g4634"><path d="M390.69,384a10,10,0,0,1-8.75-14.82l50.55-91.82A10,10,0,0,1,450,287l-50.55,91.81A10,10,0,0,1,390.69,384Z" fill="#061f75"/></g><g id="g4638"><path d="M422.69,401.51a9.87,9.87,0,0,1-4.81-1.25,10,10,0,0,1-3.94-13.58l50.55-91.81A10,10,0,1,1,482,304.51l-50.55,91.82A10,10,0,0,1,422.69,401.51Z" fill="#061f75"/></g><g id="g4642"><path d="M237.17,677.27a9.72,9.72,0,0,1-1.85-.17l-32.71-6.16a21.73,21.73,0,0,1-17.72-21.41A42.78,42.78,0,0,0,102.29,634,21.71,21.71,0,0,1,78,647.49L45.3,641.33a10,10,0,0,1-8-11.67L109.18,246a10,10,0,0,1,11.68-8l190,35.78a10,10,0,0,1,8,11.66L247,669.11a10,10,0,0,1-9.83,8.16ZM142,586.81a62.92,62.92,0,0,1,62.89,62.77,1.73,1.73,0,0,0,1.42,1.71l22.88,4.3,68.18-364L127,259.55l-68.18,364,22.89,4.31a1.7,1.7,0,0,0,1.92-1.06A62.55,62.55,0,0,1,142,586.81Z" fill="#061f75"/></g><g id="g4646"><path d="M355.53,261.56a9.59,9.59,0,0,1-1.85-.18L85.45,210.89a10,10,0,0,1-8-11.67L103.13,62.29A21.71,21.71,0,0,1,128.5,45l60.27,11.35a21.73,21.73,0,0,1,17.72,21.41,42.78,42.78,0,0,0,82.6,15.56,21.73,21.73,0,0,1,24.28-13.52l60.28,11.35A21.77,21.77,0,0,1,391,116.46L365.35,253.4a10,10,0,0,1-9.82,8.16ZM99,193.09l248.57,46.79,23.81-127.1a1.74,1.74,0,0,0-1.4-2L309.67,99.43a1.7,1.7,0,0,0-1.92,1.06A62.78,62.78,0,0,1,186.49,77.68h0A1.73,1.73,0,0,0,185.07,76L124.8,64.63a1.7,1.7,0,0,0-1.31.27,1.63,1.63,0,0,0-.7,1.07Z" fill="#061f75"/></g><g id="g4650"><path d="M267,682.67a22.53,22.53,0,0,1-4.08-.38l-27.56-5.19a10,10,0,0,1-8-11.67l70-373.81L127,259.55,57,633.34a10,10,0,0,1-11.68,8l-27.57-5.19A21.76,21.76,0,0,1,.37,610.8L53.69,326.2a10,10,0,1,1,19.66,3.68L20,614.48a1.74,1.74,0,0,0,1.4,2l17.73,3.33,70-373.79a10,10,0,0,1,11.68-8l190,35.78a10,10,0,0,1,8,11.66l-70,373.81,17.74,3.34a1.7,1.7,0,0,0,1.31-.27,1.64,1.64,0,0,0,.71-1.07l75.26-401.75L95.29,212.74,83,278.63A10,10,0,0,1,63.29,275l14.18-75.73a10,10,0,0,1,11.68-8l268.23,50.49a10,10,0,0,1,8,11.67L288.25,665A21.72,21.72,0,0,1,267,682.67Z" fill="#061f75"/></g><g id="g4654"><path d="M303.93,197.58a9.77,9.77,0,0,1-1.86-.18L156.7,170a10,10,0,1,1,3.7-19.66l145.37,27.37a10,10,0,0,1-1.84,19.83Z" fill="#061f75"/></g><g id="g4658"><path d="M187.3,578.05a10,10,0,0,1-6.53-2.42L159.4,557.22l-26.6,9.41A10,10,0,0,1,120,553.86L130.62,524l-16.08-25.43a10,10,0,0,1,8.72-15.34l27.9.74,17.45-25.15a10,10,0,0,1,17.94,3.38l7.13,29.75,26.26,9.42a10,10,0,0,1,2.57,17.46l-24.22,17.87-1,31.69a10,10,0,0,1-10,9.69Zm-25.77-42.19a10.06,10.06,0,0,1,6.53,2.42l9.9,8.53.49-15.62a10,10,0,0,1,4.06-7.73l13-9.62-13.71-4.92a10,10,0,0,1-6.35-7.08l-3.18-13.29-7.8,11.23a9.93,9.93,0,0,1-8.48,4.3l-14.57-.39,8.66,13.7a10,10,0,0,1,1,8.68l-5.21,14.72,12.32-4.36A10.09,10.09,0,0,1,161.53,535.86Z" fill="#061f75"/></g><g id="g4662"><path d="M149.78,420.43a9.72,9.72,0,0,1-1.85-.17,10,10,0,0,1-8-11.67l19.29-103a10,10,0,0,1,19.66,3.69l-19.29,103A10,10,0,0,1,149.78,420.43Z" fill="#061f75"/></g><g id="g4666"><path d="M185.67,427.19a9.74,9.74,0,0,1-1.85-.18,10,10,0,0,1-8-11.67l19.29-103a10,10,0,1,1,19.66,3.68L195.49,419A10,10,0,0,1,185.67,427.19Z" fill="#061f75"/></g><g id="g4670"><path d="M221.55,433.94a9.72,9.72,0,0,1-1.85-.17,10,10,0,0,1-8-11.67l19.29-103a10,10,0,0,1,19.66,3.69l-19.29,103A10,10,0,0,1,221.55,433.94Z" fill="#061f75"/></g></g></g></svg>