<svg id="outline" height="512" viewBox="0 0 64 64" width="512" xmlns="http://www.w3.org/2000/svg"><path d="m32 12a20 20 0 1 0 20 20 20 20 0 0 0 -20-20zm0 38a18 18 0 1 1 18-18 18 18 0 0 1 -18 18z"/><path d="m42.53 24.06-9-5.32a3 3 0 0 0 -3.06 0l-9 5.32a3 3 0 0 0 -1.47 2.58v10.72a3 3 0 0 0 1.47 2.58l9 5.32a3 3 0 0 0 3.06 0l9-5.32a3 3 0 0 0 1.47-2.58v-10.72a3 3 0 0 0 -1.47-2.58zm-.53 13.3a1 1 0 0 1 -.49.86l-9 5.32a1 1 0 0 1 -1 0l-9-5.32a1 1 0 0 1 -.49-.86v-10.72a1 1 0 0 1 .49-.86l9-5.32a1 1 0 0 1 1 0l9 5.32a1 1 0 0 1 .49.86z"/><path d="m32 25a7 7 0 1 0 7 7 7 7 0 0 0 -7-7zm0 12a5 5 0 1 1 5-5 5 5 0 0 1 -5 5z"/><path d="m32 29a1 1 0 0 0 -1 1v4a1 1 0 0 0 2 0v-4a1 1 0 0 0 -1-1z"/><path d="m58 54a4 4 0 0 0 -3.94 3.37h-5.21l-3.05-5.75a24 24 0 0 0 7.5-30.62 1 1 0 1 0 -1.78.92 21.9 21.9 0 1 1 -7.52-8.35 22.07 22.07 0 0 1 5.32 5 1 1 0 1 0 1.68-1.22 23.85 23.85 0 0 0 -5.14-5l3-5.65h5.23a4 4 0 1 0 .14-2h-6a1 1 0 0 0 -.88.53l-3.2 6a24 24 0 0 0 -24.24 0l-3.03-5.7a1 1 0 0 0 -.88-.53h-6.14a4 4 0 1 0 0 2h5.54l2.84 5.36a24 24 0 0 0 .05 39.32l-2.89 5.45h-5.5a4 4 0 1 0 -.08 2h6.18a1 1 0 0 0 .88-.53l3.12-5.84a23.92 23.92 0 0 0 24.13 0l3.26 6.13a1 1 0 0 0 .88.53h6a4 4 0 1 0 3.73-5.42zm0-50a2 2 0 1 1 -2 2 2 2 0 0 1 2-2zm-52 4a2 2 0 1 1 2-2 2 2 0 0 1 -2 2zm0 52a2 2 0 1 1 2-2 .7.7 0 0 0 0 .14s0 0 0 .06a2 2 0 0 1 -2 1.8zm52 0a2 2 0 0 1 -2-1.57s0 0 0-.06a1.43 1.43 0 0 0 0-.22.77.77 0 0 1 0-.15 2 2 0 1 1 2 2z"/><path d="m4 14h4v4h-4z"/><path d="m56 46h4v4h-4z"/></svg>