<?xml version="1.0" encoding="utf-8"?>
<!-- Generator: Adobe Illustrator 25.0.0, SVG Export Plug-In . SVG Version: 6.00 Build 0)  -->
<svg version="1.1" id="Layer_1" xmlns="http://www.w3.org/2000/svg" xmlns:xlink="http://www.w3.org/1999/xlink" x="0px" y="0px"
	 viewBox="0 0 512 512" style="enable-background:new 0 0 512 512;" xml:space="preserve">
<style type="text/css">
	.st0{fill:#061F75;}
</style>
<g>
	<path class="st0" d="M431.6,323.1l-87,36.8c0.2-1.1,0.3-2.2,0.3-3.3c0-16.9-13.7-30.6-30.6-30.6h-62.7c-2.6,0-5-0.5-7.4-1.6
		l-53.1-24c-8.3-3.7-17.5-5.7-26.6-5.7h-43.3V310h43.3c6.9,0,13.9,1.5,20.2,4.3l53.1,24c4.3,1.9,9,2.9,13.8,2.9h62.7
		c8.4,0,15.1,6.8,15.1,15.1c0,8.3-6.8,15.1-15.1,15.1h-81.2v15.5h81.1c5.4,0,10.3-1.5,14.7-3.9v0.1l108.7-46
		c9-3.8,18.9-3.7,27.8,0.2c6.8,3,12.4,7.9,16.1,14.3L289.7,453.5c-14.7,7.8-32.1,9.3-47.9,4.3l-93.9-30.2l-26.8-0.4v15.5h23.2
		l92.7,29.8c7.7,2.5,15.6,3.6,23.6,3.6c12.6,0,25.1-3,36.3-9l204.4-108.3l-2.2-6.4c-4.7-13.2-14.5-23.6-27.4-29.2
		C458.8,317.8,444.6,317.6,431.6,323.1L431.6,323.1z"/>
	<path class="st0" d="M104.3,454.9V290.2c0-8.5-7-15.5-15.5-15.5H10.7v15.5h78.1V455H10.7v15.5h78.1
		C97.4,470.4,104.3,463.4,104.3,454.9L104.3,454.9z"/>
	<path class="st0" d="M68.4,430.8c0,6-4.9,10.9-10.9,10.9c-6.1,0-10.9-4.9-10.9-10.9c0-6.1,4.9-10.9,10.9-10.9
		C63.5,419.8,68.4,424.7,68.4,430.8z"/>
	<path class="st0" d="M194.2,220.5l8.4,6.2l57.7-32l52.2,31.4l4.5,2.6l8.4-6.1l-12.6-64.7l46.2-40l3.7-3.6l-3.3-9.6l-65.3-8.1
		l-23.7-56.2l-2.2-4.7l-5-0.1H258l-27.8,59.8l-60.8,5.1l-5.2,0.6l-3.1,9.7l48.2,44.9L194.2,220.5z M187.7,114.9l48.3-4.2l4.6-0.5
		l22.3-47.8l18.9,44.5l1.9,4.3l52.4,6.4L299.7,149l-3.6,3.1l10.1,52L264.5,179l-4-2.1l-46,25.5l10.8-46.5l1.3-4.8L187.7,114.9z"/>
	<path class="st0" d="M92.2,191.9L81,240.3l-1.6,5.6l8.8,6.4l48.3-26.8l42.7,25.6l4.8,3l8.6-6.3l-10.6-54.2l11.2-9.7l-10.2-11.7
		l-15,13l-2.2,2.6v3.1l7.3,38.6l-31.5-19l-1.6-1.6l-6.6-0.2l-1.6,1.6l-32.2,17.8l8.7-37.7v-4.6l-30.2-28.1l36.9-3.3l3.6-0.1l3.3-3.3
		l16.5-35.5l14.9,35.1l2.4,4.6h4.3l18.7,2.3l1.9-15.4l-15-1.8l-19.7-46.5l-2.6-5l-10.7,0.9l-1.5,4.6l-20.9,45.1l-49.3,4.3l-6.1,0.3
		l-3.3,11.3l4.3,2.8L92.2,191.9z"/>
	<path class="st0" d="M347.2,140.5l1.4,15.4l15-1.4l3.5-0.2l3.3-3.3l16.5-35.5l14.2,33.4l0.2,6.3h7.3l37,4.6l-28.8,25l-2.6,2.7v3.3
		l7.4,38.5L390,210.5l-1.6-1.6l-6.8,0.1l-1.4,1.5l-32,17.8l8.8-37.7l-0.1-4.6l-19.9-18.5l-10.6,11.3l14.2,13.3l-11.2,48.3l-1.6,5.2
		l8.5,7l48.6-26.9l42.7,25.7l4.8,2.9l8.5-6.4l-10.6-54.1l37.3-32.3c2.6-2,3.6-5.4,2.8-8.5l-1.8-5.5l-54.5-6.7l-19.9-46.7l-2.3-4.3
		l-9.2-0.3l-2.4,3.8l-21.7,46.4L347.2,140.5z"/>
</g>
</svg>
