<?xml version="1.0" encoding="UTF-8"?>
<svg id="Layer_1" xmlns="http://www.w3.org/2000/svg" version="1.1" viewBox="0 0 485.63 486.39">
  <!-- Generator: Adobe Illustrator 30.5.1, SVG Export Plug-In . SVG Version: 2.1.4 Build 3)  -->
  <defs>
    <style>
      .st0 {
        fill: #061f75;
        stroke: #061f75;
        stroke-miterlimit: 10;
        stroke-width: .75px;
      }

      .st1 {
        fill: #fff;
      }
    </style>
  </defs>
  <path class="st0" d="M287.93,330.5c12.77-23.24,19.76-48.57,19.77-75.21v-23.98s155.96.04,155.96.04l-.06-24.73h-159.42c-2.14-10.11-5.36-19.27-10.12-29.34l159.8-.05c11.68-.4,20.85,8.13,20.85,19.9l.05,112.73c0,12.36-8.8,20.7-20.91,20.69l-165.93-.06ZM425.36,289.33c0-13.52-10.95-24.48-24.46-24.48s-24.46,10.96-24.46,24.48,10.95,24.48,24.46,24.48,24.46-10.96,24.46-24.48ZM431.09,313.5c15.21.38,25.84-12.08,24.66-26.63-.66-8.1-5.33-14.91-11.4-18.65-7.34-4.53-15.79-4.5-23.19-1.65,14.06,12.13,13.9,33.55-.27,45.15,3.46,1.01,6.55,1.69,10.2,1.78Z"/>
  <path class="st0" d="M80.57,211.18h-32.26s-.03-15.4-.03-15.4l32.97-.03c2.53,0,4.32-2.87,4.75-4.65.49-2.07-.55-6.32-3.51-6.34l-34.2-.21-.05-15.03,33.44-.13c3.1-.01,4.57-3.81,4.26-6.06-.43-3.05-2.86-4.69-6.06-4.7h-30.63c3.2-32.55,33.82-55.56,66.2-48.31,24.24,5.43,42.42,27.29,42.45,52.57l.11,85.46c.02,16.29-8.28,31.3-21.13,40.62-15.82,11.47-36.06,13.27-54.2,6.67-10.22-3.72-18.38-10.47-24.48-19.35-7.08-10.3-10.01-22.2-9.97-34.7l.06-19.86,32.29.07c3.22,0,5.4-2.53,5.47-5.26.08-2.89-2.2-5.34-5.47-5.34Z"/>
  <path class="st0" d="M114.04,328.09l-.18,21.68c9.72.13,18.66-.34,28.02.33,8.02.58,12.08,9.24,10.96,16.57l-98.22-.02c-1.27-8,2.93-16.57,10.94-16.64l26.97-.25-.07-21.54c-22.27-1.62-42.69-12.06-57.17-29.01-10.16-13.2-17.4-28.4-18.34-45.29-.71-12.72-.38-25.01-.03-37.69.12-4.14,5.41-6.13,8.52-6.16,3.75-.03,8.86,2,8.94,6.36l.63,34.8c2.18,23.01,17.28,43.41,38.01,53.14,11.97,5.62,24.52,7.48,37.43,6.13,32.02-3.35,57.67-29.04,59.65-61.35l.48-33.29c.06-4.18,5.56-5.98,8.8-5.9s8.58,2.05,8.64,6.32l.39,30.8c.29,22.78-8.61,43.98-25.23,59.4-13.4,12.59-29.69,20.32-49.15,21.62Z"/>
  <path class="st0" d="M245.64,343.55l5.26-7.54c37.52-53.78,36.26-130.1-3.89-182.29-2.83-3.68-2.57-9.3,1.11-12.1,4.3-3.27,10.1-1.94,13.67,2.18,12.49,14.45,22.65,30.66,28.88,49.03,18.45,54.45,9.18,117.66-29.39,161.09-3.08,3.47-8.2,3.48-11.91,1.15-3.23-2.03-5.84-7.21-3.73-11.52Z"/>
  <path class="st0" d="M231.46,328.49c-3.18,3.62-8.9,2.53-11.74.15-2.88-2.42-5.5-7.19-2.9-10.95,15.64-22.56,24.59-49.76,22.75-77.35-1.49-22.38-8.74-43.33-21.79-61.52-2.2-3.07-3-6.92-.62-10.06,1.72-2.27,4.78-3.91,7.33-3.94,3.1-.03,6.05,1.44,8.08,3.96,9.48,11.78,16.8,24.37,21.38,38.89,13.09,41.46,6.63,87.72-22.51,120.81Z"/>
  <path class="st0" d="M192.62,306.32c-3.02-1.18-5.05-4.01-5.55-6.3-.78-3.6.81-5.92,2.91-8.54,19.19-23.81,19.51-64.32-.33-88.58-2.8-3.42-4.46-7.7-1.04-11.46,3.99-4.39,11.05-3.78,14.96.99,18.89,23.05,24.42,53.86,15.57,82.39-3.36,10.83-8.24,20.38-15.61,28.9-2.66,3.08-6.68,4.25-10.91,2.59Z"/>
  <ellipse class="st1" cx="400.9" cy="289.33" rx="24.46" ry="24.48"/>
  <path class="st1" d="M431.09,313.5c-3.64-.09-6.73-.77-10.2-1.78,14.17-11.6,14.33-33.02.27-45.15,7.4-2.85,15.85-2.87,23.19,1.65,6.07,3.74,10.75,10.55,11.4,18.65,1.18,14.55-9.45,27.01-24.66,26.63Z"/>
</svg>