<?xml version="1.0" encoding="utf-8"?>
<!-- Generator: Adobe Illustrator 25.0.0, SVG Export Plug-In . SVG Version: 6.00 Build 0)  -->
<svg version="1.1" id="Layer_1" xmlns="http://www.w3.org/2000/svg" xmlns:xlink="http://www.w3.org/1999/xlink" x="0px" y="0px"
	 viewBox="0 0 512 512" style="enable-background:new 0 0 512 512;" xml:space="preserve">
<style type="text/css">
	.st0{fill:#061F75;}
</style>
<path class="st0" d="M465.9,251.7h-2.6v-52.3v-51.4c0-9.2-7.5-16.6-16.6-16.6H328.2V45.1c0-19.3-15.7-35.1-35.1-35.1h-223
	C50.8,10,35,25.7,35,45.1v421.8c0,19.3,15.7,35.1,35.1,35.1h223c19.3,0,35.1-15.7,35.1-35.1v-86.4h113.2c12.1,0,21.9-9.8,21.9-21.9
	v-41.5h2.6c6.1,0,11.1-5,11.1-11v-43.3C477,256.6,472,251.7,465.9,251.7L465.9,251.7z M451.3,148.1v45.4H178.4
	c-13.8,0-25-11.2-25-25s11.2-25,25-25h268.3C449.2,143.4,451.3,145.5,451.3,148.1z M252.2,22l-3.4,10.4c-2.2,6.9-8.3,11.3-15.5,11.3
	H129.9c-7.2,0-13.3-4.4-15.5-11.3L111,22H252.2z M158.3,490l0.8-6.1c1-7,6.8-12.1,13.9-12.1h17.2c7.1,0,12.9,5.1,13.9,12.1l0.8,6.1
	H158.3z M316.2,466.9c0,12.7-10.4,23.1-23.1,23.1h-76.1l-1.1-7.7c-1.8-13-12.6-22.4-25.8-22.4H173c-13.1,0-24,9.4-25.8,22.4
	l-1.1,7.7H70.1C57.4,490,47,479.6,47,466.9V45.1C47,32.4,57.4,22,70.1,22h28.3l4.6,14.1c3.9,11.9,14.4,19.6,27,19.6h103.4
	c12.5,0,23.1-7.7,27-19.6l4.6-14.1h28.3c12.7,0,23.1,10.3,23.1,23.1v86.4H178.4c-20.4,0-37,16.6-37,37v167.5
	c0,24.6,20,44.7,44.7,44.7h130.1L316.2,466.9z M451.3,358.7c0,5.5-4.4,9.9-9.9,9.9H186.1c-18,0-32.7-14.7-32.7-32.7V195.7
	c6.6,6.1,15.4,9.7,25,9.7h272.9v46.3h-27.2c-18,0-32.7,14.7-32.7,32.7s14.7,32.7,32.7,32.7h27.2L451.3,358.7z M465,305.1h-40.9
	c-11.4,0-20.7-9.3-20.7-20.7c0-11.4,9.3-20.7,20.7-20.7H465V305.1z M424.9,277h16.8c3.3,0,6,2.7,6,6s-2.7,6-6,6h-16.8
	c-3.3,0-6-2.7-6-6S421.6,277,424.9,277z M173.4,162.4h257.9c3.3,0,6,2.7,6,6s-2.7,6-6,6H173.4c-3.3,0-6-2.7-6-6
	S170.1,162.4,173.4,162.4z M189.5,301.7c0-3.3,2.7-6,6-6h31.1c3.3,0,6,2.7,6,6s-2.7,6-6,6h-31.1C192.2,307.7,189.5,305,189.5,301.7z
	 M263.7,335.3c0,3.3-2.7,6-6,6h-62.2c-3.3,0-6-2.7-6-6s2.7-6,6-6h62.2C261.1,329.3,263.7,332,263.7,335.3z"/>
</svg>
