<?xml version="1.0" encoding="utf-8"?>
<!-- Generator: Adobe Illustrator 27.9.1, SVG Export Plug-In . SVG Version: 6.00 Build 0)  -->
<svg version="1.1" id="Layer_1" xmlns="http://www.w3.org/2000/svg" xmlns:xlink="http://www.w3.org/1999/xlink" x="0px" y="0px"
	 viewBox="0 0 50 50" style="enable-background:new 0 0 50 50;" xml:space="preserve">
<style type="text/css">
	.st0{fill-rule:evenodd;clip-rule:evenodd;fill:#FFFFFF;}
</style>
<g>
	<path class="st0" d="M37,12.9C33.8,9.7,29.6,8,25.1,8C15.8,8,8.2,15.6,8.2,24.8c0,3,0.8,5.9,2.2,8.4L8.1,42l8.9-2.3
		c2.5,1.3,5.2,2.1,8.1,2.1h0c9.3,0,16.9-7.6,16.9-16.9C41.9,20.4,40.2,16.1,37,12.9z M25.1,38.9L25.1,38.9c-2.5,0-5-0.7-7.1-2
		l-0.5-0.3L12.1,38l1.4-5.2l-0.3-0.5c-1.4-2.2-2.1-4.8-2.1-7.5c0-7.7,6.3-14,14-14c3.7,0,7.3,1.5,9.9,4.1s4.1,6.2,4.1,9.9
		C39.1,32.6,32.8,38.9,25.1,38.9z M32.8,28.4c-0.4-0.2-2.5-1.2-2.9-1.4c-0.4-0.1-0.7-0.2-0.9,0.2c-0.3,0.4-1.1,1.4-1.3,1.7
		c-0.2,0.3-0.5,0.3-0.9,0.1c-0.4-0.2-1.8-0.7-3.4-2.1C22,25.8,21.2,24.4,21,24c-0.2-0.4,0-0.6,0.2-0.9c0.5-0.6,0.9-1.2,1.1-1.4
		c0.1-0.3,0.1-0.5,0-0.7c-0.1-0.2-0.9-2.3-1.3-3.1c-0.3-0.8-0.7-0.7-0.9-0.7c-0.2,0-0.5,0-0.8,0c-0.3,0-0.7,0.1-1.1,0.5
		c-0.4,0.4-1.5,1.4-1.5,3.5s1.5,4.1,1.7,4.4c0.2,0.3,3,4.5,7.2,6.4c1,0.4,1.8,0.7,2.4,0.9c1,0.3,1.9,0.3,2.7,0.2
		c0.8-0.1,2.5-1,2.8-2c0.4-1,0.4-1.8,0.2-2C33.5,28.7,33.2,28.6,32.8,28.4z"/>
</g>
</svg>
