<svg id="Layer_1" data-name="Layer 1" xmlns="http://www.w3.org/2000/svg" xmlns:xlink="http://www.w3.org/1999/xlink" viewBox="0 0 50 50"><defs><style>.cls-1{fill:none;}.cls-2{clip-path:url(#clip-path);}.cls-3{fill:#fff;}</style><clipPath id="clip-path"><rect class="cls-1" x="5" y="5" width="40" height="40"/></clipPath></defs><g class="cls-2"><g class="cls-2"><path class="cls-3" d="M42.57,16.12a4.63,4.63,0,0,0-3.24-3.27C36.47,12.08,25,12.08,25,12.08s-11.47,0-14.33.77a4.63,4.63,0,0,0-3.24,3.27C6.67,19,6.67,25,6.67,25s0,6,.76,8.88a4.63,4.63,0,0,0,3.24,3.27c2.86.77,14.33.77,14.33.77s11.47,0,14.33-.77a4.63,4.63,0,0,0,3.24-3.27c.76-2.88.76-8.88.76-8.88s0-6-.76-8.88M21.25,30.45V19.55L30.83,25Z"/></g></g></svg>