<svg width="190" height="50" viewBox="0 0 190 50" fill="none" xmlns="http://www.w3.org/2000/svg">
<mask id="mask0_4738_17695" style="mask-type:luminance" maskUnits="userSpaceOnUse" x="3" y="2" width="185" height="45">
<path d="M187.178 2.24023H3V46.3229H187.178V2.24023Z" fill="white"/>
</mask>
<g mask="url(#mask0_4738_17695)">
<path d="M187.178 4.76937C156.504 5.65852 125.831 5.74178 95.1574 5.01917C64.4576 4.2689 33.784 3.18499 3 2.24023V6.4886C3 6.79372 3.02807 7.12996 3.08156 7.68402C64.5944 9.68675 125.884 7.93641 187.178 4.76937Z" fill="black"/>
<path d="M3 43.5699C64.4295 41.7954 125.802 43.5699 187.178 46.3238V40.7918C125.64 39.0147 64.3199 40.4979 3 43.5699Z" fill="black"/>
<path d="M155.181 30.6161C155.81 30.5897 156.405 30.3239 156.839 29.8745C157.274 29.4251 157.515 28.8271 157.511 28.2063C157.539 23.9052 157.539 19.63 157.511 15.3272C157.551 14.7623 157.361 14.205 156.984 13.7779C156.606 13.3508 156.072 13.0888 155.499 13.0496C155.382 13.0402 155.265 13.0402 155.148 13.0496C153.915 13.0225 152.683 13.0225 151.451 13.0496C145.698 13.2138 139.974 13.4057 134.167 13.5968V35.027H140.193V33.466C140.193 29.1381 140.248 24.8093 140.165 20.4538C140.137 19.0025 140.604 18.7008 141.945 18.7553C144.577 18.8651 147.231 18.783 149.89 18.783C150.383 18.783 150.848 18.8374 151.369 18.8633V24.7255H143.125V30.3689C143.402 30.441 143.687 30.4779 143.974 30.4787C144.513 30.3733 145.072 30.4515 145.559 30.7004C146.047 30.9494 146.434 31.3543 146.658 31.8487C147.295 32.8527 148 33.8137 148.767 34.7253C149.042 35.0538 149.452 35.4652 149.808 35.492C152.191 35.5465 154.575 35.5197 157.039 35.5197C155.944 33.9854 154.793 32.3941 153.506 30.6161C154.273 30.6161 154.712 30.6455 155.177 30.6161" fill="black"/>
<path d="M129.625 18.1092V13.0371H108.117V33.7292H129.679V28.5758H113.799V25.9309H129.652V20.7213H113.799V18.1092H129.625Z" fill="black"/>
<path d="M58.4976 34.6273C58.1676 34.66 57.8344 34.6198 57.5222 34.5095C57.21 34.3992 56.9267 34.2216 56.6929 33.9898C56.4591 33.7579 56.2808 33.4775 56.1709 33.1691C56.061 32.8608 56.0223 32.5321 56.0577 32.2071C56.0077 27.1998 55.9945 21.7033 56.0252 15.4012C55.9903 15.0783 56.0298 14.7519 56.141 14.4462C56.2521 14.1406 56.432 13.8636 56.6671 13.6362C56.9022 13.4087 57.1864 13.2366 57.4986 13.1327C57.8107 13.0288 58.1426 12.9959 58.4695 13.0363H75.9401C77.5942 13.0363 78.4125 13.8462 78.4406 15.5118C78.4677 21.0766 78.4677 26.7209 78.4677 32.1785C78.4677 33.8113 77.7179 34.572 76.1094 34.572C69.8272 34.6022 64.1668 34.6273 58.4976 34.6273ZM68.5151 29.2457C69.707 29.2457 70.7463 29.2457 71.6935 29.2579C72.5705 29.2579 72.6381 28.8067 72.6381 28.1178C72.6381 27.1557 72.6381 26.1893 72.6319 25.2515C72.6258 23.3715 72.6197 21.4293 72.6381 19.5199C72.6381 18.742 72.4706 18.3504 71.5549 18.3504C70.2218 18.3746 68.7817 18.3858 66.8856 18.3858H62.025V29.2579H62.5635C63.4923 29.2579 64.4167 29.2579 65.3166 29.2527H65.3236C66.376 29.2527 67.4574 29.2457 68.5116 29.2457" fill="black"/>
<path d="M32.4958 34.6277C30.7347 34.6277 29.9822 33.8628 29.9822 32.0727C29.9541 26.654 29.9541 21.1436 29.9541 15.8148C29.9541 13.7334 30.6259 13.0652 32.7194 13.0652H41.239V13.0376H49.9006C50.2459 13.0043 50.5945 13.0394 50.9258 13.1407C51.2572 13.2421 51.5646 13.4078 51.8301 13.6279C52.042 13.8802 52.2004 14.1719 52.2958 14.4856C52.3911 14.7993 52.4216 15.1288 52.3852 15.4543C52.4124 21.0122 52.4124 26.6626 52.4124 32.1254C52.4124 33.9051 51.7239 34.5992 49.9567 34.5992C44.12 34.6277 38.2114 34.6277 32.4975 34.6277M43.5903 29.2272C44.37 29.2272 45.0164 29.2272 45.6233 29.2358C46.4679 29.2358 46.6284 28.865 46.6284 28.1796C46.602 25.4724 46.5722 22.409 46.6003 19.4252C46.6234 19.2795 46.6164 19.1307 46.5798 18.9877C46.5432 18.8446 46.4777 18.7104 46.3872 18.5929C46.287 18.5082 46.1705 18.4446 46.0445 18.4058C45.9186 18.367 45.786 18.3539 45.6548 18.3673H45.5671C45.1918 18.375 44.7778 18.3802 44.3103 18.3802C43.8911 18.3802 43.4658 18.3802 43.0527 18.3742C42.6396 18.3681 42.2142 18.3681 41.795 18.3681H35.875V21.007C35.8697 23.6001 35.8645 26.0472 35.9066 28.5409C35.9066 28.7535 36.4845 29.2082 36.8283 29.2082C37.7764 29.2246 38.8218 29.2332 40.1172 29.2332H41.8415C42.4247 29.2272 43.0079 29.2272 43.5912 29.2272" fill="black"/>
<path d="M9.28661 26.4197C11.466 25.9824 13.0035 26.31 14.1208 28.2531C15.2736 30.0709 16.5527 31.8078 17.9491 33.4514C18.2008 33.7798 18.6201 34.2172 18.9831 34.2172C21.3301 34.2976 23.6771 34.2449 26.359 34.2449C25.8565 33.5058 25.6039 33.1212 25.3531 32.7677C23.257 29.9766 21.1898 27.157 19.0665 24.3954C18.9371 24.2786 18.8324 24.1378 18.7582 23.9811C18.6841 23.8245 18.642 23.6549 18.6343 23.4822C18.6266 23.3094 18.6536 23.1369 18.7136 22.9744C18.7736 22.812 18.8655 22.6627 18.984 22.5353C19.0016 22.5163 19.02 22.4972 19.0384 22.48C19.74 21.6865 20.3233 20.8109 20.9381 19.9621C22.6702 17.6378 24.4024 15.2832 26.1354 12.9607C26.0793 12.8233 26.0538 12.6875 25.9959 12.5501C23.6762 12.5501 21.3608 12.5225 19.0384 12.5778C18.6029 12.6672 18.221 12.923 17.9763 13.2891C16.5239 15.1769 15.0426 17.0647 13.7297 19.0329C13.4196 19.5502 12.9658 19.9694 12.4219 20.2409C11.8781 20.5124 11.2667 20.625 10.6601 20.5654C9.37519 20.5654 9.09542 20.128 9.1226 18.9784C9.20417 16.7622 9.15067 14.5191 9.15067 12.1387H3V34.6278H9.22697C9.28222 31.7555 9.28222 29.0483 9.28222 26.4163" fill="black"/>
<path d="M82.0605 13.0656V34.6255H103.622V29.301H102.219C97.8199 29.301 93.3944 29.2734 88.9952 29.3287C87.9156 29.3564 87.6191 28.9925 87.6191 27.899C87.6726 23.4683 87.6191 19.0107 87.6191 14.58V13.0371C85.6765 13.0648 83.8943 13.0648 82.0596 13.0648" fill="black"/>
<path d="M174.605 36.4266C172.95 36.4314 171.311 36.1098 169.784 35.4808C168.257 34.8519 166.873 33.9282 165.713 32.7642C163.953 31.0027 162.755 28.7715 162.267 26.3463C161.78 23.9211 162.024 21.4082 162.969 19.1181C163.914 16.8281 165.52 14.8611 167.587 13.4604C169.654 12.0596 172.092 11.2864 174.6 11.2363C176.243 11.2385 177.869 11.5625 179.384 12.1896C180.898 12.8167 182.271 13.7343 183.423 14.8891C185.818 17.2544 187.167 20.4569 187.177 23.7985C187.186 27.1401 185.856 30.35 183.474 32.7288C182.33 33.8955 180.961 34.8239 179.446 35.4591C177.931 36.0943 176.303 36.4233 174.657 36.4266H174.605ZM181.03 18.2152C180.422 18.2411 179.816 18.3011 179.215 18.395C179.203 18.395 179.191 18.4054 179.163 18.4287C179.082 18.4968 178.997 18.56 178.908 18.618C178.908 19.6094 178.915 20.6285 178.921 21.6139C178.933 23.6279 178.946 25.711 178.908 27.7855C178.884 27.9502 178.892 28.1181 178.933 28.2797C178.974 28.4412 179.047 28.5931 179.148 28.7268C179.237 28.8056 179.342 28.865 179.456 28.9014C179.57 28.9377 179.69 28.9501 179.809 28.9377C179.921 28.9377 180.041 28.9291 180.16 28.9213H180.226C180.345 28.9126 180.47 28.904 180.586 28.904C180.634 28.9032 180.682 28.9049 180.729 28.9092C180.891 28.9204 181.064 28.9325 181.217 28.9325C181.361 28.9464 181.507 28.9316 181.645 28.8892C181.784 28.8467 181.912 28.7774 182.023 28.6853C182.124 28.5556 182.198 28.4071 182.24 28.2486C182.282 28.0902 182.291 27.925 182.267 27.763C182.206 26.1596 182.217 24.5372 182.229 22.9641C182.229 22.3357 182.238 21.6891 182.238 21.0529C182.29 20.2968 182.239 19.5372 182.087 18.7944C181.936 18.3717 181.648 18.2161 181.034 18.2161L181.03 18.2152ZM177.873 28.834C178.119 28.8308 178.364 28.8552 178.605 28.9066C178.53 28.6922 178.472 28.5159 178.421 28.3638C178.346 28.1209 178.258 27.882 178.158 27.6481C177.924 27.1871 177.69 26.7261 177.456 26.2651L177.451 26.2538C176.302 23.9849 175.113 21.639 174.021 19.2888C173.601 18.3708 173.008 18.2835 172.15 18.2515H172.049C171.696 18.2303 171.346 18.3263 171.056 18.5242C170.765 18.7221 170.55 19.0105 170.445 19.3432C169.771 20.7763 169.055 22.2112 168.362 23.5976C167.933 24.456 167.49 25.3445 167.06 26.221C166.934 26.4846 166.808 26.7517 166.674 27.0335C166.43 27.5521 166.147 28.139 165.804 28.8487C166.012 28.8119 166.224 28.7943 166.436 28.7959C166.71 28.7959 166.978 28.8201 167.216 28.8417H167.241C167.485 28.8642 167.72 28.885 167.943 28.885C168.301 28.9118 168.658 28.8212 168.958 28.6271C169.258 28.4331 169.485 28.1466 169.603 27.8123C169.685 27.6394 170.091 27.5322 170.328 27.5322C170.979 27.5184 171.644 27.5115 172.285 27.5115C172.926 27.5115 173.587 27.5184 174.241 27.5322C174.433 27.5599 174.772 27.6437 174.828 27.7838C174.937 28.1311 175.163 28.4311 175.469 28.6339C175.776 28.8366 176.143 28.9298 176.511 28.8979C176.718 28.8979 176.932 28.8815 177.161 28.8642H177.178C177.385 28.8478 177.626 28.8296 177.867 28.8296" fill="black"/>
<path d="M171.489 25.1165H173.156C172.881 24.5805 172.637 24.1034 172.299 23.4473C171.978 24.1034 171.748 24.5943 171.489 25.1165Z" fill="black"/>
</g>
</svg>
