<?xml version="1.0" encoding="UTF-8"?>
<svg id="Layer_1" xmlns="http://www.w3.org/2000/svg" version="1.1" viewBox="0 0 737.86 165.52">
  <!-- Generator: Adobe Illustrator 30.5.1, SVG Export Plug-In . SVG Version: 2.1.4 Build 3)  -->
  <defs>
    <style>
      .st0 {
        fill: #343434;
      }

      .st1 {
        fill: #2cae9b;
      }
    </style>
  </defs>
  <g>
    <path class="st1" d="M48.69,8.55C52.59,3.31,59.1.77,65.42.1c10.21-.99,20.65,5.33,24.56,14.79,13.56,36.39,27.41,72.67,41,109.04,1.37,3.75,3.05,7.45,3.58,11.44-.32,1.95-2.23,3.08-4.08,3.17-2.8.13-5.67.02-8.35-.86-1.38-2.19-2.16-4.69-3.08-7.09-8.23-22.28-16.66-44.49-25.03-66.71-.25,0-.76,0-1.01,0-6.91,19.24-14.61,38.18-21.59,57.39-2.39,5.63-3.77,11.72-7.02,16.96-19.98.65-40,.3-59.99-.04-1.21-.28-3.12.22-3.77-1.12-1.55-2.06.14-4.51.68-6.61C15.09,94.13,28.61,57.74,42.53,21.48c1.58-4.51,3.01-9.21,6.16-12.93ZM58.29,18.19c-2.46,5.1-4.27,10.49-6.28,15.78-9.65,25.63-19.29,51.26-29.01,76.86-1.69,4.73-3.78,9.33-4.77,14.28,3.61.46,7.25.47,10.86-.02,13.31-35.67,26.85-71.25,40.2-106.9.53-1.53.92-3.11,1.33-4.68-4.44-.89-10.25.19-12.33,4.68ZM80.07,27.37c-8.94,24.74-18.74,49.15-27.71,73.88-2.85,8-6.37,15.76-8.83,23.9,4.13.05,8.25.1,12.37-.04,6.13-17.72,13.25-35.09,19.64-52.71,3.39-9.47,7.48-18.7,10.55-28.27-.96-5.8-3.7-11.33-6.02-16.76Z"/>
    <path class="st1" d="M97.82,3.72c1.08-1.51,3.21-2.61,5-1.66,5.92,2.53,11.05,7.37,13.17,13.54,11.23,30.65,23.02,61.09,34.45,91.67,2.14,5.96,4.63,11.8,6.45,17.88,4.19.13,8.38.05,12.56-.04-14.55-38.87-29.6-77.55-44.39-116.33-.91-2.17-1.1-4.51-1.16-6.83,5.28-1.56,9.96,2,13.56,5.43,5.51,5.13,6.33,13.05,9.51,19.54,13.06,35.18,26.4,70.28,39.56,105.44.7,1.75,1.33,4.23-.65,5.42-2.35.95-4.95.74-7.41.69-9.62-.57-19.26.1-28.87-.39-2.27-.03-2.62-2.8-3.51-4.37-15.85-42.06-31.66-84.15-47.65-126.16-.39-1.24-.72-2.53-.62-3.83Z"/>
  </g>
  <g>
    <path class="st0" d="M246.37,28.39c6.06-1.54,12.51-1,18.48.73,8.07,2.84,14.41,10.07,16.31,18.4,2.97,11.88,2.11,24.22,2.25,36.35-.06,11.06.41,22.33-2.46,33.11-2.41,9.32-10.41,17.1-20,18.64-9.03,1.72-19.4.2-26.1-6.57-8.85-8.03-9.34-21-9.59-32.13-.12-11.94-.26-23.89.15-35.82.47-7.59,1.51-15.56,5.7-22.09,3.59-5.21,9.06-9.18,15.26-10.62ZM251.31,43.14c-3.48.82-5.88,3.95-6.73,7.3-1.91,7.3-2.03,14.92-2.17,22.42.24,12.46-.65,25.03,1.43,37.38.68,3.13,1.49,6.61,4.16,8.67,3.62,2.93,9.36,2.85,12.96-.06,3.64-3.68,3.98-9.21,4.52-14.07,1.05-15.57,1.07-31.23-.05-46.8-.51-4.56-1.06-9.66-4.47-13.08-2.66-2.12-6.41-2.79-9.65-1.76Z"/>
    <path class="st0" d="M533.35,27.76c13.64-.23,27.28-.03,40.92-.1-.06,4.95.15,9.9-.13,14.84-8.34-.13-16.69-.11-25.03.01.07,9.68-.05,19.36.06,29.03,7.89.03,15.78-.07,23.67.03-.07,4.87-.07,9.75,0,14.62-7.89.02-15.78.04-23.67-.02-.05,11.88-.06,23.77.01,35.65,9.04.36,18.1.02,27.15.19-.48,4.86-1.27,9.67-1.94,14.51-13.68.11-27.37,0-41.05.04.06-36.27.04-72.54,0-108.8Z"/>
    <path class="st0" d="M422.01,28.67c5.51-.08,11.04-.18,16.55.17,8.68,35.43,17.8,70.76,26.38,106.22-5.99.12-11.98-.06-17.96.05-1.64-6.94-2.94-13.95-4.47-20.91-8.4-.31-16.82-.05-25.22-.12-1.21,7-2.92,13.91-4.14,20.91-6.07.18-12.14.2-18.21.06,7.85-32.71,16.48-65.25,24.55-97.91.76-2.84,1.14-5.85,2.52-8.47ZM429.75,55.7c-2.87,14.34-6.09,28.61-8.85,42.98,6.07.04,12.14.13,18.21,0-1.66-9.36-4.01-18.58-5.75-27.93-1.34-4.98-1.65-10.25-3.61-15.05Z"/>
    <path class="st0" d="M504.13,28.66c5.43-.04,10.85-.02,16.27-.03.04,35.5.08,70.99-.01,106.48-5.21-.02-10.42-.02-15.62-.03-.08-1.99-.14-3.97-.14-5.94-5.85,9.01-20.55,9.57-27.31,1.35-4.12-4.51-4.92-10.84-5.54-16.66-.79-10.83-.47-21.7-.31-32.55.5-7.16.96-15.2,6.15-20.72,4.1-4.77,10.99-6.2,16.98-5.13,3.64.6,6.59,2.9,9.45,5.05.16-10.6-.02-21.21.08-31.82ZM492.38,70.22c-3.13,1.61-3.7,5.48-4.11,8.62-.99,9.31-.74,18.72-.46,28.07.48,4.22.13,8.89,2.65,12.56,2.74,3.28,8.53,3.29,11.32.06,2.19-2.27,2.3-5.65,2.35-8.61-.02-10.37-.03-20.73.01-31.1-.21-2.7-.12-5.84-2.1-7.94-2.27-2.72-6.61-3.32-9.66-1.66Z"/>
    <path class="st0" d="M363.27,36.17c5.45.05,10.9,0,16.35.05-.06,6.7-.05,13.4,0,20.1,3.71.07,7.41.06,11.12,0,.06,4.06.06,8.12.07,12.18-3.74-.05-7.47-.01-11.21.05-.02,13.78-.03,27.56,0,41.34-.12,3.47,1.11,7.34,4.31,9.12,2.13,1.45,4.79,1.48,7.25,1.85.09,4.75-.02,9.5.05,14.26-6.98.02-14.56-.68-20.23-5.18-5.44-4.21-7.76-11.33-7.69-18-.06-14.5.06-28.99-.06-43.48-2.68.02-5.36.05-8.04.12-.1-4.04-.08-8.08-.1-12.12,2.67-.11,5.35-.12,8.02-.01.33-6.75.1-13.52.16-20.28Z"/>
    <path class="st0" d="M589.19,58.03c5-6.03,13.44-7.34,20.85-6.79,5.95.36,12.2,2.99,15.19,8.41,3.53,6.47,2.98,14.1,3.01,21.22.01,18.6-.07,37.2.11,55.8-4.77-.17-9.54-.13-14.31-.11-.25-1.31-.5-2.61-.73-3.92-2.32,1.48-4.42,3.36-7,4.39-6.07,1.62-13.19.93-17.82-3.67-5.31-5.62-6.48-13.74-6.3-21.17-.04-7.12,1.61-15.02,7.28-19.84,6.08-5.65,14.91-6.76,22.88-6.72.12-4.92.26-9.86-.06-14.78-.16-2.39-1.21-5-3.46-6.12-2.39-.6-5.69-.31-6.97,2.09-1.77,2.76-1.43,6.15-1.55,9.26-5.19.09-10.37.13-15.55.05-.24-6.25.65-12.93,4.43-18.1ZM598.88,103.79c-2.09,5.09-2.19,11.16-.2,16.29,2.14,5.05,10.38,4.86,12.36-.19,2.57-6.97,1.35-14.54,1.64-21.79-5.05-.12-11.39.46-13.8,5.69Z"/>
    <path class="st0" d="M643.43,57.29c4.62-5.12,11.95-6.49,18.55-6.07,5.52.23,11.47,2.17,14.66,6.98,4.53,5.93,4.31,13.79,4.49,20.89-5.19-.05-10.37.01-15.56-.07-.23-4.57,1.11-10.47-3-13.72-2.3-.55-5.29-.77-7.09,1.03-2.99,4.29-2.35,10.9,1.79,14.25,7.2,6.11,16.67,9.98,21.59,18.46,4.2,7.7,4.07,17.09,1.8,25.37-1.87,6.56-7.63,11.55-14.32,12.75-7.85,1.29-16.92,1.09-23.25-4.39-6.31-5.65-6.76-14.88-6.53-22.76,5.31-.32,10.65-.4,15.96,0-.09,3.62-.23,7.45,1.34,10.81,1.82,3.63,7.05,4.25,10.19,2.03,2.63-3.51,2.67-8.41,1.52-12.48-1.77-5.48-7.06-8.51-11.52-11.58-6.74-4.39-13.63-10.02-15.35-18.31-1.33-7.85-.91-16.99,4.73-23.19Z"/>
    <path class="st0" d="M722.19,52.39c5.22.14,10.44.16,15.67,0-3.94,19.9-8.41,39.7-12.51,59.56-2.66,11.53-4.66,23.21-7.63,34.66-1.89,6.68-4.91,14.07-11.51,17.31-5.51,2.38-11.67,1.56-17.45,1.02-.01-4.82,0-9.64.16-14.46,3.83.17,8.78,1.45,11.56-2.04,1.8-3.07,3.07-6.7,2.89-10.29-6.08-28.53-12.26-57.05-18.4-85.58,5.66-.17,11.33-.12,17-.03,3.22,20.12,7.04,40.16,9.6,60.38,3.49-20.18,6.91-40.39,10.62-60.53Z"/>
    <path class="st0" d="M322.59,55.59c7.07-1.54,15.78.47,19.6,7.12,4.68,8.2,4.29,17.99,4.48,27.13-.26,11,.8,22.24-1.97,33.02-1.83,7.49-8.8,13.56-16.68,13.4-5.33.54-10.16-2.21-14.16-5.42-.04,10.58-.03,21.17-.03,31.76-5.39.09-10.78-.07-16.17.09-.13-35.41-.04-70.83-.04-106.24,5.23-.15,10.46-.1,15.69-.04,0,1.77-.05,3.54-.1,5.32,2.63-2.69,5.59-5.34,9.38-6.14ZM320.49,69.46c-4.61.45-6.69,5.24-6.6,9.36-.16,10.7-.02,21.4-.06,32.09.1,3.42.28,7.67,3.55,9.67,3.6,2.55,9.78,1.43,11.26-3.04,1.24-3.76,1.51-7.76,1.64-11.69-.05-8.31.38-16.63-.27-24.92-.42-3.05-.64-6.28-2.15-9.01-1.94-1.81-4.68-3.1-7.37-2.46Z"/>
  </g>
</svg>